{
.appVersion = "1350";
DisplayStrings = (
"suggestion/space gouge\012trigger/space ragged/space/g.lg.ri/space \012wagging/space waging\012"
);
classes = (
{
code = "d j jdotless m n o p r u v w rinsular rinsular.le m.le n.le p.le r.le sinsular.le\012# removed from class:\012# f.le";
name = before_t;
},
{
code = "a aacute acircumflex adieresis agrave amacron aring atilde";
name = a_lc;
},
{
code = "u uacute ucircumflex udieresis ugrave umacron";
name = u_lc;
},
{
code = "o oacute ocircumflex odieresis ograve omacron oslash otilde";
name = o_lc;
},
{
code = "e eacute ecircumflex edieresis egrave emacron eogonek";
name = elow_lc;
},
{
code = "e.rfmnpr eacute.rfmnpr ecircumflex.rfmnpr edieresis.rfmnpr egrave.rfmnpr emacron.rfmnpr eogonek.rfmnpr e.rt";
name = ehigh_lc;
},
{
code = "i idotless iacute icircumflex idieresis igrave imacron";
name = i_lc;
},
{
code = "i.lt idotless.lt iacute.lt icircumflex.lt idieresis.lt igrave.lt imacron.lt ";
name = ilt_lc;
},
{
code = "e.ralt eacute.ralt ecircumflex.ralt edieresis.ralt egrave.ralt emacron.ralt eogonek.ralt";
disabled = 1;
name = eralt_lc;
},
{
code = "e.raq eacute.raq ecircumflex.raq edieresis.raq egrave.raq emacron.raq eogonek.raq\012";
name = eraq_lc;
},
{
code = "e.ru eacute.ru ecircumflex.ru edieresis.ru egrave.ru emacron.ru eogonek.ru";
name = eru_lc;
},
{
code = "ae aeacute aemacron";
name = ae_lc;
},
{
code = "ae.rfmnpr aeacute.rfmnpr aemacron.rfmnpr";
disabled = 1;
name = aehigh_lc;
},
{

glyphs = (
{
glyphname = A;
lastChange = "2021-06-05 20:31:08 +0000";
layers = (
{
anchors = (
{
name = bottom;
position = "{605, 0}";
},
{
name = ogonek;
position = "{1089, 10}";
},
{
name = top;
position = "{605, 1132}";
}
);
guideLines = (
{
position = "{167, 1172}";
}
);
layerId = "3A120C99-D056-4211-BE1A-9D4BB1803F4A";
paths = (
{
closed = 1;
nodes = (
"-225 -329 LINE",
"-237 -320 OFFCURVE",
"-256 -305 OFFCURVE",
"-256 -291 CURVE SMOOTH",
"-256 -273 OFFCURVE",
"-200 -214 OFFCURVE",
"-160 -171 CURVE SMOOTH",
"-44 -48 OFFCURVE",
"77 93 OFFCURVE",
"191 227 CURVE SMOOTH",
"206 245 OFFCURVE",
"217 251 OFFCURVE",
"237 251 CURVE SMOOTH",
"252 251 OFFCURVE",
"269 244 OFFCURVE",
"292 194 CURVE SMOOTH",
"322 128 OFFCURVE",
"360 8 OFFCURVE",
"390 -53 CURVE SMOOTH",
"409 -87 OFFCURVE",
"429 -105 OFFCURVE",
"451 -105 CURVE SMOOTH",
"465 -105 OFFCURVE",
"479 -97 OFFCURVE",
"496 -85 CURVE SMOOTH",
"565 -36 OFFCURVE",
"718 157 OFFCURVE",
"772 231 CURVE",
"777 104 OFFCURVE",
"785 -43 OFFCURVE",
"883 -43 CURVE SMOOTH",
"984 -43 OFFCURVE",
"1178 152 OFFCURVE",
"1335 312 CURVE",
"1315 342 LINE",
"1207 235 OFFCURVE",
"1046 76 OFFCURVE",
"971 76 CURVE SMOOTH",
"913 76 OFFCURVE",
"911 180 OFFCURVE",
"911 287 CURVE SMOOTH",
"911 393 OFFCURVE",
"919 512 OFFCURVE",
"919 625 CURVE SMOOTH",
"919 767 OFFCURVE",
"907 923 OFFCURVE",
"830 1031 CURVE SMOOTH",
"772 1112 OFFCURVE",
"683 1172 OFFCURVE",
"598 1172 CURVE SMOOTH",
"384 1172 OFFCURVE",
"241 910 OFFCURVE",
"135 710 CURVE",
"109 705 OFFCURVE",
"56 676 OFFCURVE",
"56 636 CURVE SMOOTH",
"56 606 OFFCURVE",
"76 593 OFFCURVE",
"106 593 CURVE SMOOTH",
"148 593 OFFCURVE",
"191 617 OFFCURVE",
"191 656 CURVE SMOOTH",
"191 674 OFFCURVE",
"183 692 OFFCURVE",
"170 703 CURVE",
"274 866 OFFCURVE",
"395 1053 OFFCURVE",
"514 1053 CURVE SMOOTH",
"599 1053 OFFCURVE",
"666 988 OFFCURVE",
"717 893 CURVE SMOOTH",
"764 806 OFFCURVE",
"788 689 OFFCURVE",
"788 578 CURVE SMOOTH",
"788 487 OFFCURVE",
"776 399 OFFCURVE",
"773 309 CURVE",
"717 221 OFFCURVE",
"603 60 OFFCURVE",
"554 18 CURVE SMOOTH",
"549 13 OFFCURVE",
"541 8 OFFCURVE",
"534 8 CURVE SMOOTH",
"521 8 OFFCURVE",
"506 23 OFFCURVE",
"481 71 CURVE SMOOTH",
"447 136 OFFCURVE",
"396 268 OFFCURVE",
"346 402 CURVE",
"415 481 OFFCURVE",
"479 551 OFFCURVE",
"549 621 CURVE SMOOTH",
"573 645 OFFCURVE",
"617 689 OFFCURVE",
"617 719 CURVE SMOOTH",
"617 740 OFFCURVE",
"595 769 OFFCURVE",
"576 792 CURVE",
"453 699 LINE",
"483 700 OFFCURVE",
"516 701 OFFCURVE",
"516 674 CURVE SMOOTH",
"516 658 OFFCURVE",
"500 627 OFFCURVE",
"461 583 CURVE SMOOTH",
"407 523 OFFCURVE",
"373 485 OFFCURVE",
"302 405 CURVE SMOOTH",
"208 300 OFFCURVE",
"114 179 OFFCURVE",
"18 68 CURVE SMOOTH",
"-94 -61 OFFCURVE",
"-183 -154 OFFCURVE",
"-251 -224 CURVE SMOOTH",
"-304 -279 OFFCURVE",
"-329 -306 OFFCURVE",
"-329 -334 CURVE SMOOTH",
"-329 -354 OFFCURVE",
"-319 -374 OFFCURVE",
"-303 -397 CURVE"
);
}
);
width = 1210;
},
{
anchors = (
{
name = bottom;
position = "{605, 0}";
},
{
name = ogonek;
position = "{1089, 10}";
},
{
name = top;
position = "{605, 1132}";
}
);
associatedMasterId = "3A120C99-D056-4211-BE1A-9D4BB1803F4A";
guideLines = (
{
position = "{222, -105}";
},
{
position = "{167, 1172}";
}
);
layerId = "10CE377E-5948-42F3-AFD1-259CFDBC5DA5";
name = "Color 0";
paths = (
{
closed = 1;
nodes = (
"-225 -329 LINE",
"-237 -320 OFFCURVE",
"-256 -305 OFFCURVE",
"-256 -291 CURVE SMOOTH",
"-256 -273 OFFCURVE",
"-200 -214 OFFCURVE",
"-160 -171 CURVE SMOOTH",
"-44 -48 OFFCURVE",
"77 93 OFFCURVE",
"191 227 CURVE SMOOTH",
"206 245 OFFCURVE",
"217 251 OFFCURVE",
"237 251 CURVE SMOOTH",
"252 251 OFFCURVE",
"269 244 OFFCURVE",
"292 194 CURVE SMOOTH",
"322 128 OFFCURVE",
"360 8 OFFCURVE",
"390 -53 CURVE SMOOTH",
"409 -87 OFFCURVE",
"429 -105 OFFCURVE",
"451 -105 CURVE SMOOTH",
"465 -105 OFFCURVE",
"479 -97 OFFCURVE",
"496 -85 CURVE SMOOTH",
"565 -36 OFFCURVE",
"718 157 OFFCURVE",
"772 231 CURVE",
"777 104 OFFCURVE",
"785 -43 OFFCURVE",
"883 -43 CURVE SMOOTH",
"984 -43 OFFCURVE",
"1178 152 OFFCURVE",
"1335 312 CURVE",
"1315 342 LINE",
"1207 235 OFFCURVE",
"1046 76 OFFCURVE",
"971 76 CURVE SMOOTH",
"913 76 OFFCURVE",
"911 180 OFFCURVE",
"911 287 CURVE SMOOTH",
"911 393 OFFCURVE",
"919 512 OFFCURVE",
"919 625 CURVE SMOOTH",
"919 767 OFFCURVE",
"907 923 OFFCURVE",
"830 1031 CURVE SMOOTH",
"772 1112 OFFCURVE",
"683 1172 OFFCURVE",
"598 1172 CURVE SMOOTH",
"384 1172 OFFCURVE",
"241 910 OFFCURVE",
"135 710 CURVE",
"109 705 OFFCURVE",
"56 676 OFFCURVE",
"56 636 CURVE SMOOTH",
"56 606 OFFCURVE",
"76 593 OFFCURVE",
"106 593 CURVE SMOOTH",
"148 593 OFFCURVE",
"191 617 OFFCURVE",
"191 656 CURVE SMOOTH",
"191 674 OFFCURVE",
"183 692 OFFCURVE",
"170 703 CURVE",
"274 866 OFFCURVE",
"395 1053 OFFCURVE",
"514 1053 CURVE SMOOTH",
"599 1053 OFFCURVE",
"666 988 OFFCURVE",
"717 893 CURVE SMOOTH",
"764 806 OFFCURVE",
"788 689 OFFCURVE",
"788 578 CURVE SMOOTH",
"788 487 OFFCURVE",
"776 399 OFFCURVE",
"773 309 CURVE",
"717 221 OFFCURVE",
"603 60 OFFCURVE",
"554 18 CURVE SMOOTH",
"549 13 OFFCURVE",
"541 8 OFFCURVE",
"534 8 CURVE SMOOTH",
"521 8 OFFCURVE",
"506 23 OFFCURVE",
"481 71 CURVE SMOOTH",
"447 136 OFFCURVE",
"396 268 OFFCURVE",
"346 402 CURVE",
"415 481 OFFCURVE",
"479 551 OFFCURVE",
"549 621 CURVE SMOOTH",
"573 645 OFFCURVE",
"617 689 OFFCURVE",
"617 719 CURVE SMOOTH",
"617 740 OFFCURVE",
"595 769 OFFCURVE",
"576 792 CURVE",
"453 699 LINE",
"483 700 OFFCURVE",
"516 701 OFFCURVE",
"516 674 CURVE SMOOTH",
"516 658 OFFCURVE",
"500 627 OFFCURVE",
"461 583 CURVE SMOOTH",
"407 523 OFFCURVE",
"373 485 OFFCURVE",
"302 405 CURVE SMOOTH",
"208 300 OFFCURVE",
"114 179 OFFCURVE",
"18 68 CURVE SMOOTH",
"-94 -61 OFFCURVE",
"-183 -154 OFFCURVE",
"-251 -224 CURVE SMOOTH",
"-304 -279 OFFCURVE",
"-329 -306 OFFCURVE",
"-329 -334 CURVE SMOOTH",
"-329 -354 OFFCURVE",
"-319 -374 OFFCURVE",
"-303 -397 CURVE"
);
}
);
width = 1210;
},
{
associatedMasterId = "3A120C99-D056-4211-BE1A-9D4BB1803F4A";
guideLines = (
{
position = "{222, -105}";
},
{
position = "{167, 1172}";
}
);
layerId = "7EB9028A-E12B-430F-A2D4-9405679E71B5";
name = "Color 4";
paths = (
{
closed = 1;
nodes = (
"541 8 OFFCURVE",
"549 13 OFFCURVE",
"554 18 CURVE SMOOTH",
"603 60 OFFCURVE",
"717 221 OFFCURVE",
"773 309 CURVE",
"776 399 OFFCURVE",
"788 487 OFFCURVE",
"788 578 CURVE SMOOTH",
"788 689 OFFCURVE",
"764 806 OFFCURVE",
"717 893 CURVE",
"576 792 LINE",
"595 769 OFFCURVE",
"617 740 OFFCURVE",
"617 719 CURVE SMOOTH",
"617 689 OFFCURVE",
"573 645 OFFCURVE",
"549 621 CURVE SMOOTH",
"479 551 OFFCURVE",
"415 481 OFFCURVE",
"346 402 CURVE",
"396 268 OFFCURVE",
"447 136 OFFCURVE",
"481 71 CURVE SMOOTH",
"506 23 OFFCURVE",
"521 8 OFFCURVE",
"534 8 CURVE SMOOTH"
);
}
);
width = 1210;
}
);
unicode = 0041;
},
{
glyphname = Aacute;
lastChange = "2021-06-05 21:19:15 +0000";
layers = (
{
components = (
{
name = A;
},
{
name = acutecomb;
transform = "{1, 0, 0, 1, 1113, 531}";
}
);
layerId = "3A120C99-D056-4211-BE1A-9D4BB1803F4A";
width = 1210;
},
{
associatedMasterId = "3A120C99-D056-4211-BE1A-9D4BB1803F4A";
components = (
{
name = A;
},
{
name = acutecomb;
transform = "{1, 0, 0, 1, 1113, 531}";
}
);
layerId = "5FAC131C-F032-4290-8332-352EF297449A";
name = "Color 0";
width = 1210;
},
{
associatedMasterId = "3A120C99-D056-4211-BE1A-9D4BB1803F4A";
layerId = "7E2A8DF2-2517-4EDD-BCFA-F846D881AE3F";
name = "Color 1";
paths = (
{
closed = 1;
nodes = (
"541 8 OFFCURVE",
"549 13 OFFCURVE",
"554 18 CURVE SMOOTH",
"603 60 OFFCURVE",
"717 221 OFFCURVE",
"773 309 CURVE",
"776 399 OFFCURVE",
"788 487 OFFCURVE",
"788 578 CURVE SMOOTH",
"788 689 OFFCURVE",
"764 806 OFFCURVE",
"717 893 CURVE",
"576 792 LINE",
"595 769 OFFCURVE",
"617 740 OFFCURVE",
"617 719 CURVE SMOOTH",
"617 689 OFFCURVE",
"573 645 OFFCURVE",
"549 621 CURVE SMOOTH",
"479 551 OFFCURVE",
"415 481 OFFCURVE",
"346 402 CURVE",
"396 268 OFFCURVE",
"447 136 OFFCURVE",
"481 71 CURVE SMOOTH",
"506 23 OFFCURVE",
"521 8 OFFCURVE",
"534 8 CURVE SMOOTH"
);
}
);
width = 1210;
}
);
unicode = 00C1;
},
{
glyphname = Acircumflex;
lastChange = "2021-06-05 21:19:28 +0000";
layers = (
{
components = (
{
name = A;
},
{
name = circumflexcomb;
transform = "{1, 0, 0, 1, 1101, 531}";
}
);
layerId = "3A120C99-D056-4211-BE1A-9D4BB1803F4A";
width = 1210;
},
{
associatedMasterId = "3A120C99-D056-4211-BE1A-9D4BB1803F4A";
components = (
{
name = A;
},
{
name = circumflexcomb;
transform = "{1, 0, 0, 1, 1101, 531}";
}
);
layerId = "F00BA260-2ADB-492D-B89C-26BA68F31A64";
name = "Color 0";
width = 1210;
},
{
associatedMasterId = "3A120C99-D056-4211-BE1A-9D4BB1803F4A";
layerId = "2ADD8B2E-31B6-4B3B-A840-A437EFFB9DA7";
name = "Color 2";
paths = (
{
closed = 1;
nodes = (
"541 8 OFFCURVE",
"549 13 OFFCURVE",
"554 18 CURVE SMOOTH",
"603 60 OFFCURVE",
"717 221 OFFCURVE",
"773 309 CURVE",
"776 399 OFFCURVE",
"788 487 OFFCURVE",
"788 578 CURVE SMOOTH",
"788 689 OFFCURVE",
"764 806 OFFCURVE",
"717 893 CURVE",
"576 792 LINE",
"595 769 OFFCURVE",
"617 740 OFFCURVE",
"617 719 CURVE SMOOTH",
"617 689 OFFCURVE",
"573 645 OFFCURVE",
"549 621 CURVE SMOOTH",
"479 551 OFFCURVE",
"415 481 OFFCURVE",
"346 402 CURVE",
"396 268 OFFCURVE",
"447 136 OFFCURVE",
"481 71 CURVE SMOOTH",
"506 23 OFFCURVE",
"521 8 OFFCURVE",
"534 8 CURVE SMOOTH"
);
}
);
width = 1210;
}
);
unicode = 00C2;
},
{
glyphname = Adieresis;
lastChange = "2021-06-05 21:19:42 +0000";
layers = (
{
components = (
{
name = A;
},
{
name = dieresiscomb;
transform = "{1, 0, 0, 1, 1181, 531}";
}
);
layerId = "3A120C99-D056-4211-BE1A-9D4BB1803F4A";
width = 1210;
},
{
associatedMasterId = "3A120C99-D056-4211-BE1A-9D4BB1803F4A";
components = (
{
name = A;
},
{
name = dieresiscomb;
transform = "{1, 0, 0, 1, 1181, 531}";
}
);
layerId = "64D2BDD6-FEA5-4178-ACA8-BB891FF8390C";
name = "Color 0";
width = 1210;
},
{
associatedMasterId = "3A120C99-D056-4211-BE1A-9D4BB1803F4A";
layerId = "A7929555-2CE0-47A6-B092-123166F6E0A0";
name = "Color 3";
paths = (
{
closed = 1;
nodes = (
"541 8 OFFCURVE",
"549 13 OFFCURVE",
"554 18 CURVE SMOOTH",
"603 60 OFFCURVE",
"717 221 OFFCURVE",
"773 309 CURVE",
"776 399 OFFCURVE",
"788 487 OFFCURVE",
"788 578 CURVE SMOOTH",
"788 689 OFFCURVE",
"764 806 OFFCURVE",
"717 893 CURVE",
"576 792 LINE",
"595 769 OFFCURVE",
"617 740 OFFCURVE",
"617 719 CURVE SMOOTH",
"617 689 OFFCURVE",
"573 645 OFFCURVE",
"549 621 CURVE SMOOTH",
"479 551 OFFCURVE",
"415 481 OFFCURVE",
"346 402 CURVE",
"396 268 OFFCURVE",
"447 136 OFFCURVE",
"481 71 CURVE SMOOTH",
"506 23 OFFCURVE",
"521 8 OFFCURVE",
"534 8 CURVE SMOOTH"
);
}
);
width = 1210;
}
);
unicode = 00C4;
},
{
glyphname = Agrave;
lastChange = "2021-06-05 21:19:56 +0000";
layers = (
{
components = (
{
name = A;
},
{
name = gravecomb;
transform = "{1, 0, 0, 1, 1078, 531}";
}
);
layerId = "3A120C99-D056-4211-BE1A-9D4BB1803F4A";
width = 1210;
},
{
associatedMasterId = "3A120C99-D056-4211-BE1A-9D4BB1803F4A";
components = (
{
name = A;
},
{
name = gravecomb;
transform = "{1, 0, 0, 1, 1078, 531}";
}
);
layerId = "A6BC4955-3846-4C4D-BE82-16269E238832";
name = "Color 0";
width = 1210;
},
{
associatedMasterId = "3A120C99-D056-4211-BE1A-9D4BB1803F4A";
layerId = "5B8AF061-22BD-42B7-9D5B-B2B5B3431357";
name = "Color 4";
paths = (
{
closed = 1;
nodes = (
"541 8 OFFCURVE",
"549 13 OFFCURVE",
"554 18 CURVE SMOOTH",
"603 60 OFFCURVE",
"717 221 OFFCURVE",
"773 309 CURVE",
"776 399 OFFCURVE",
"788 487 OFFCURVE",
"788 578 CURVE SMOOTH",
"788 689 OFFCURVE",
"764 806 OFFCURVE",
"717 893 CURVE",
"576 792 LINE",
"595 769 OFFCURVE",
"617 740 OFFCURVE",
"617 719 CURVE SMOOTH",
"617 689 OFFCURVE",
"573 645 OFFCURVE",
"549 621 CURVE SMOOTH",
"479 551 OFFCURVE",
"415 481 OFFCURVE",
"346 402 CURVE",
"396 268 OFFCURVE",
"447 136 OFFCURVE",
"481 71 CURVE SMOOTH",
"506 23 OFFCURVE",
"521 8 OFFCURVE",
"534 8 CURVE SMOOTH"
);
}
);
width = 1210;
}
);
unicode = 00C0;
},
{
glyphname = Amacron;
lastChange = "2021-06-05 22:31:43 +0000";
layers = (
{
components = (
{
name = A;
},
{
name = macroncomb;
transform = "{1, 0, 0, 1, 1183, 531}";
}
);
layerId = "3A120C99-D056-4211-BE1A-9D4BB1803F4A";
width = 1210;
},
{
associatedMasterId = "3A120C99-D056-4211-BE1A-9D4BB1803F4A";
components = (
{
name = A;
},
{
name = macroncomb;
transform = "{1, 0, 0, 1, 1183, 531}";
}
);
layerId = "2A6B3511-AB25-4111-8A35-3660BDACC34F";
name = "Color 0";
width = 1210;
},
{
associatedMasterId = "3A120C99-D056-4211-BE1A-9D4BB1803F4A";
layerId = "61886804-90BB-4885-9A8D-6ED297BF1BF5";
name = "Color 1";
paths = (
{
closed = 1;
nodes = (
"541 8 OFFCURVE",
"549 13 OFFCURVE",
"554 18 CURVE SMOOTH",
"603 60 OFFCURVE",
"717 221 OFFCURVE",
"773 309 CURVE",
"776 399 OFFCURVE",
"788 487 OFFCURVE",
"788 578 CURVE SMOOTH",
"788 689 OFFCURVE",
"764 806 OFFCURVE",
"717 893 CURVE",
"576 792 LINE",
"595 769 OFFCURVE",
"617 740 OFFCURVE",
"617 719 CURVE SMOOTH",
"617 689 OFFCURVE",
"573 645 OFFCURVE",
"549 621 CURVE SMOOTH",
"479 551 OFFCURVE",
"415 481 OFFCURVE",
"346 402 CURVE",
"396 268 OFFCURVE",
"447 136 OFFCURVE",
"481 71 CURVE SMOOTH",
"506 23 OFFCURVE",
"521 8 OFFCURVE",
"534 8 CURVE SMOOTH"
);
}
);
width = 1210;
}
);
unicode = 0100;
},
{
glyphname = Aring;
lastChange = "2021-06-05 22:20:40 +0000";
layers = (
{
layerId = "3A120C99-D056-4211-BE1A-9D4BB1803F4A";
paths = (
{
closed = 1;
nodes = (
"520 -105 OFFCURVE",
"625 5 OFFCURVE",
"690 94 CURVE SMOOTH",
"747 171 OFFCURVE",
"790 254 OFFCURVE",
"834 342 CURVE",
"848 219 OFFCURVE",
"883 92 OFFCURVE",
"930 -6 CURVE SMOOTH",
"949 -45 OFFCURVE",
"977 -60 OFFCURVE",
"1003 -60 CURVE SMOOTH",
"1023 -60 OFFCURVE",
"1044 -52 OFFCURVE",
"1070 -36 CURVE SMOOTH",
"1131 1 OFFCURVE",
"1212 74 OFFCURVE",
"1295 149 CURVE",
"1263 173 LINE",
"1232 140 OFFCURVE",
"1200 107 OFFCURVE",
"1171 90 CURVE SMOOTH",
"1159 83 OFFCURVE",
"1147 78 OFFCURVE",
"1135 78 CURVE SMOOTH",
"1117 78 OFFCURVE",
"1102 90 OFFCURVE",
"1084 110 CURVE SMOOTH",
"943 272 OFFCURVE",
"930 747 OFFCURVE",
"923 1116 CURVE",
"829 1123 LINE",
"712 999 OFFCURVE",
"594 873 OFFCURVE",
"465 746 CURVE SMOOTH",
"319 602 OFFCURVE",
"160 455 OFFCURVE",
"0 307 CURVE",
"26 256 LINE",
"79 309 OFFCURVE",
"138 364 OFFCURVE",
"189 364 CURVE SMOOTH",
"259 364 OFFCURVE",
"305 293 OFFCURVE",
"358 108 CURVE SMOOTH",
"402 -46 OFFCURVE",
"434 -105 OFFCURVE",
"473 -105 CURVE SMOOTH"
);
},
{
closed = 1;
nodes = (
"550 108 OFFCURVE",
"529 156 OFFCURVE",
"489 301 CURVE SMOOTH",
"452 435 OFFCURVE",
"382 502 OFFCURVE",
"280 502 CURVE",
"376 594 OFFCURVE",
"473 687 OFFCURVE",
"562 780 CURVE SMOOTH",
"652 874 OFFCURVE",
"740 967 OFFCURVE",
"826 1058 CURVE",
"819 939 OFFCURVE",
"815 817 OFFCURVE",
"815 707 CURVE SMOOTH",
"815 604 OFFCURVE",
"819 504 OFFCURVE",
"824 409 CURVE",
"776 320 OFFCURVE",
"655 108 OFFCURVE",
"578 108 CURVE SMOOTH"
);
},
{
closed = 1;
nodes = (
"804 1148 OFFCURVE",
"748 1227 OFFCURVE",
"748 1331 CURVE SMOOTH",
"748 1369 OFFCURVE",
"762 1401 OFFCURVE",
"791 1430 CURVE SMOOTH",
"820 1460 OFFCURVE",
"842 1475 OFFCURVE",
"863 1475 CURVE SMOOTH",
"892 1475 OFFCURVE",
"924 1460 OFFCURVE",
"958 1430 CURVE SMOOTH",
"1010 1385 OFFCURVE",
"1038 1342 OFFCURVE",
"1038 1264 CURVE SMOOTH",
"1038 1209 OFFCURVE",
"960 1148 OFFCURVE",
"906 1148 CURVE SMOOTH"
);
},
{
closed = 1;
nodes = (
"946 1071 OFFCURVE",
"1071 1155 OFFCURVE",
"1120 1241 CURVE SMOOTH",
"1148 1288 OFFCURVE",
"1163 1329 OFFCURVE",
"1163 1360 CURVE SMOOTH",
"1163 1409 OFFCURVE",
"1142 1454 OFFCURVE",
"1099 1497 CURVE SMOOTH",
"1056 1540 OFFCURVE",
"1013 1560 OFFCURVE",
"972 1560 CURVE SMOOTH",
"845 1560 OFFCURVE",
"728 1462 OFFCURVE",
"673 1374 CURVE SMOOTH",
"638 1319 OFFCURVE",
"622 1276 OFFCURVE",
"622 1245 CURVE SMOOTH",
"622 1151 OFFCURVE",
"722 1071 OFFCURVE",
"817 1071 CURVE SMOOTH"
);
}
);
width = 1200;
},
{
associatedMasterId = "3A120C99-D056-4211-BE1A-9D4BB1803F4A";
layerId = "AAE78016-2DC9-4CB5-96BA-920CE2750D6A";
name = "Color 0";
paths = (
{
closed = 1;
nodes = (
"520 -105 OFFCURVE",
"625 5 OFFCURVE",
"690 94 CURVE SMOOTH",
"747 171 OFFCURVE",
"790 254 OFFCURVE",
"834 342 CURVE",
"848 219 OFFCURVE",
"883 92 OFFCURVE",
"930 -6 CURVE SMOOTH",
"949 -45 OFFCURVE",
"977 -60 OFFCURVE",
"1003 -60 CURVE SMOOTH",
"1023 -60 OFFCURVE",
"1044 -52 OFFCURVE",
"1070 -36 CURVE SMOOTH",
"1131 1 OFFCURVE",
"1212 74 OFFCURVE",
"1295 149 CURVE",
"1263 173 LINE",
"1232 140 OFFCURVE",
"1200 107 OFFCURVE",
"1171 90 CURVE SMOOTH",
"1159 83 OFFCURVE",
"1147 78 OFFCURVE",
"1135 78 CURVE SMOOTH",
"1117 78 OFFCURVE",
"1102 90 OFFCURVE",
"1084 110 CURVE SMOOTH",
"943 272 OFFCURVE",
"930 747 OFFCURVE",
"923 1116 CURVE",
"829 1123 LINE",
"712 999 OFFCURVE",
"594 873 OFFCURVE",
"465 746 CURVE SMOOTH",
"319 602 OFFCURVE",
"160 455 OFFCURVE",
"0 307 CURVE",
"26 256 LINE",
"79 309 OFFCURVE",
"138 364 OFFCURVE",
"189 364 CURVE SMOOTH",
"259 364 OFFCURVE",
"305 293 OFFCURVE",
"358 108 CURVE SMOOTH",
"402 -46 OFFCURVE",
"434 -105 OFFCURVE",
"473 -105 CURVE SMOOTH"
);
},
{
closed = 1;
nodes = (
"550 108 OFFCURVE",
"529 156 OFFCURVE",
"489 301 CURVE SMOOTH",
"452 435 OFFCURVE",
"382 502 OFFCURVE",
"280 502 CURVE",
"376 594 OFFCURVE",
"473 687 OFFCURVE",
"562 780 CURVE SMOOTH",
"652 874 OFFCURVE",
"740 967 OFFCURVE",
"826 1058 CURVE",
"819 939 OFFCURVE",
"815 817 OFFCURVE",
"815 707 CURVE SMOOTH",
"815 604 OFFCURVE",
"819 504 OFFCURVE",
"824 409 CURVE",
"776 320 OFFCURVE",
"655 108 OFFCURVE",
"578 108 CURVE SMOOTH"
);
},
{
closed = 1;
nodes = (
"804 1148 OFFCURVE",
"748 1227 OFFCURVE",
"748 1331 CURVE SMOOTH",
"748 1369 OFFCURVE",
"762 1401 OFFCURVE",
"791 1430 CURVE SMOOTH",
"820 1460 OFFCURVE",
"842 1475 OFFCURVE",
"863 1475 CURVE SMOOTH",
"892 1475 OFFCURVE",
"924 1460 OFFCURVE",
"958 1430 CURVE SMOOTH",
"1010 1385 OFFCURVE",
"1038 1342 OFFCURVE",
"1038 1264 CURVE SMOOTH",
"1038 1209 OFFCURVE",
"960 1148 OFFCURVE",
"906 1148 CURVE SMOOTH"
);
},
{
closed = 1;
nodes = (
"946 1071 OFFCURVE",
"1071 1155 OFFCURVE",
"1120 1241 CURVE SMOOTH",
"1148 1288 OFFCURVE",
"1163 1329 OFFCURVE",
"1163 1360 CURVE SMOOTH",
"1163 1409 OFFCURVE",
"1142 1454 OFFCURVE",
"1099 1497 CURVE SMOOTH",
"1056 1540 OFFCURVE",
"1013 1560 OFFCURVE",
"972 1560 CURVE SMOOTH",
"845 1560 OFFCURVE",
"728 1462 OFFCURVE",
"673 1374 CURVE SMOOTH",
"638 1319 OFFCURVE",
"622 1276 OFFCURVE",
"622 1245 CURVE SMOOTH",
"622 1151 OFFCURVE",
"722 1071 OFFCURVE",
"817 1071 CURVE SMOOTH"
);
}
);
width = 1200;
},
{
associatedMasterId = "3A120C99-D056-4211-BE1A-9D4BB1803F4A";
layerId = "389206D1-E28D-47C5-A7BA-D62C182D802F";
name = "Color 2";
paths = (
{
closed = 1;
nodes = (
"655 108 OFFCURVE",
"776 320 OFFCURVE",
"824 409 CURVE",
"819 504 OFFCURVE",
"815 604 OFFCURVE",
"815 707 CURVE SMOOTH",
"815 817 OFFCURVE",
"819 939 OFFCURVE",
"826 1058 CURVE",
"740 967 OFFCURVE",
"652 874 OFFCURVE",
"562 780 CURVE SMOOTH",
"473 687 OFFCURVE",
"376 594 OFFCURVE",
"280 502 CURVE",
"382 502 OFFCURVE",
"452 435 OFFCURVE",
"489 301 CURVE SMOOTH",
"529 156 OFFCURVE",
"550 108 OFFCURVE",
"578 108 CURVE SMOOTH"
);
}
);
width = 1200;
}
);
unicode = 00C5;
},
{
glyphname = Atilde;
lastChange = "2021-06-05 21:20:08 +0000";
layers = (
{
components = (
{
name = A;
},
{
name = tildecomb;
transform = "{1, 0, 0, 1, 1250, 531}";
}
);
layerId = "3A120C99-D056-4211-BE1A-9D4BB1803F4A";
width = 1210;
},
{
associatedMasterId = "3A120C99-D056-4211-BE1A-9D4BB1803F4A";
components = (
{
name = A;
},
{
name = tildecomb;
transform = "{1, 0, 0, 1, 1250, 531}";
}
);
layerId = "91BBDE19-6B86-4328-A169-F486B5BB9FE0";
name = "Color 0";
width = 1210;
},
{
associatedMasterId = "3A120C99-D056-4211-BE1A-9D4BB1803F4A";
layerId = "DDBDCD72-111D-4BA3-A622-E8FEB711772A";
name = "Color 1";
paths = (
{
closed = 1;
nodes = (
"541 8 OFFCURVE",
"549 13 OFFCURVE",
"554 18 CURVE SMOOTH",
"603 60 OFFCURVE",
"717 221 OFFCURVE",
"773 309 CURVE",
"776 399 OFFCURVE",
"788 487 OFFCURVE",
"788 578 CURVE SMOOTH",
"788 689 OFFCURVE",
"764 806 OFFCURVE",
"717 893 CURVE",
"576 792 LINE",
"595 769 OFFCURVE",
"617 740 OFFCURVE",
"617 719 CURVE SMOOTH",
"617 689 OFFCURVE",
"573 645 OFFCURVE",
"549 621 CURVE SMOOTH",
"479 551 OFFCURVE",
"415 481 OFFCURVE",
"346 402 CURVE",
"396 268 OFFCURVE",
"447 136 OFFCURVE",
"481 71 CURVE SMOOTH",
"506 23 OFFCURVE",
"521 8 OFFCURVE",
"534 8 CURVE SMOOTH"
);
}
);
width = 1210;
}
);
unicode = 00C3;
},
{
glyphname = AE;
lastChange = "2021-06-05 20:31:34 +0000";
layers = (
{
anchors = (
{
name = bottom;
position = "{695, 0}";
},
{
name = top;
position = "{795, 1152}";
}
);
layerId = "3A120C99-D056-4211-BE1A-9D4BB1803F4A";
paths = (
{
closed = 1;
nodes = (
"520 -105 OFFCURVE",
"625 5 OFFCURVE",
"690 94 CURVE SMOOTH",
"749 175 OFFCURVE",
"793 260 OFFCURVE",
"839 352 CURVE",
"853 289 OFFCURVE",
"874 229 OFFCURVE",
"899 176 CURVE SMOOTH",
"950 70 OFFCURVE",
"1014 -7 OFFCURVE",
"1114 -7 CURVE SMOOTH",
"1140 -7 OFFCURVE",
"1165 -1 OFFCURVE",
"1185 10 CURVE SMOOTH",
"1236 37 OFFCURVE",
"1305 121 OFFCURVE",
"1349 185 CURVE SMOOTH",
"1393 248 OFFCURVE",
"1422 307 OFFCURVE",
"1450 365 CURVE",
"1409 381 LINE",
"1386 333 OFFCURVE",
"1362 285 OFFCURVE",
"1333 236 CURVE SMOOTH",
"1286 156 OFFCURVE",
"1239 86 OFFCURVE",
"1177 86 CURVE SMOOTH",
"1092 86 OFFCURVE",
"1033 213 OFFCURVE",
"988 324 CURVE SMOOTH",
"956 404 OFFCURVE",
"924 505 OFFCURVE",
"914 598 CURVE",
"962 618 OFFCURVE",
"994 624 OFFCURVE",
"1033 624 CURVE SMOOTH",
"1099 624 OFFCURVE",
"1161 602 OFFCURVE",
"1242 602 CURVE SMOOTH",
"1325 602 OFFCURVE",
"1384 635 OFFCURVE",
"1489 740 CURVE",
"1488 741 LINE",
"1443 714 OFFCURVE",
"1382 687 OFFCURVE",
"1333 687 CURVE SMOOTH",
"1277 687 OFFCURVE",
"1250 711 OFFCURVE",
"1191 717 CURVE",
"1227 772 OFFCURVE",
"1252 820 OFFCURVE",
"1252 871 CURVE SMOOTH",
"1252 946 OFFCURVE",
"1218 987 OFFCURVE",
"1155 987 CURVE SMOOTH",
"1074 987 OFFCURVE",
"991 938 OFFCURVE",
"930 869 CURVE",
"926 969 OFFCURVE",
"923 1067 OFFCURVE",
"922 1158 CURVE",
"875 1172 LINE",
"743 1031 OFFCURVE",
"611 890 OFFCURVE",
"465 746 CURVE SMOOTH",
"319 602 OFFCURVE",
"160 455 OFFCURVE",
"0 307 CURVE",
"26 256 LINE",
"79 309 OFFCURVE",
"138 364 OFFCURVE",
"189 364 CURVE SMOOTH",
"259 364 OFFCURVE",
"305 293 OFFCURVE",
"358 108 CURVE SMOOTH",
"402 -46 OFFCURVE",
"434 -105 OFFCURVE",
"473 -105 CURVE SMOOTH"
);
},
{
closed = 1;
nodes = (
"550 108 OFFCURVE",
"529 156 OFFCURVE",
"489 301 CURVE SMOOTH",
"452 435 OFFCURVE",
"382 502 OFFCURVE",
"280 502 CURVE",
"376 594 OFFCURVE",
"473 687 OFFCURVE",
"562 780 CURVE SMOOTH",
"652 874 OFFCURVE",
"740 967 OFFCURVE",
"826 1058 CURVE",
"819 939 OFFCURVE",
"815 817 OFFCURVE",
"815 707 CURVE SMOOTH",
"815 580 OFFCURVE",
"818 512 OFFCURVE",
"824 409 CURVE",
"776 320 OFFCURVE",
"655 108 OFFCURVE",
"578 108 CURVE SMOOTH"
);
},
{
closed = 1;
nodes = (
"911 654 LINE SMOOTH",
"911 780 OFFCURVE",
"973 911 OFFCURVE",
"1061 911 CURVE SMOOTH",
"1103 911 OFFCURVE",
"1168 877 OFFCURVE",
"1168 818 CURVE SMOOTH",
"1168 789 OFFCURVE",
"1154 755 OFFCURVE",
"1136 718 CURVE",
"1078 714 OFFCURVE",
"1017 693 OFFCURVE",
"911 642 CURVE"
);
}
);
width = 1389;
},
{
anchors = (
{
name = bottom;
position = "{695, 0}";
},
{
name = top;
position = "{795, 1152}";
}
);
associatedMasterId = "3A120C99-D056-4211-BE1A-9D4BB1803F4A";
layerId = "239D9634-A373-4D3C-BFEC-314A5C4ADFF1";
name = "Color 0";
paths = (
{
closed = 1;
nodes = (
"520 -105 OFFCURVE",
"625 5 OFFCURVE",
"690 94 CURVE SMOOTH",
"749 175 OFFCURVE",
"793 260 OFFCURVE",
"839 352 CURVE",
"853 289 OFFCURVE",
"874 229 OFFCURVE",
"899 176 CURVE SMOOTH",
"950 70 OFFCURVE",
"1014 -7 OFFCURVE",
"1114 -7 CURVE SMOOTH",
"1140 -7 OFFCURVE",
"1165 -1 OFFCURVE",
"1185 10 CURVE SMOOTH",
"1236 37 OFFCURVE",
"1305 121 OFFCURVE",
"1349 185 CURVE SMOOTH",
"1393 248 OFFCURVE",
"1422 307 OFFCURVE",
"1450 365 CURVE",
"1409 381 LINE",
"1386 333 OFFCURVE",
"1362 285 OFFCURVE",
"1333 236 CURVE SMOOTH",
"1286 156 OFFCURVE",
"1239 86 OFFCURVE",
"1177 86 CURVE SMOOTH",
"1092 86 OFFCURVE",
"1033 213 OFFCURVE",
"988 324 CURVE SMOOTH",
"956 404 OFFCURVE",
"924 505 OFFCURVE",
"914 598 CURVE",
"962 618 OFFCURVE",
"994 624 OFFCURVE",
"1033 624 CURVE SMOOTH",
"1099 624 OFFCURVE",
"1161 602 OFFCURVE",
"1242 602 CURVE SMOOTH",
"1325 602 OFFCURVE",
"1384 635 OFFCURVE",
"1489 740 CURVE",
"1488 741 LINE",
"1443 714 OFFCURVE",
"1382 687 OFFCURVE",
"1333 687 CURVE SMOOTH",
"1277 687 OFFCURVE",
"1250 711 OFFCURVE",
"1191 717 CURVE",
"1227 772 OFFCURVE",
"1252 820 OFFCURVE",
"1252 871 CURVE SMOOTH",
"1252 946 OFFCURVE",
"1218 987 OFFCURVE",
"1155 987 CURVE SMOOTH",
"1074 987 OFFCURVE",
"991 938 OFFCURVE",
"930 869 CURVE",
"926 969 OFFCURVE",
"923 1067 OFFCURVE",
"922 1158 CURVE",
"875 1172 LINE",
"743 1031 OFFCURVE",
"611 890 OFFCURVE",
"465 746 CURVE SMOOTH",
"319 602 OFFCURVE",
"160 455 OFFCURVE",
"0 307 CURVE",
"26 256 LINE",
"79 309 OFFCURVE",
"138 364 OFFCURVE",
"189 364 CURVE SMOOTH",
"259 364 OFFCURVE",
"305 293 OFFCURVE",
"358 108 CURVE SMOOTH",
"402 -46 OFFCURVE",
"434 -105 OFFCURVE",
"473 -105 CURVE SMOOTH"
);
},
{
closed = 1;
nodes = (
"550 108 OFFCURVE",
"529 156 OFFCURVE",
"489 301 CURVE SMOOTH",
"452 435 OFFCURVE",
"382 502 OFFCURVE",
"280 502 CURVE",
"376 594 OFFCURVE",
"473 687 OFFCURVE",
"562 780 CURVE SMOOTH",
"652 874 OFFCURVE",
"740 967 OFFCURVE",
"826 1058 CURVE",
"819 939 OFFCURVE",
"815 817 OFFCURVE",
"815 707 CURVE SMOOTH",
"815 580 OFFCURVE",
"818 512 OFFCURVE",
"824 409 CURVE",
"776 320 OFFCURVE",
"655 108 OFFCURVE",
"578 108 CURVE SMOOTH"
);
},
{
closed = 1;
nodes = (
"911 654 LINE SMOOTH",
"911 780 OFFCURVE",
"973 911 OFFCURVE",
"1061 911 CURVE SMOOTH",
"1103 911 OFFCURVE",
"1168 877 OFFCURVE",
"1168 818 CURVE SMOOTH",
"1168 789 OFFCURVE",
"1154 755 OFFCURVE",
"1136 718 CURVE",
"1078 714 OFFCURVE",
"1017 693 OFFCURVE",
"911 642 CURVE"
);
}
);
width = 1389;
},
{
associatedMasterId = "3A120C99-D056-4211-BE1A-9D4BB1803F4A";
layerId = "072815E4-0451-4B50-A5C1-0A9914CC3F70";
name = "Color 1";
paths = (
{
closed = 1;
nodes = (
"655 108 OFFCURVE",
"776 320 OFFCURVE",
"824 409 CURVE",
"818 512 OFFCURVE",
"815 580 OFFCURVE",
"815 707 CURVE SMOOTH",
"815 817 OFFCURVE",
"819 939 OFFCURVE",
"826 1058 CURVE",
"740 967 OFFCURVE",
"652 874 OFFCURVE",
"562 780 CURVE SMOOTH",
"473 687 OFFCURVE",
"376 594 OFFCURVE",
"280 502 CURVE",
"382 502 OFFCURVE",
"452 435 OFFCURVE",
"489 301 CURVE SMOOTH",
"529 156 OFFCURVE",
"550 108 OFFCURVE",
"578 108 CURVE SMOOTH"
);
}
);
width = 1389;
},
{
associatedMasterId = "3A120C99-D056-4211-BE1A-9D4BB1803F4A";
layerId = "103D91FD-7264-4194-B1CC-312B187823F4";
name = "Color 4";
paths = (
{
closed = 1;
nodes = (
"1017 693 OFFCURVE",
"1078 714 OFFCURVE",
"1136 718 CURVE",
"1154 755 OFFCURVE",
"1168 789 OFFCURVE",
"1168 818 CURVE SMOOTH",
"1168 877 OFFCURVE",
"1103 911 OFFCURVE",
"1061 911 CURVE SMOOTH",
"973 911 OFFCURVE",
"911 780 OFFCURVE",
"911 654 CURVE SMOOTH",
"911 642 LINE"
);
}
);
width = 1389;
}
);
unicode = 00C6;
},
{
glyphname = AEacute;
lastChange = "2021-06-05 22:25:29 +0000";
layers = (
{
components = (
{
name = AE;
},
{
name = acutecomb;
transform = "{1, 0, 0, 1, 1303, 551}";
}
);
layerId = "3A120C99-D056-4211-BE1A-9D4BB1803F4A";
width = 1389;
},
{
associatedMasterId = "3A120C99-D056-4211-BE1A-9D4BB1803F4A";
components = (
{
name = AE;
},
{
name = acutecomb;
transform = "{1, 0, 0, 1, 1303, 551}";
}
);
layerId = "0653BF89-FD8C-4CCC-89C7-B75F7C16D6AF";
name = "Color 0";
width = 1389;
},
{
associatedMasterId = "3A120C99-D056-4211-BE1A-9D4BB1803F4A";
layerId = "1E1C493A-59BD-4C96-8673-30253631B198";
name = "Color 2";
paths = (
{
closed = 1;
nodes = (
"655 108 OFFCURVE",
"776 320 OFFCURVE",
"824 409 CURVE",
"818 512 OFFCURVE",
"815 580 OFFCURVE",
"815 707 CURVE SMOOTH",
"815 817 OFFCURVE",
"819 939 OFFCURVE",
"826 1058 CURVE",
"740 967 OFFCURVE",
"652 874 OFFCURVE",
"562 780 CURVE SMOOTH",
"473 687 OFFCURVE",
"376 594 OFFCURVE",
"280 502 CURVE",
"382 502 OFFCURVE",
"452 435 OFFCURVE",
"489 301 CURVE SMOOTH",
"529 156 OFFCURVE",
"550 108 OFFCURVE",
"578 108 CURVE SMOOTH"
);
}
);
width = 1389;
},
{
associatedMasterId = "3A120C99-D056-4211-BE1A-9D4BB1803F4A";
layerId = "FC0C4FDD-B998-4E07-BF50-42A49D49320C";
name = "Color 3";
paths = (
{
closed = 1;
nodes = (
"1017 693 OFFCURVE",
"1078 714 OFFCURVE",
"1136 718 CURVE",
"1154 755 OFFCURVE",
"1168 789 OFFCURVE",
"1168 818 CURVE SMOOTH",
"1168 877 OFFCURVE",
"1103 911 OFFCURVE",
"1061 911 CURVE SMOOTH",
"973 911 OFFCURVE",
"911 780 OFFCURVE",
"911 654 CURVE SMOOTH",
"911 642 LINE"
);
}
);
width = 1389;
}
);
unicode = 01FC;
},
{
glyphname = AEmacron;
lastChange = "2021-06-05 22:25:43 +0000";
layers = (
{
components = (
{
name = AE;
},
{
name = macroncomb;
transform = "{1, 0, 0, 1, 1373, 551}";
}
);
layerId = "3A120C99-D056-4211-BE1A-9D4BB1803F4A";
width = 1389;
},
{
associatedMasterId = "3A120C99-D056-4211-BE1A-9D4BB1803F4A";
components = (
{
name = AE;
},
{
name = macroncomb;
transform = "{1, 0, 0, 1, 1373, 551}";
}
);
layerId = "DC6018A2-1954-4721-A504-52614A28B03E";
name = "Color 0";
width = 1389;
},
{
associatedMasterId = "3A120C99-D056-4211-BE1A-9D4BB1803F4A";
layerId = "2CF84A55-803F-41FC-891D-7775D735942E";
name = "Color 3";
paths = (
{
closed = 1;
nodes = (
"655 108 OFFCURVE",
"776 320 OFFCURVE",
"824 409 CURVE",
"818 512 OFFCURVE",
"815 580 OFFCURVE",
"815 707 CURVE SMOOTH",
"815 817 OFFCURVE",
"819 939 OFFCURVE",
"826 1058 CURVE",
"740 967 OFFCURVE",
"652 874 OFFCURVE",
"562 780 CURVE SMOOTH",
"473 687 OFFCURVE",
"376 594 OFFCURVE",
"280 502 CURVE",
"382 502 OFFCURVE",
"452 435 OFFCURVE",
"489 301 CURVE SMOOTH",
"529 156 OFFCURVE",
"550 108 OFFCURVE",
"578 108 CURVE SMOOTH"
);
}
);
width = 1389;
},
{
associatedMasterId = "3A120C99-D056-4211-BE1A-9D4BB1803F4A";
layerId = "33AFFA02-FAE6-4AE5-B77D-E9FE790E5BAE";
name = "Color 2";
paths = (
{
closed = 1;
nodes = (
"1017 693 OFFCURVE",
"1078 714 OFFCURVE",
"1136 718 CURVE",
"1154 755 OFFCURVE",
"1168 789 OFFCURVE",
"1168 818 CURVE SMOOTH",
"1168 877 OFFCURVE",
"1103 911 OFFCURVE",
"1061 911 CURVE SMOOTH",
"973 911 OFFCURVE",
"911 780 OFFCURVE",
"911 654 CURVE SMOOTH",
"911 642 LINE"
);
}
);
width = 1389;
}
);
unicode = 01E2;
},
{
glyphname = B;
lastChange = "2021-06-05 20:32:10 +0000";
layers = (
{
anchors = (
{
name = bottom;
position = "{600, 0}";
},
{
name = top;
position = "{600, 1247}";
}
);
layerId = "3A120C99-D056-4211-BE1A-9D4BB1803F4A";
paths = (
{
closed = 1;
nodes = (
"699 -180 OFFCURVE",
"790 -111 OFFCURVE",
"869 -24 CURVE SMOOTH",
"930 44 OFFCURVE",
"990 130 OFFCURVE",
"990 213 CURVE SMOOTH",
"990 288 OFFCURVE",
"950 411 OFFCURVE",
"876 483 CURVE SMOOTH",
"803 554 OFFCURVE",
"712 604 OFFCURVE",
"623 604 CURVE SMOOTH",
"529 604 OFFCURVE",
"454 555 OFFCURVE",
"363 487 CURVE",
"382 594 OFFCURVE",
"398 694 OFFCURVE",
"398 792 CURVE SMOOTH",
"398 861 OFFCURVE",
"381 970 OFFCURVE",
"381 1029 CURVE SMOOTH",
"381 1120 OFFCURVE",
"410 1178 OFFCURVE",
"468 1263 CURVE",
"444 1287 LINE",
"276 1087 OFFCURVE",
"221 1046 OFFCURVE",
"0 906 CURVE",
"22 882 LINE",
"67 910 OFFCURVE",
"116 937 OFFCURVE",
"154 937 CURVE SMOOTH",
"197 937 OFFCURVE",
"239 897 OFFCURVE",
"268 855 CURVE SMOOTH",
"299 811 OFFCURVE",
"324 755 OFFCURVE",
"324 688 CURVE SMOOTH",
"324 597 OFFCURVE",
"294 515 OFFCURVE",
"261 442 CURVE SMOOTH",
"232 378 OFFCURVE",
"197 296 OFFCURVE",
"197 223 CURVE SMOOTH",
"197 144 OFFCURVE",
"239 23 OFFCURVE",
"316 -54 CURVE SMOOTH",
"391 -129 OFFCURVE",
"491 -180 OFFCURVE",
"583 -180 CURVE SMOOTH"
);
},
{
closed = 1;
nodes = (
"539 -93 OFFCURVE",
"469 -31 OFFCURVE",
"416 32 CURVE SMOOTH",
"360 99 OFFCURVE",
"325 166 OFFCURVE",
"325 253 CURVE SMOOTH",
"325 292 OFFCURVE",
"334 370 OFFCURVE",
"342 426 CURVE",
"423 479 OFFCURVE",
"486 519 OFFCURVE",
"569 519 CURVE SMOOTH",
"734 519 OFFCURVE",
"837 409 OFFCURVE",
"837 237 CURVE SMOOTH",
"837 169 OFFCURVE",
"823 100 OFFCURVE",
"796 47 CURVE SMOOTH",
"754 -35 OFFCURVE",
"687 -93 OFFCURVE",
"613 -93 CURVE SMOOTH"
);
}
);
width = 1040;
},
{
anchors = (
{
name = bottom;
position = "{600, 0}";
},
{
name = top;
position = "{600, 1247}";
}
);
associatedMasterId = "3A120C99-D056-4211-BE1A-9D4BB1803F4A";
layerId = "5B1B0C90-F902-4F47-A273-CEF363326292";
name = "Color 0";
paths = (
{
closed = 1;
nodes = (
"699 -180 OFFCURVE",
"790 -111 OFFCURVE",
"869 -24 CURVE SMOOTH",
"930 44 OFFCURVE",
"990 130 OFFCURVE",
"990 213 CURVE SMOOTH",
"990 288 OFFCURVE",
"950 411 OFFCURVE",
"876 483 CURVE SMOOTH",
"803 554 OFFCURVE",
"712 604 OFFCURVE",
"623 604 CURVE SMOOTH",
"529 604 OFFCURVE",
"454 555 OFFCURVE",
"363 487 CURVE",
"382 594 OFFCURVE",
"398 694 OFFCURVE",
"398 792 CURVE SMOOTH",
"398 861 OFFCURVE",
"381 970 OFFCURVE",
"381 1029 CURVE SMOOTH",
"381 1120 OFFCURVE",
"410 1178 OFFCURVE",
"468 1263 CURVE",
"444 1287 LINE",
"276 1087 OFFCURVE",
"221 1046 OFFCURVE",
"0 906 CURVE",
"22 882 LINE",
"67 910 OFFCURVE",
"116 937 OFFCURVE",
"154 937 CURVE SMOOTH",
"197 937 OFFCURVE",
"239 897 OFFCURVE",
"268 855 CURVE SMOOTH",
"299 811 OFFCURVE",
"324 755 OFFCURVE",
"324 688 CURVE SMOOTH",
"324 597 OFFCURVE",
"294 515 OFFCURVE",
"261 442 CURVE SMOOTH",
"232 378 OFFCURVE",
"197 296 OFFCURVE",
"197 223 CURVE SMOOTH",
"197 144 OFFCURVE",
"239 23 OFFCURVE",
"316 -54 CURVE SMOOTH",
"391 -129 OFFCURVE",
"491 -180 OFFCURVE",
"583 -180 CURVE SMOOTH"
);
},
{
closed = 1;
nodes = (
"539 -93 OFFCURVE",
"469 -31 OFFCURVE",
"416 32 CURVE SMOOTH",
"360 99 OFFCURVE",
"325 166 OFFCURVE",
"325 253 CURVE SMOOTH",
"325 292 OFFCURVE",
"334 370 OFFCURVE",
"342 426 CURVE",
"423 479 OFFCURVE",
"486 519 OFFCURVE",
"569 519 CURVE SMOOTH",
"734 519 OFFCURVE",
"837 409 OFFCURVE",
"837 237 CURVE SMOOTH",
"837 169 OFFCURVE",
"823 100 OFFCURVE",
"796 47 CURVE SMOOTH",
"754 -35 OFFCURVE",
"687 -93 OFFCURVE",
"613 -93 CURVE SMOOTH"
);
}
);
width = 1040;
},
{
associatedMasterId = "3A120C99-D056-4211-BE1A-9D4BB1803F4A";
layerId = "A0774F13-5BD4-4F8F-9FD6-D6498B64E114";
name = "Color 1";
paths = (
{
closed = 1;
nodes = (
"687 -93 OFFCURVE",
"754 -35 OFFCURVE",
"796 47 CURVE SMOOTH",
"823 100 OFFCURVE",
"837 169 OFFCURVE",
"837 237 CURVE SMOOTH",
"837 409 OFFCURVE",
"734 519 OFFCURVE",
"569 519 CURVE SMOOTH",
"486 519 OFFCURVE",
"423 479 OFFCURVE",
"342 426 CURVE",
"334 370 OFFCURVE",
"325 292 OFFCURVE",
"325 253 CURVE SMOOTH",
"325 166 OFFCURVE",
"360 99 OFFCURVE",
"416 32 CURVE SMOOTH",
"469 -31 OFFCURVE",
"539 -93 OFFCURVE",
"613 -93 CURVE SMOOTH"
);
}
);
width = 1040;
}
);
unicode = 0042;
},
{
glyphname = C;
lastChange = "2021-06-05 22:06:06 +0000";
layers = (
{
anchors = (
{
name = bottom;
position = "{265, -180}";
},
{
name = top;
position = "{299, 775}";
}
);
guideLines = (
{
position = "{747, 743}";
}
);
layerId = "3A120C99-D056-4211-BE1A-9D4BB1803F4A";
paths = (
{
closed = 1;
nodes = (
"335 -180 OFFCURVE",
"425 -97 OFFCURVE",
"494 -12 CURVE SMOOTH",
"548 55 OFFCURVE",
"600 131 OFFCURVE",
"648 208 CURVE",
"632 222 LINE",
"557 119 OFFCURVE",
"481 17 OFFCURVE",
"420 -33 CURVE SMOOTH",
"391 -57 OFFCURVE",
"367 -69 OFFCURVE",
"345 -69 CURVE SMOOTH",
"275 -69 OFFCURVE",
"212 64 OFFCURVE",
"172 164 CURVE SMOOTH",
"143 236 OFFCURVE",
"110 336 OFFCURVE",
"110 410 CURVE SMOOTH",
"110 475 OFFCURVE",
"133 532 OFFCURVE",
"158 581 CURVE SMOOTH",
"192 649 OFFCURVE",
"243 709 OFFCURVE",
"286 709 CURVE SMOOTH",
"339 709 OFFCURVE",
"388 632 OFFCURVE",
"435 558 CURVE",
"533 662 LINE",
"474 739 OFFCURVE",
"415 815 OFFCURVE",
"360 815 CURVE SMOOTH",
"314 815 OFFCURVE",
"227 760 OFFCURVE",
"165 678 CURVE SMOOTH",
"85 572 OFFCURVE",
"30 430 OFFCURVE",
"30 318 CURVE SMOOTH",
"30 211 OFFCURVE",
"67 93 OFFCURVE",
"112 -9 CURVE SMOOTH",
"148 -91 OFFCURVE",
"194 -180 OFFCURVE",
"265 -180 CURVE SMOOTH"
);
}
);
width = 598;
},
{
anchors = (
{
name = bottom;
position = "{265, -180}";
},
{
name = top;
position = "{299, 775}";
}
);
associatedMasterId = "3A120C99-D056-4211-BE1A-9D4BB1803F4A";
guideLines = (
{
position = "{747, 743}";
}
);
layerId = "7AD0B662-1DB2-4B37-ABB6-5AEA9692B07A";
name = "Color 0";
paths = (
{
closed = 1;
nodes = (
"335 -180 OFFCURVE",
"425 -97 OFFCURVE",
"494 -12 CURVE SMOOTH",
"548 55 OFFCURVE",
"600 131 OFFCURVE",
"648 208 CURVE",
"632 222 LINE",
"557 119 OFFCURVE",
"481 17 OFFCURVE",
"420 -33 CURVE SMOOTH",
"391 -57 OFFCURVE",
"367 -69 OFFCURVE",
"345 -69 CURVE SMOOTH",
"275 -69 OFFCURVE",
"212 64 OFFCURVE",
"172 164 CURVE SMOOTH",
"143 236 OFFCURVE",
"110 336 OFFCURVE",
"110 410 CURVE SMOOTH",
"110 475 OFFCURVE",
"133 532 OFFCURVE",
"158 581 CURVE SMOOTH",
"192 649 OFFCURVE",
"243 709 OFFCURVE",
"286 709 CURVE SMOOTH",
"339 709 OFFCURVE",
"388 632 OFFCURVE",
"435 558 CURVE",
"533 662 LINE",
"474 739 OFFCURVE",
"415 815 OFFCURVE",
"360 815 CURVE SMOOTH",
"314 815 OFFCURVE",
"227 760 OFFCURVE",
"165 678 CURVE SMOOTH",
"85 572 OFFCURVE",
"30 430 OFFCURVE",
"30 318 CURVE SMOOTH",
"30 211 OFFCURVE",
"67 93 OFFCURVE",
"112 -9 CURVE SMOOTH",
"148 -91 OFFCURVE",
"194 -180 OFFCURVE",
"265 -180 CURVE SMOOTH"
);
}
);
width = 598;
},
{
associatedMasterId = "3A120C99-D056-4211-BE1A-9D4BB1803F4A";
guideLines = (
{
position = "{747, 743}";
}
);
layerId = "24F18B46-23D6-4980-8797-9F646AE5A146";
name = "Color 1";
paths = (
{
closed = 1;
nodes = (
"367 -69 OFFCURVE",
"391 -57 OFFCURVE",
"420 -33 CURVE SMOOTH",
"481 17 OFFCURVE",
"557 119 OFFCURVE",
"632 222 CURVE",
"536 309 OFFCURVE",
"474 423 OFFCURVE",
"435 558 CURVE",
"388 632 OFFCURVE",
"339 709 OFFCURVE",
"286 709 CURVE SMOOTH",
"243 709 OFFCURVE",
"192 649 OFFCURVE",
"158 581 CURVE SMOOTH",
"133 532 OFFCURVE",
"110 475 OFFCURVE",
"110 410 CURVE SMOOTH",
"110 336 OFFCURVE",
"143 236 OFFCURVE",
"172 164 CURVE SMOOTH",
"212 64 OFFCURVE",
"275 -69 OFFCURVE",
"345 -69 CURVE SMOOTH"
);
}
);
width = 598;
}
);
unicode = 0043;
},
{
glyphname = Ccedilla;
lastChange = "2021-06-05 22:06:47 +0000";
layers = (
{
components = (
{
name = C;
},
{
name = cedillacomb;
transform = "{1, 0, 0, 1, 562, -180}";
}
);
layerId = "3A120C99-D056-4211-BE1A-9D4BB1803F4A";
width = 598;
},
{
associatedMasterId = "3A120C99-D056-4211-BE1A-9D4BB1803F4A";
components = (
{
name = C;
},
{
name = cedillacomb;
transform = "{1, 0, 0, 1, 562, -180}";
}
);
layerId = "38E1AE13-258F-4D80-A205-607AC2EC03D1";
name = "Color 0";
width = 598;
},
{
associatedMasterId = "3A120C99-D056-4211-BE1A-9D4BB1803F4A";
layerId = "31BE707B-D250-4336-8399-1288E81279E4";
name = "Color 3";
paths = (
{
closed = 1;
nodes = (
"367 -69 OFFCURVE",
"391 -57 OFFCURVE",
"420 -33 CURVE SMOOTH",
"481 17 OFFCURVE",
"557 119 OFFCURVE",
"632 222 CURVE",
"536 309 OFFCURVE",
"474 423 OFFCURVE",
"435 558 CURVE",
"388 632 OFFCURVE",
"339 709 OFFCURVE",
"286 709 CURVE SMOOTH",
"243 709 OFFCURVE",
"192 649 OFFCURVE",
"158 581 CURVE SMOOTH",
"133 532 OFFCURVE",
"110 475 OFFCURVE",
"110 410 CURVE SMOOTH",
"110 336 OFFCURVE",
"143 236 OFFCURVE",
"172 164 CURVE SMOOTH",
"212 64 OFFCURVE",
"275 -69 OFFCURVE",
"345 -69 CURVE SMOOTH"
);
}
);
width = 598;
}
);
unicode = 00C7;
},
{
glyphname = D;
lastChange = "2021-06-05 20:33:36 +0000";
layers = (
{
anchors = (
{
name = bottom;
position = "{460, -128}";
},
{
name = center;
position = "{462, 341}";
},
{
name = top;
position = "{519, 773}";
}
);
layerId = "3A120C99-D056-4211-BE1A-9D4BB1803F4A";
paths = (
{
closed = 1;
nodes = (
"556 -168 OFFCURVE",
"690 9 OFFCURVE",
"768 135 CURVE SMOOTH",
"848 264 OFFCURVE",
"873 374 OFFCURVE",
"873 490 CURVE SMOOTH",
"873 572 OFFCURVE",
"866 656 OFFCURVE",
"815 722 CURVE SMOOTH",
"763 790 OFFCURVE",
"648 813 OFFCURVE",
"568 813 CURVE SMOOTH",
"538 813 OFFCURVE",
"564 810 OFFCURVE",
"533 806 CURVE SMOOTH",
"467 799 OFFCURVE",
"398 787 OFFCURVE",
"327 787 CURVE SMOOTH",
"196 787 OFFCURVE",
"117 807 OFFCURVE",
"45 894 CURVE",
"5 878 OFFCURVE",
"-37 859 OFFCURVE",
"-37 809 CURVE SMOOTH",
"-37 732 OFFCURVE",
"96 683 OFFCURVE",
"210 683 CURVE SMOOTH",
"297 683 OFFCURVE",
"385 703 OFFCURVE",
"478 703 CURVE SMOOTH",
"542 703 OFFCURVE",
"609 692 OFFCURVE",
"662 662 CURVE SMOOTH",
"726 624 OFFCURVE",
"776 550 OFFCURVE",
"776 441 CURVE SMOOTH",
"776 386 OFFCURVE",
"772 289 OFFCURVE",
"728 188 CURVE SMOOTH",
"681 79 OFFCURVE",
"588 -55 OFFCURVE",
"525 -55 CURVE SMOOTH",
"502 -55 OFFCURVE",
"481 -41 OFFCURVE",
"460 -11 CURVE SMOOTH",
"420 47 OFFCURVE",
"384 162 OFFCURVE",
"346 232 CURVE SMOOTH",
"303 313 OFFCURVE",
"270 335 OFFCURVE",
"214 335 CURVE SMOOTH",
"198 335 OFFCURVE",
"180 333 OFFCURVE",
"163 329 CURVE",
"79 226 LINE",
"199 209 OFFCURVE",
"239 188 OFFCURVE",
"290 68 CURVE SMOOTH",
"318 1 OFFCURVE",
"344 -87 OFFCURVE",
"387 -134 CURVE SMOOTH",
"406 -155 OFFCURVE",
"433 -168 OFFCURVE",
"459 -168 CURVE SMOOTH"
);
},
{
closed = 1;
nodes = (
"101 220 OFFCURVE",
"169 310 OFFCURVE",
"247 393 CURVE SMOOTH",
"324 471 OFFCURVE",
"394 527 OFFCURVE",
"465 591 CURVE SMOOTH",
"527 649 OFFCURVE",
"540 668 OFFCURVE",
"540 705 CURVE SMOOTH",
"540 712 OFFCURVE",
"540 719 OFFCURVE",
"539 726 CURVE",
"479 731 LINE",
"472 670 OFFCURVE",
"441 618 OFFCURVE",
"365 545 CURVE SMOOTH",
"300 483 OFFCURVE",
"213 410 OFFCURVE",
"150 348 CURVE SMOOTH",
"81 281 OFFCURVE",
"36 221 OFFCURVE",
"-8 162 CURVE",
"34 128 LINE"
);
}
);
width = 923;
},
{
anchors = (
{
name = bottom;
position = "{460, -128}";
},
{
name = center;
position = "{462, 341}";
},
{
name = top;
position = "{519, 773}";
}
);
associatedMasterId = "3A120C99-D056-4211-BE1A-9D4BB1803F4A";
layerId = "4914E6CC-240C-4590-8FB9-324081A4EA6A";
name = "Color 0";
paths = (
{
closed = 1;
nodes = (
"554 -168 OFFCURVE",
"690 9 OFFCURVE",
"768 135 CURVE SMOOTH",
"848 264 OFFCURVE",
"873 374 OFFCURVE",
"873 490 CURVE SMOOTH",
"873 572 OFFCURVE",
"866 656 OFFCURVE",
"815 722 CURVE SMOOTH",
"763 790 OFFCURVE",
"705 813 OFFCURVE",
"625 813 CURVE SMOOTH",
"595 813 OFFCURVE",
"564 810 OFFCURVE",
"533 806 CURVE SMOOTH",
"467 799 OFFCURVE",
"398 787 OFFCURVE",
"327 787 CURVE SMOOTH",
"196 787 OFFCURVE",
"117 807 OFFCURVE",
"45 894 CURVE",
"5 878 OFFCURVE",
"-37 859 OFFCURVE",
"-37 809 CURVE SMOOTH",
"-37 732 OFFCURVE",
"96 683 OFFCURVE",
"210 683 CURVE SMOOTH",
"297 683 OFFCURVE",
"385 703 OFFCURVE",
"478 703 CURVE SMOOTH",
"542 703 OFFCURVE",
"609 692 OFFCURVE",
"662 662 CURVE SMOOTH",
"726 624 OFFCURVE",
"776 550 OFFCURVE",
"776 441 CURVE SMOOTH",
"776 386 OFFCURVE",
"772 289 OFFCURVE",
"728 188 CURVE SMOOTH",
"681 79 OFFCURVE",
"588 -55 OFFCURVE",
"525 -55 CURVE SMOOTH",
"502 -55 OFFCURVE",
"481 -41 OFFCURVE",
"460 -11 CURVE SMOOTH",
"420 47 OFFCURVE",
"384 162 OFFCURVE",
"346 232 CURVE SMOOTH",
"303 313 OFFCURVE",
"270 335 OFFCURVE",
"214 335 CURVE SMOOTH",
"198 335 OFFCURVE",
"180 333 OFFCURVE",
"163 329 CURVE",
"79 226 LINE",
"199 209 OFFCURVE",
"239 188 OFFCURVE",
"290 68 CURVE SMOOTH",
"318 1 OFFCURVE",
"344 -87 OFFCURVE",
"387 -134 CURVE SMOOTH",
"406 -155 OFFCURVE",
"431 -168 OFFCURVE",
"457 -168 CURVE SMOOTH"
);
},
{
closed = 1;
nodes = (
"101 220 OFFCURVE",
"169 310 OFFCURVE",
"247 393 CURVE SMOOTH",
"324 471 OFFCURVE",
"394 527 OFFCURVE",
"465 591 CURVE SMOOTH",
"527 649 OFFCURVE",
"540 668 OFFCURVE",
"540 705 CURVE SMOOTH",
"540 712 OFFCURVE",
"540 719 OFFCURVE",
"539 726 CURVE",
"479 731 LINE",
"472 670 OFFCURVE",
"441 618 OFFCURVE",
"365 545 CURVE SMOOTH",
"300 483 OFFCURVE",
"213 410 OFFCURVE",
"150 348 CURVE SMOOTH",
"81 281 OFFCURVE",
"36 221 OFFCURVE",
"-8 162 CURVE",
"34 128 LINE"
);
}
);
width = 923;
},
{
associatedMasterId = "3A120C99-D056-4211-BE1A-9D4BB1803F4A";
layerId = "7441421B-FF57-47C0-94B7-8D4CCCCE62FD";
name = "Color 3";
paths = (
{
closed = 1;
nodes = (
"588 -55 OFFCURVE",
"681 79 OFFCURVE",
"728 188 CURVE SMOOTH",
"772 289 OFFCURVE",
"776 386 OFFCURVE",
"776 441 CURVE SMOOTH",
"776 550 OFFCURVE",
"726 624 OFFCURVE",
"662 662 CURVE SMOOTH",
"626 682 OFFCURVE",
"584 694 OFFCURVE",
"540 699 CURVE",
"539 666 OFFCURVE",
"524 646 OFFCURVE",
"465 591 CURVE SMOOTH",
"394 527 OFFCURVE",
"324 471 OFFCURVE",
"247 393 CURVE SMOOTH",
"229 374 OFFCURVE",
"211 354 OFFCURVE",
"194 334 CURVE",
"201 335 OFFCURVE",
"208 335 OFFCURVE",
"214 335 CURVE SMOOTH",
"270 335 OFFCURVE",
"303 313 OFFCURVE",
"346 232 CURVE SMOOTH",
"384 162 OFFCURVE",
"420 47 OFFCURVE",
"460 -11 CURVE SMOOTH",
"481 -41 OFFCURVE",
"502 -55 OFFCURVE",
"525 -55 CURVE SMOOTH"
);
}
);
width = 923;
}
);
unicode = 0044;
},
{
glyphname = Eth;
lastChange = "2021-06-03 19:12:13 +0000";
layers = (
{
anchors = (
{
name = bottom;
position = "{451, -107}";
},
{
name = top;
position = "{451, 1147}";
}
);
layerId = "3A120C99-D056-4211-BE1A-9D4BB1803F4A";
paths = (
{
closed = 1;
nodes = (
"489 -167 OFFCURVE",
"608 23 OFFCURVE",
"668 130 CURVE SMOOTH",
"742 268 OFFCURVE",
"783 408 OFFCURVE",
"783 520 CURVE SMOOTH",
"783 680 OFFCURVE",
"698 764 OFFCURVE",
"541 815 CURVE SMOOTH",
"446 845 OFFCURVE",
"309 874 OFFCURVE",
"223 908 CURVE SMOOTH",
"120 951 OFFCURVE",
"78 1007 OFFCURVE",
"78 1066 CURVE SMOOTH",
"78 1084 OFFCURVE",
"82 1102 OFFCURVE",
"86 1121 CURVE",
"34 1063 OFFCURVE",
"-15 1018 OFFCURVE",
"-15 963 CURVE SMOOTH",
"-15 927 OFFCURVE",
"10 868 OFFCURVE",
"63 830 CURVE SMOOTH",
"105 802 OFFCURVE",
"166 781 OFFCURVE",
"248 762 CURVE SMOOTH",
"328 741 OFFCURVE",
"430 722 OFFCURVE",
"503 701 CURVE SMOOTH",
"630 659 OFFCURVE",
"689 575 OFFCURVE",
"689 440 CURVE SMOOTH",
"689 377 OFFCURVE",
"670 313 OFFCURVE",
"642 235 CURVE SMOOTH",
"611 155 OFFCURVE",
"571 61 OFFCURVE",
"543 16 CURVE SMOOTH",
"528 -7 OFFCURVE",
"517 -20 OFFCURVE",
"507 -20 CURVE SMOOTH",
"497 -20 OFFCURVE",
"487 -8 OFFCURVE",
"476 16 CURVE SMOOTH",
"451 71 OFFCURVE",
"425 168 OFFCURVE",
"402 227 CURVE SMOOTH",
"375 292 OFFCURVE",
"349 326 OFFCURVE",
"314 349 CURVE SMOOTH",
"284 371 OFFCURVE",
"247 385 OFFCURVE",
"212 385 CURVE SMOOTH",
"121 385 OFFCURVE",
"105 315 OFFCURVE",
"90 227 CURVE",
"111 241 OFFCURVE",
"131 254 OFFCURVE",
"158 254 CURVE SMOOTH",
"244 254 OFFCURVE",
"278 156 OFFCURVE",
"316 65 CURVE SMOOTH",
"343 1 OFFCURVE",
"379 -89 OFFCURVE",
"408 -135 CURVE SMOOTH",
"422 -157 OFFCURVE",
"434 -167 OFFCURVE",
"446 -167 CURVE SMOOTH"
);
},
{
closed = 1;
nodes = (
"282 413 OFFCURVE",
"297 444 OFFCURVE",
"364 530 CURVE SMOOTH",
"432 621 OFFCURVE",
"468 660 OFFCURVE",
"567 701 CURVE",
"459 748 LINE",
"425 689 OFFCURVE",
"389 629 OFFCURVE",
"354 577 CURVE SMOOTH",
"296 490 OFFCURVE",
"236 421 OFFCURVE",
"162 356 CURVE",
"276 318 LINE"
);
},
{
closed = 1;
nodes = (
"-93 446 OFFCURVE",
"-59 459 OFFCURVE",
"-7 499 CURVE SMOOTH",
"70 560 OFFCURVE",
"284 775 OFFCURVE",
"371 853 CURVE SMOOTH",
"508 977 OFFCURVE",
"632 1064 OFFCURVE",
"699 1108 CURVE SMOOTH",
"744 1137 OFFCURVE",
"764 1146 OFFCURVE",
"779 1146 CURVE SMOOTH",
"798 1146 OFFCURVE",
"845 1113 OFFCURVE",
"881 1085 CURVE",
"890 1125 OFFCURVE",
"898 1138 OFFCURVE",
"923 1169 CURVE",
"895 1188 OFFCURVE",
"868 1209 OFFCURVE",
"824 1209 CURVE SMOOTH",
"802 1209 OFFCURVE",
"775 1203 OFFCURVE",
"741 1188 CURVE SMOOTH",
"644 1144 OFFCURVE",
"495 1028 OFFCURVE",
"351 901 CURVE SMOOTH",
"264 823 OFFCURVE",
"57 620 OFFCURVE",
"-11 568 CURVE SMOOTH",
"-59 530 OFFCURVE",
"-87 518 OFFCURVE",
"-104 518 CURVE SMOOTH",
"-118 518 OFFCURVE",
"-127 524 OFFCURVE",
"-137 530 CURVE",
"-142 507 OFFCURVE",
"-155 478 OFFCURVE",
"-169 461 CURVE",
"-154 453 OFFCURVE",
"-139 446 OFFCURVE",
"-118 446 CURVE SMOOTH"
);
}
);
width = 833;
},
{
anchors = (
{
name = bottom;
position = "{451, -107}";
},
{
name = top;
position = "{451, 1147}";
}
);
associatedMasterId = "3A120C99-D056-4211-BE1A-9D4BB1803F4A";
layerId = "05771174-E2F4-4EAE-ACE5-A837A90F6400";
name = "Color 0";
paths = (
{
closed = 1;
nodes = (
"489 -167 OFFCURVE",
"608 23 OFFCURVE",
"668 130 CURVE SMOOTH",
"742 268 OFFCURVE",
"783 408 OFFCURVE",
"783 520 CURVE SMOOTH",
"783 680 OFFCURVE",
"698 764 OFFCURVE",
"541 815 CURVE SMOOTH",
"446 845 OFFCURVE",
"309 874 OFFCURVE",
"223 908 CURVE SMOOTH",
"120 951 OFFCURVE",
"78 1007 OFFCURVE",
"78 1066 CURVE SMOOTH",
"78 1084 OFFCURVE",
"82 1102 OFFCURVE",
"86 1121 CURVE",
"34 1063 OFFCURVE",
"-15 1018 OFFCURVE",
"-15 963 CURVE SMOOTH",
"-15 927 OFFCURVE",
"10 868 OFFCURVE",
"63 830 CURVE SMOOTH",
"105 802 OFFCURVE",
"166 781 OFFCURVE",
"248 762 CURVE SMOOTH",
"328 741 OFFCURVE",
"430 722 OFFCURVE",
"503 701 CURVE SMOOTH",
"630 659 OFFCURVE",
"689 575 OFFCURVE",
"689 440 CURVE SMOOTH",
"689 377 OFFCURVE",
"670 313 OFFCURVE",
"642 235 CURVE SMOOTH",
"611 155 OFFCURVE",
"571 61 OFFCURVE",
"543 16 CURVE SMOOTH",
"528 -7 OFFCURVE",
"517 -20 OFFCURVE",
"507 -20 CURVE SMOOTH",
"497 -20 OFFCURVE",
"487 -8 OFFCURVE",
"476 16 CURVE SMOOTH",
"451 71 OFFCURVE",
"425 168 OFFCURVE",
"402 227 CURVE SMOOTH",
"375 292 OFFCURVE",
"349 326 OFFCURVE",
"314 349 CURVE SMOOTH",
"284 371 OFFCURVE",
"247 385 OFFCURVE",
"212 385 CURVE SMOOTH",
"121 385 OFFCURVE",
"105 315 OFFCURVE",
"90 227 CURVE",
"111 241 OFFCURVE",
"131 254 OFFCURVE",
"158 254 CURVE SMOOTH",
"244 254 OFFCURVE",
"278 156 OFFCURVE",
"316 65 CURVE SMOOTH",
"343 1 OFFCURVE",
"379 -89 OFFCURVE",
"408 -135 CURVE SMOOTH",
"422 -157 OFFCURVE",
"434 -167 OFFCURVE",
"446 -167 CURVE SMOOTH"
);
},
{
closed = 1;
nodes = (
"282 413 OFFCURVE",
"297 444 OFFCURVE",
"364 530 CURVE SMOOTH",
"432 621 OFFCURVE",
"468 660 OFFCURVE",
"567 701 CURVE",
"459 748 LINE",
"425 689 OFFCURVE",
"389 629 OFFCURVE",
"354 577 CURVE SMOOTH",
"296 490 OFFCURVE",
"236 421 OFFCURVE",
"162 356 CURVE",
"276 318 LINE"
);
},
{
closed = 1;
nodes = (
"-93 446 OFFCURVE",
"-59 459 OFFCURVE",
"-7 499 CURVE SMOOTH",
"70 560 OFFCURVE",
"284 775 OFFCURVE",
"371 853 CURVE SMOOTH",
"508 977 OFFCURVE",
"632 1064 OFFCURVE",
"699 1108 CURVE SMOOTH",
"744 1137 OFFCURVE",
"764 1146 OFFCURVE",
"779 1146 CURVE SMOOTH",
"798 1146 OFFCURVE",
"845 1113 OFFCURVE",
"881 1085 CURVE",
"890 1125 OFFCURVE",
"898 1138 OFFCURVE",
"923 1169 CURVE",
"895 1188 OFFCURVE",
"868 1209 OFFCURVE",
"824 1209 CURVE SMOOTH",
"802 1209 OFFCURVE",
"775 1203 OFFCURVE",
"741 1188 CURVE SMOOTH",
"644 1144 OFFCURVE",
"495 1028 OFFCURVE",
"351 901 CURVE SMOOTH",
"264 823 OFFCURVE",
"57 620 OFFCURVE",
"-11 568 CURVE SMOOTH",
"-59 530 OFFCURVE",
"-87 518 OFFCURVE",
"-104 518 CURVE SMOOTH",
"-118 518 OFFCURVE",
"-127 524 OFFCURVE",
"-137 530 CURVE",
"-142 507 OFFCURVE",
"-155 478 OFFCURVE",
"-169 461 CURVE",
"-154 453 OFFCURVE",
"-139 446 OFFCURVE",
"-118 446 CURVE SMOOTH"
);
}
);
width = 833;
},
{
associatedMasterId = "3A120C99-D056-4211-BE1A-9D4BB1803F4A";
layerId = "08252A31-34CA-45D7-A5B1-4249BA9D7CDE";
name = "Color 2";
paths = (
{
closed = 1;
nodes = (
"517 -20 OFFCURVE",
"528 -7 OFFCURVE",
"543 16 CURVE SMOOTH",
"571 61 OFFCURVE",
"611 155 OFFCURVE",
"642 235 CURVE SMOOTH",
"670 313 OFFCURVE",
"689 377 OFFCURVE",
"689 440 CURVE SMOOTH",
"689 562 OFFCURVE",
"641 643 OFFCURVE",
"537 688 CURVE",
"460 651 OFFCURVE",
"425 611 OFFCURVE",
"364 530 CURVE SMOOTH",
"310 461 OFFCURVE",
"290 428 OFFCURVE",
"281 369 CURVE",
"293 363 OFFCURVE",
"304 357 OFFCURVE",
"314 349 CURVE",
"349 326 OFFCURVE",
"375 292 OFFCURVE",
"402 227 CURVE SMOOTH",
"425 168 OFFCURVE",
"451 71 OFFCURVE",
"476 16 CURVE SMOOTH",
"487 -8 OFFCURVE",
"497 -20 OFFCURVE",
"507 -20 CURVE SMOOTH"
);
}
);
width = 833;
}
);
unicode = 00D0;
},
{
glyphname = E;
lastChange = "2021-06-05 20:34:32 +0000";
layers = (
{
anchors = (
{
name = bottom;
position = "{300, -140}";
},
{
name = ogonek;
position = "{540, 10}";
},
{
name = top;
position = "{300, 774}";
}
);
layerId = "3A120C99-D056-4211-BE1A-9D4BB1803F4A";
paths = (
{
closed = 1;
nodes = (
"351 -180 OFFCURVE",
"376 -174 OFFCURVE",
"396 -163 CURVE SMOOTH",
"447 -136 OFFCURVE",
"516 -52 OFFCURVE",
"560 12 CURVE SMOOTH",
"604 75 OFFCURVE",
"633 134 OFFCURVE",
"661 192 CURVE",
"620 208 LINE",
"597 160 OFFCURVE",
"573 112 OFFCURVE",
"544 63 CURVE SMOOTH",
"497 -17 OFFCURVE",
"450 -87 OFFCURVE",
"388 -87 CURVE SMOOTH",
"303 -87 OFFCURVE",
"244 40 OFFCURVE",
"199 151 CURVE SMOOTH",
"160 247 OFFCURVE",
"122 374 OFFCURVE",
"122 481 CURVE SMOOTH",
"122 607 OFFCURVE",
"184 738 OFFCURVE",
"272 738 CURVE SMOOTH",
"314 738 OFFCURVE",
"379 704 OFFCURVE",
"379 645 CURVE SMOOTH",
"379 607 OFFCURVE",
"354 558 OFFCURVE",
"329 509 CURVE",
"363 487 LINE",
"419 567 OFFCURVE",
"463 630 OFFCURVE",
"463 698 CURVE SMOOTH",
"463 773 OFFCURVE",
"429 814 OFFCURVE",
"366 814 CURVE SMOOTH",
"272 814 OFFCURVE",
"174 747 OFFCURVE",
"112 661 CURVE SMOOTH",
"45 568 OFFCURVE",
"30 449 OFFCURVE",
"30 358 CURVE SMOOTH",
"30 232 OFFCURVE",
"61 105 OFFCURVE",
"110 3 CURVE SMOOTH",
"161 -103 OFFCURVE",
"225 -180 OFFCURVE",
"325 -180 CURVE SMOOTH"
);
},
{
closed = 1;
nodes = (
"157 441 OFFCURVE",
"195 451 OFFCURVE",
"244 451 CURVE SMOOTH",
"310 451 OFFCURVE",
"372 429 OFFCURVE",
"453 429 CURVE SMOOTH",
"536 429 OFFCURVE",
"595 462 OFFCURVE",
"700 567 CURVE",
"699 568 LINE",
"654 541 OFFCURVE",
"593 514 OFFCURVE",
"544 514 CURVE SMOOTH",
"479 514 OFFCURVE",
"453 546 OFFCURVE",
"370 546 CURVE SMOOTH",
"296 546 OFFCURVE",
"226 522 OFFCURVE",
"73 444 CURVE",
"83 407 LINE"
);
}
);
width = 600;
},
{
anchors = (
{
name = bottom;
position = "{300, -140}";
},
{
name = ogonek;
position = "{540, 10}";
},
{
name = top;
position = "{300, 774}";
}
);
associatedMasterId = "3A120C99-D056-4211-BE1A-9D4BB1803F4A";
layerId = "8320A7A6-BF02-497A-AA98-4E2F496EEB68";
name = "Color 0";
paths = (
{
closed = 1;
nodes = (
"351 -180 OFFCURVE",
"376 -174 OFFCURVE",
"396 -163 CURVE SMOOTH",
"447 -136 OFFCURVE",
"516 -52 OFFCURVE",
"560 12 CURVE SMOOTH",
"604 75 OFFCURVE",
"633 134 OFFCURVE",
"661 192 CURVE",
"620 208 LINE",
"597 160 OFFCURVE",
"573 112 OFFCURVE",
"544 63 CURVE SMOOTH",
"497 -17 OFFCURVE",
"450 -87 OFFCURVE",
"388 -87 CURVE SMOOTH",
"303 -87 OFFCURVE",
"244 40 OFFCURVE",
"199 151 CURVE SMOOTH",
"160 247 OFFCURVE",
"122 374 OFFCURVE",
"122 481 CURVE SMOOTH",
"122 607 OFFCURVE",
"184 738 OFFCURVE",
"272 738 CURVE SMOOTH",
"314 738 OFFCURVE",
"379 704 OFFCURVE",
"379 645 CURVE SMOOTH",
"379 607 OFFCURVE",
"354 558 OFFCURVE",
"329 509 CURVE",
"363 487 LINE",
"419 567 OFFCURVE",
"463 630 OFFCURVE",
"463 698 CURVE SMOOTH",
"463 773 OFFCURVE",
"429 814 OFFCURVE",
"366 814 CURVE SMOOTH",
"272 814 OFFCURVE",
"174 747 OFFCURVE",
"112 661 CURVE SMOOTH",
"45 568 OFFCURVE",
"30 449 OFFCURVE",
"30 358 CURVE SMOOTH",
"30 232 OFFCURVE",
"61 105 OFFCURVE",
"110 3 CURVE SMOOTH",
"161 -103 OFFCURVE",
"225 -180 OFFCURVE",
"325 -180 CURVE SMOOTH"
);
},
{
closed = 1;
nodes = (
"157 441 OFFCURVE",
"195 451 OFFCURVE",
"244 451 CURVE SMOOTH",
"310 451 OFFCURVE",
"372 429 OFFCURVE",
"453 429 CURVE SMOOTH",
"536 429 OFFCURVE",
"595 462 OFFCURVE",
"700 567 CURVE",
"699 568 LINE",
"654 541 OFFCURVE",
"593 514 OFFCURVE",
"544 514 CURVE SMOOTH",
"479 514 OFFCURVE",
"453 546 OFFCURVE",
"370 546 CURVE SMOOTH",
"296 546 OFFCURVE",
"226 522 OFFCURVE",
"73 444 CURVE",
"83 407 LINE"
);
}
);
width = 600;
},
{
associatedMasterId = "3A120C99-D056-4211-BE1A-9D4BB1803F4A";
layerId = "425721EC-6500-4708-B789-F36099B37154";
name = "Color 2";
paths = (
{
closed = 1;
nodes = (
"228 520 OFFCURVE",
"289 541 OFFCURVE",
"347 545 CURVE",
"365 582 OFFCURVE",
"379 616 OFFCURVE",
"379 645 CURVE SMOOTH",
"379 704 OFFCURVE",
"314 738 OFFCURVE",
"272 738 CURVE SMOOTH",
"184 738 OFFCURVE",
"122 607 OFFCURVE",
"122 481 CURVE SMOOTH",
"122 469 LINE"
);
}
);
width = 600;
},
{
associatedMasterId = "3A120C99-D056-4211-BE1A-9D4BB1803F4A";
layerId = "33C3C902-F5D5-49C6-BCEE-193EBAAC675C";
name = "Color 3";
paths = (
{
closed = 1;
nodes = (
"450 -87 OFFCURVE",
"497 -17 OFFCURVE",
"544 63 CURVE SMOOTH",
"573 112 OFFCURVE",
"597 160 OFFCURVE",
"620 208 CURVE",
"536 236 OFFCURVE",
"506 318 OFFCURVE",
"507 435 CURVE",
"490 431 OFFCURVE",
"472 429 OFFCURVE",
"453 429 CURVE SMOOTH",
"372 429 OFFCURVE",
"310 451 OFFCURVE",
"244 451 CURVE SMOOTH",
"205 451 OFFCURVE",
"173 445 OFFCURVE",
"125 425 CURVE",
"135 332 OFFCURVE",
"167 231 OFFCURVE",
"199 151 CURVE SMOOTH",
"244 40 OFFCURVE",
"303 -87 OFFCURVE",
"388 -87 CURVE SMOOTH"
);
}
);
width = 600;
}
);
unicode = 0045;
},
{
glyphname = Eacute;
lastChange = "2021-06-05 21:24:24 +0000";
layers = (
{
components = (
{
name = E;
},
{
name = acutecomb;
transform = "{1, 0, 0, 1, 808, 173}";
}
);
layerId = "3A120C99-D056-4211-BE1A-9D4BB1803F4A";
width = 600;
},
{
associatedMasterId = "3A120C99-D056-4211-BE1A-9D4BB1803F4A";
components = (
{
name = E;
},
{
name = acutecomb;
transform = "{1, 0, 0, 1, 808, 173}";
}
);
layerId = "86117670-549B-4306-AD76-D21533B276E4";
name = "Color 0";
width = 600;
},
{
associatedMasterId = "3A120C99-D056-4211-BE1A-9D4BB1803F4A";
layerId = "14FEA39B-B094-4CB3-99D4-965DAD858DF7";
name = "Color 4";
paths = (
{
closed = 1;
nodes = (
"228 520 OFFCURVE",
"289 541 OFFCURVE",
"347 545 CURVE",
"365 582 OFFCURVE",
"379 616 OFFCURVE",
"379 645 CURVE SMOOTH",
"379 704 OFFCURVE",
"314 738 OFFCURVE",
"272 738 CURVE SMOOTH",
"184 738 OFFCURVE",
"122 607 OFFCURVE",
"122 481 CURVE SMOOTH",
"122 469 LINE"
);
}
);
width = 600;
},
{
associatedMasterId = "3A120C99-D056-4211-BE1A-9D4BB1803F4A";
layerId = "0F3DF128-6E07-441B-9A59-3B7734410776";
name = "Color 1";
paths = (
{
closed = 1;
nodes = (
"450 -87 OFFCURVE",
"497 -17 OFFCURVE",
"544 63 CURVE SMOOTH",
"573 112 OFFCURVE",
"597 160 OFFCURVE",
"620 208 CURVE",
"536 236 OFFCURVE",
"506 318 OFFCURVE",
"507 435 CURVE",
"490 431 OFFCURVE",
"472 429 OFFCURVE",
"453 429 CURVE SMOOTH",
"372 429 OFFCURVE",
"310 451 OFFCURVE",
"244 451 CURVE SMOOTH",
"205 451 OFFCURVE",
"173 445 OFFCURVE",
"125 425 CURVE",
"135 332 OFFCURVE",
"167 231 OFFCURVE",
"199 151 CURVE SMOOTH",
"244 40 OFFCURVE",
"303 -87 OFFCURVE",
"388 -87 CURVE SMOOTH"
);
}
);
width = 600;
}
);
unicode = 00C9;
},
{
glyphname = Ecircumflex;
lastChange = "2021-06-05 21:24:39 +0000";
layers = (
{
components = (
{
name = E;
},
{
name = circumflexcomb;
transform = "{1, 0, 0, 1, 796, 173}";
}
);
layerId = "3A120C99-D056-4211-BE1A-9D4BB1803F4A";
width = 600;
},
{
associatedMasterId = "3A120C99-D056-4211-BE1A-9D4BB1803F4A";
components = (
{
name = E;
},
{
name = circumflexcomb;
transform = "{1, 0, 0, 1, 796, 173}";
}
);
layerId = "17A37B95-ABA2-410E-A23A-42D5978A21EF";
name = "Color 0";
width = 600;
},
{
associatedMasterId = "3A120C99-D056-4211-BE1A-9D4BB1803F4A";
layerId = "DE4C4579-D8E0-452F-8DA2-FF5C3654CF61";
name = "Color 1";
paths = (
{
closed = 1;
nodes = (
"228 520 OFFCURVE",
"289 541 OFFCURVE",
"347 545 CURVE",
"365 582 OFFCURVE",
"379 616 OFFCURVE",
"379 645 CURVE SMOOTH",
"379 704 OFFCURVE",
"314 738 OFFCURVE",
"272 738 CURVE SMOOTH",
"184 738 OFFCURVE",
"122 607 OFFCURVE",
"122 481 CURVE SMOOTH",
"122 469 LINE"
);
}
);
width = 600;
},
{
associatedMasterId = "3A120C99-D056-4211-BE1A-9D4BB1803F4A";
layerId = "0AB1D008-CBDD-4FE0-8FEF-3648F48806CE";
name = "Color 4";
paths = (
{
closed = 1;
nodes = (
"450 -87 OFFCURVE",
"497 -17 OFFCURVE",
"544 63 CURVE SMOOTH",
"573 112 OFFCURVE",
"597 160 OFFCURVE",
"620 208 CURVE",
"536 236 OFFCURVE",
"506 318 OFFCURVE",
"507 435 CURVE",
"490 431 OFFCURVE",
"472 429 OFFCURVE",
"453 429 CURVE SMOOTH",
"372 429 OFFCURVE",
"310 451 OFFCURVE",
"244 451 CURVE SMOOTH",
"205 451 OFFCURVE",
"173 445 OFFCURVE",
"125 425 CURVE",
"135 332 OFFCURVE",
"167 231 OFFCURVE",
"199 151 CURVE SMOOTH",
"244 40 OFFCURVE",
"303 -87 OFFCURVE",
"388 -87 CURVE SMOOTH"
);
}
);
width = 600;
}
);
unicode = 00CA;
},
{
glyphname = Edieresis;
lastChange = "2021-06-05 21:24:51 +0000";
layers = (
{
components = (
{
name = E;
},
{
name = dieresiscomb;
transform = "{1, 0, 0, 1, 876, 173}";
}
);
layerId = "3A120C99-D056-4211-BE1A-9D4BB1803F4A";
width = 600;
},
{
associatedMasterId = "3A120C99-D056-4211-BE1A-9D4BB1803F4A";
components = (
{
name = E;
},
{
name = dieresiscomb;
transform = "{1, 0, 0, 1, 876, 173}";
}
);
layerId = "D6A3F0E9-80CB-445A-9B28-355B505E431A";
name = "Color 0";
width = 600;
},
{
associatedMasterId = "3A120C99-D056-4211-BE1A-9D4BB1803F4A";
layerId = "C58A4459-1D7A-4CE0-91B6-97DD7066AA07";
name = "Color 3";
paths = (
{
closed = 1;
nodes = (
"228 520 OFFCURVE",
"289 541 OFFCURVE",
"347 545 CURVE",
"365 582 OFFCURVE",
"379 616 OFFCURVE",
"379 645 CURVE SMOOTH",
"379 704 OFFCURVE",
"314 738 OFFCURVE",
"272 738 CURVE SMOOTH",
"184 738 OFFCURVE",
"122 607 OFFCURVE",
"122 481 CURVE SMOOTH",
"122 469 LINE"
);
}
);
width = 600;
},
{
associatedMasterId = "3A120C99-D056-4211-BE1A-9D4BB1803F4A";
layerId = "AE64187C-D785-4413-9A39-149ABB754D80";
name = "Color 2";
paths = (
{
closed = 1;
nodes = (
"450 -87 OFFCURVE",
"497 -17 OFFCURVE",
"544 63 CURVE SMOOTH",
"573 112 OFFCURVE",
"597 160 OFFCURVE",
"620 208 CURVE",
"536 236 OFFCURVE",
"506 318 OFFCURVE",
"507 435 CURVE",
"490 431 OFFCURVE",
"472 429 OFFCURVE",
"453 429 CURVE SMOOTH",
"372 429 OFFCURVE",
"310 451 OFFCURVE",
"244 451 CURVE SMOOTH",
"205 451 OFFCURVE",
"173 445 OFFCURVE",
"125 425 CURVE",
"135 332 OFFCURVE",
"167 231 OFFCURVE",
"199 151 CURVE SMOOTH",
"244 40 OFFCURVE",
"303 -87 OFFCURVE",
"388 -87 CURVE SMOOTH"
);
}
);
width = 600;
}
);
unicode = 00CB;
},
{
glyphname = Egrave;
lastChange = "2021-06-05 21:25:34 +0000";
layers = (
{
components = (
{
name = E;
},
{
name = gravecomb;
transform = "{1, 0, 0, 1, 773, 173}";
}
);
layerId = "3A120C99-D056-4211-BE1A-9D4BB1803F4A";
width = 600;
},
{
associatedMasterId = "3A120C99-D056-4211-BE1A-9D4BB1803F4A";
components = (
{
name = E;
},
{
name = gravecomb;
transform = "{1, 0, 0, 1, 773, 173}";
}
);
layerId = "9908F22C-37A9-4EC6-8B97-B704221B03EC";
name = "Color 0";
width = 600;
},
{
associatedMasterId = "3A120C99-D056-4211-BE1A-9D4BB1803F4A";
layerId = "46244AB7-A13D-4DFF-AC20-250D76AD7144";
name = "Color 1";
paths = (
{
closed = 1;
nodes = (
"228 520 OFFCURVE",
"289 541 OFFCURVE",
"347 545 CURVE",
"365 582 OFFCURVE",
"379 616 OFFCURVE",
"379 645 CURVE SMOOTH",
"379 704 OFFCURVE",
"314 738 OFFCURVE",
"272 738 CURVE SMOOTH",
"184 738 OFFCURVE",
"122 607 OFFCURVE",
"122 481 CURVE SMOOTH",
"122 469 LINE"
);
}
);
width = 600;
},
{
associatedMasterId = "3A120C99-D056-4211-BE1A-9D4BB1803F4A";
layerId = "12F0F200-2E63-4B1D-8955-282554CF7EB9";
name = "Color 3";
paths = (
{
closed = 1;
nodes = (
"450 -87 OFFCURVE",
"497 -17 OFFCURVE",
"544 63 CURVE SMOOTH",
"573 112 OFFCURVE",
"597 160 OFFCURVE",
"620 208 CURVE",
"536 236 OFFCURVE",
"506 318 OFFCURVE",
"507 435 CURVE",
"490 431 OFFCURVE",
"472 429 OFFCURVE",
"453 429 CURVE SMOOTH",
"372 429 OFFCURVE",
"310 451 OFFCURVE",
"244 451 CURVE SMOOTH",
"205 451 OFFCURVE",
"173 445 OFFCURVE",
"125 425 CURVE",
"135 332 OFFCURVE",
"167 231 OFFCURVE",
"199 151 CURVE SMOOTH",
"244 40 OFFCURVE",
"303 -87 OFFCURVE",
"388 -87 CURVE SMOOTH"
);
}
);
width = 600;
}
);
unicode = 00C8;
},
{
glyphname = Emacron;
lastChange = "2021-06-05 22:32:40 +0000";
layers = (
{
components = (
{
name = E;
},
{
name = macroncomb;
transform = "{1, 0, 0, 1, 878, 173}";
}
);
layerId = "3A120C99-D056-4211-BE1A-9D4BB1803F4A";
width = 600;
},
{
associatedMasterId = "3A120C99-D056-4211-BE1A-9D4BB1803F4A";
components = (
{
name = E;
},
{
name = macroncomb;
transform = "{1, 0, 0, 1, 878, 173}";
}
);
layerId = "C9DE9DA5-1CF9-4A22-9A9C-00D5B5B6C239";
name = "Color 0";
width = 600;
},
{
associatedMasterId = "3A120C99-D056-4211-BE1A-9D4BB1803F4A";
layerId = "F68BD338-A1F3-4BF4-A526-F31EC3B0B0D2";
name = "Color 1";
paths = (
{
closed = 1;
nodes = (
"228 520 OFFCURVE",
"289 541 OFFCURVE",
"347 545 CURVE",
"365 582 OFFCURVE",
"379 616 OFFCURVE",
"379 645 CURVE SMOOTH",
"379 704 OFFCURVE",
"314 738 OFFCURVE",
"272 738 CURVE SMOOTH",
"184 738 OFFCURVE",
"122 607 OFFCURVE",
"122 481 CURVE SMOOTH",
"122 469 LINE"
);
}
);
width = 600;
},
{
associatedMasterId = "3A120C99-D056-4211-BE1A-9D4BB1803F4A";
layerId = "1F0C4C58-2BA8-416E-B616-7EECB1C3FA6B";
name = "Color 4";
paths = (
{
closed = 1;
nodes = (
"450 -87 OFFCURVE",
"497 -17 OFFCURVE",
"544 63 CURVE SMOOTH",
"573 112 OFFCURVE",
"597 160 OFFCURVE",
"620 208 CURVE",
"536 236 OFFCURVE",
"506 318 OFFCURVE",
"507 435 CURVE",
"490 431 OFFCURVE",
"472 429 OFFCURVE",
"453 429 CURVE SMOOTH",
"372 429 OFFCURVE",
"310 451 OFFCURVE",
"244 451 CURVE SMOOTH",
"205 451 OFFCURVE",
"173 445 OFFCURVE",
"125 425 CURVE",
"135 332 OFFCURVE",
"167 231 OFFCURVE",
"199 151 CURVE SMOOTH",
"244 40 OFFCURVE",
"303 -87 OFFCURVE",
"388 -87 CURVE SMOOTH"
);
}
);
width = 600;
}
);
unicode = 0112;
},
{
glyphname = F;
lastChange = "2021-06-05 20:35:04 +0000";
layers = (
{
anchors = (
{
name = bottom;
position = "{500, 0}";
},
{
name = top;
position = "{460, 682}";
}
);
layerId = "3A120C99-D056-4211-BE1A-9D4BB1803F4A";
paths = (
{
closed = 1;
nodes = (
"217 -554 OFFCURVE",
"242 -432 OFFCURVE",
"251 -321 CURVE SMOOTH",
"259 -231 OFFCURVE",
"261 -150 OFFCURVE",
"261 -73 CURVE SMOOTH",
"261 32 OFFCURVE",
"264 121 OFFCURVE",
"271 222 CURVE SMOOTH",
"278 308 OFFCURVE",
"289 404 OFFCURVE",
"301 481 CURVE SMOOTH",
"317 577 OFFCURVE",
"340 654 OFFCURVE",
"396 654 CURVE SMOOTH",
"448 654 OFFCURVE",
"489 583 OFFCURVE",
"521 519 CURVE",
"613 606 LINE",
"567 677 OFFCURVE",
"527 739 OFFCURVE",
"460 739 CURVE SMOOTH",
"403 739 OFFCURVE",
"339 686 OFFCURVE",
"299 625 CURVE SMOOTH",
"244 541 OFFCURVE",
"234 322 OFFCURVE",
"224 162 CURVE",
"207 237 OFFCURVE",
"195 311 OFFCURVE",
"191 380 CURVE SMOOTH",
"189 396 OFFCURVE",
"189 411 OFFCURVE",
"189 425 CURVE SMOOTH",
"189 484 OFFCURVE",
"196 542 OFFCURVE",
"203 595 CURVE",
"182 608 LINE",
"107 506 OFFCURVE",
"86 479 OFFCURVE",
"-20 394 CURVE",
"-11 381 LINE",
"29 408 OFFCURVE",
"51 421 OFFCURVE",
"75 421 CURVE SMOOTH",
"97 421 OFFCURVE",
"119 406 OFFCURVE",
"132 357 CURVE SMOOTH",
"147 299 OFFCURVE",
"165 199 OFFCURVE",
"176 85 CURVE SMOOTH",
"186 -13 OFFCURVE",
"193 -123 OFFCURVE",
"193 -234 CURVE SMOOTH",
"193 -387 OFFCURVE",
"179 -525 OFFCURVE",
"163 -670 CURVE",
"192 -676 LINE"
);
},
{
closed = 1;
nodes = (
"302 60 OFFCURVE",
"370 76 OFFCURVE",
"437 76 CURVE SMOOTH",
"476 76 OFFCURVE",
"517 70 OFFCURVE",
"557 70 CURVE SMOOTH",
"642 70 OFFCURVE",
"686 105 OFFCURVE",
"759 168 CURVE",
"759 170 LINE",
"712 156 OFFCURVE",
"666 146 OFFCURVE",
"611 146 CURVE SMOOTH",
"567 146 OFFCURVE",
"521 153 OFFCURVE",
"475 153 CURVE SMOOTH",
"386 153 OFFCURVE",
"320 120 OFFCURVE",
"226 68 CURVE",
"235 41 LINE"
);
}
);
width = 739;
},
{
anchors = (
{
name = bottom;
position = "{500, 0}";
},
{
name = top;
position = "{460, 682}";
}
);
associatedMasterId = "3A120C99-D056-4211-BE1A-9D4BB1803F4A";
layerId = "338901F5-8FEC-4657-8464-9AF7BB4D37F5";
name = "Color 0";
paths = (
{
closed = 1;
nodes = (
"217 -554 OFFCURVE",
"242 -432 OFFCURVE",
"251 -321 CURVE SMOOTH",
"259 -231 OFFCURVE",
"261 -150 OFFCURVE",
"261 -73 CURVE SMOOTH",
"261 32 OFFCURVE",
"264 121 OFFCURVE",
"271 222 CURVE SMOOTH",
"278 308 OFFCURVE",
"289 404 OFFCURVE",
"301 481 CURVE SMOOTH",
"317 577 OFFCURVE",
"340 654 OFFCURVE",
"396 654 CURVE SMOOTH",
"448 654 OFFCURVE",
"489 583 OFFCURVE",
"521 519 CURVE",
"613 606 LINE",
"567 677 OFFCURVE",
"527 739 OFFCURVE",
"460 739 CURVE SMOOTH",
"403 739 OFFCURVE",
"339 686 OFFCURVE",
"299 625 CURVE SMOOTH",
"244 541 OFFCURVE",
"234 322 OFFCURVE",
"224 162 CURVE",
"207 237 OFFCURVE",
"195 311 OFFCURVE",
"191 380 CURVE SMOOTH",
"189 396 OFFCURVE",
"189 411 OFFCURVE",
"189 425 CURVE SMOOTH",
"189 484 OFFCURVE",
"196 542 OFFCURVE",
"203 595 CURVE",
"182 608 LINE",
"107 506 OFFCURVE",
"86 479 OFFCURVE",
"-20 394 CURVE",
"-11 381 LINE",
"29 408 OFFCURVE",
"51 421 OFFCURVE",
"75 421 CURVE SMOOTH",
"97 421 OFFCURVE",
"119 406 OFFCURVE",
"132 357 CURVE SMOOTH",
"147 299 OFFCURVE",
"165 199 OFFCURVE",
"176 85 CURVE SMOOTH",
"186 -13 OFFCURVE",
"193 -123 OFFCURVE",
"193 -234 CURVE SMOOTH",
"193 -387 OFFCURVE",
"179 -525 OFFCURVE",
"163 -670 CURVE",
"192 -676 LINE"
);
},
{
closed = 1;
nodes = (
"302 60 OFFCURVE",
"370 76 OFFCURVE",
"437 76 CURVE SMOOTH",
"476 76 OFFCURVE",
"517 70 OFFCURVE",
"557 70 CURVE SMOOTH",
"642 70 OFFCURVE",
"686 105 OFFCURVE",
"759 168 CURVE",
"759 170 LINE",
"712 156 OFFCURVE",
"666 146 OFFCURVE",
"611 146 CURVE SMOOTH",
"567 146 OFFCURVE",
"521 153 OFFCURVE",
"475 153 CURVE SMOOTH",
"386 153 OFFCURVE",
"320 120 OFFCURVE",
"226 68 CURVE",
"235 41 LINE"
);
}
);
width = 739;
},
{
associatedMasterId = "3A120C99-D056-4211-BE1A-9D4BB1803F4A";
layerId = "F25E3785-99BD-4771-B83A-42F4222F84C5";
name = "Color 4";
paths = (
{
closed = 1;
nodes = (
"339 129 OFFCURVE",
"398 153 OFFCURVE",
"475 153 CURVE SMOOTH",
"521 153 OFFCURVE",
"567 146 OFFCURVE",
"611 146 CURVE",
"549 240 OFFCURVE",
"518 364 OFFCURVE",
"521 519 CURVE",
"489 583 OFFCURVE",
"448 654 OFFCURVE",
"396 654 CURVE SMOOTH",
"340 654 OFFCURVE",
"317 577 OFFCURVE",
"301 481 CURVE SMOOTH",
"289 404 OFFCURVE",
"278 308 OFFCURVE",
"271 222 CURVE SMOOTH",
"268 176 OFFCURVE",
"265 132 OFFCURVE",
"264 89 CURVE"
);
}
);
width = 739;
}
);
unicode = 0046;
},
{
glyphname = G;
lastChange = "2021-06-05 20:35:42 +0000";
layers = (
{
anchors = (
{
name = bottom;
position = "{369, -454}";
},
{
name = top;
position = "{339, 682}";
}
);
layerId = "3A120C99-D056-4211-BE1A-9D4BB1803F4A";
paths = (
{
closed = 1;
nodes = (
"430 -494 OFFCURVE",
"507 -420 OFFCURVE",
"556 -349 CURVE SMOOTH",
"605 -279 OFFCURVE",
"636 -203 OFFCURVE",
"636 -153 CURVE SMOOTH",
"636 -120 OFFCURVE",
"626 -87 OFFCURVE",
"596 -55 CURVE SMOOTH",
"552 -7 OFFCURVE",
"466 45 OFFCURVE",
"380 95 CURVE SMOOTH",
"296 144 OFFCURVE",
"215 194 OFFCURVE",
"175 252 CURVE SMOOTH",
"155 281 OFFCURVE",
"146 315 OFFCURVE",
"146 347 CURVE SMOOTH",
"146 447 OFFCURVE",
"210 506 OFFCURVE",
"301 591 CURVE",
"271 604 LINE",
"155 491 OFFCURVE",
"56 392 OFFCURVE",
"56 268 CURVE SMOOTH",
"56 222 OFFCURVE",
"72 176 OFFCURVE",
"102 138 CURVE SMOOTH",
"156 70 OFFCURVE",
"255 24 OFFCURVE",
"344 -17 CURVE SMOOTH",
"423 -54 OFFCURVE",
"493 -88 OFFCURVE",
"531 -128 CURVE SMOOTH",
"557 -156 OFFCURVE",
"568 -188 OFFCURVE",
"568 -221 CURVE SMOOTH",
"568 -258 OFFCURVE",
"555 -296 OFFCURVE",
"534 -329 CURVE SMOOTH",
"513 -362 OFFCURVE",
"478 -411 OFFCURVE",
"447 -411 CURVE SMOOTH",
"411 -411 OFFCURVE",
"353 -347 OFFCURVE",
"302 -289 CURVE",
"206 -374 LINE",
"260 -434 OFFCURVE",
"316 -494 OFFCURVE",
"373 -494 CURVE SMOOTH"
);
},
{
closed = 1;
nodes = (
"74 543 OFFCURVE",
"116 582 OFFCURVE",
"187 582 CURVE SMOOTH",
"254 582 OFFCURVE",
"343 559 OFFCURVE",
"417 559 CURVE SMOOTH",
"523 559 OFFCURVE",
"610 653 OFFCURVE",
"708 759 CURVE",
"689 771 LINE",
"625 707 OFFCURVE",
"566 650 OFFCURVE",
"479 650 CURVE SMOOTH",
"424 650 OFFCURVE",
"368 674 OFFCURVE",
"293 674 CURVE SMOOTH",
"162 674 OFFCURVE",
"95 612 OFFCURVE",
"0 499 CURVE",
"13 485 LINE"
);
}
);
width = 678;
},
{
anchors = (
{
name = bottom;
position = "{369, -454}";
},
{
name = top;
position = "{339, 682}";
}
);
associatedMasterId = "3A120C99-D056-4211-BE1A-9D4BB1803F4A";
layerId = "B8573B45-9F47-4173-ADB9-FB3861FC942B";
name = "Color 0";
paths = (
{
closed = 1;
nodes = (
"430 -494 OFFCURVE",
"507 -420 OFFCURVE",
"556 -349 CURVE SMOOTH",
"605 -279 OFFCURVE",
"636 -203 OFFCURVE",
"636 -153 CURVE SMOOTH",
"636 -120 OFFCURVE",
"626 -87 OFFCURVE",
"596 -55 CURVE SMOOTH",
"552 -7 OFFCURVE",
"466 45 OFFCURVE",
"380 95 CURVE SMOOTH",
"296 144 OFFCURVE",
"215 194 OFFCURVE",
"175 252 CURVE SMOOTH",
"155 281 OFFCURVE",
"146 315 OFFCURVE",
"146 347 CURVE SMOOTH",
"146 447 OFFCURVE",
"210 506 OFFCURVE",
"301 591 CURVE",
"271 604 LINE",
"155 491 OFFCURVE",
"56 392 OFFCURVE",
"56 268 CURVE SMOOTH",
"56 222 OFFCURVE",
"72 176 OFFCURVE",
"102 138 CURVE SMOOTH",
"156 70 OFFCURVE",
"255 24 OFFCURVE",
"344 -17 CURVE SMOOTH",
"423 -54 OFFCURVE",
"493 -88 OFFCURVE",
"531 -128 CURVE SMOOTH",
"557 -156 OFFCURVE",
"568 -188 OFFCURVE",
"568 -221 CURVE SMOOTH",
"568 -258 OFFCURVE",
"555 -296 OFFCURVE",
"534 -329 CURVE SMOOTH",
"513 -362 OFFCURVE",
"478 -411 OFFCURVE",
"447 -411 CURVE SMOOTH",
"411 -411 OFFCURVE",
"353 -347 OFFCURVE",
"302 -289 CURVE",
"206 -374 LINE",
"260 -434 OFFCURVE",
"316 -494 OFFCURVE",
"373 -494 CURVE SMOOTH"
);
},
{
closed = 1;
nodes = (
"74 543 OFFCURVE",
"116 582 OFFCURVE",
"187 582 CURVE SMOOTH",
"254 582 OFFCURVE",
"343 559 OFFCURVE",
"417 559 CURVE SMOOTH",
"523 559 OFFCURVE",
"610 653 OFFCURVE",
"708 759 CURVE",
"689 771 LINE",
"625 707 OFFCURVE",
"566 650 OFFCURVE",
"479 650 CURVE SMOOTH",
"424 650 OFFCURVE",
"368 674 OFFCURVE",
"293 674 CURVE SMOOTH",
"162 674 OFFCURVE",
"95 612 OFFCURVE",
"0 499 CURVE",
"13 485 LINE"
);
}
);
width = 678;
},
{
associatedMasterId = "3A120C99-D056-4211-BE1A-9D4BB1803F4A";
layerId = "1D3E8C95-658F-4CAD-9CBB-2CF9E3670736";
name = "Color 2";
paths = (
{
closed = 1;
nodes = (
"417 150 OFFCURVE",
"411 371 OFFCURVE",
"549 607 CURVE",
"507 577 OFFCURVE",
"464 559 OFFCURVE",
"417 559 CURVE SMOOTH",
"375 559 OFFCURVE",
"327 567 OFFCURVE",
"282 573 CURVE",
"201 497 OFFCURVE",
"146 440 OFFCURVE",
"146 347 CURVE SMOOTH",
"146 315 OFFCURVE",
"155 281 OFFCURVE",
"175 252 CURVE SMOOTH",
"215 194 OFFCURVE",
"296 144 OFFCURVE",
"380 95 CURVE SMOOTH",
"466 45 OFFCURVE",
"552 -7 OFFCURVE",
"596 -55 CURVE"
);
},
{
closed = 1;
nodes = (
"478 -411 OFFCURVE",
"513 -362 OFFCURVE",
"534 -329 CURVE SMOOTH",
"555 -296 OFFCURVE",
"568 -258 OFFCURVE",
"568 -221 CURVE SMOOTH",
"568 -188 OFFCURVE",
"557 -156 OFFCURVE",
"531 -128 CURVE SMOOTH",
"493 -88 OFFCURVE",
"423 -54 OFFCURVE",
"344 -17 CURVE SMOOTH",
"298 4 OFFCURVE",
"249 27 OFFCURVE",
"205 53 CURVE",
"255 -59 OFFCURVE",
"296 -172 OFFCURVE",
"302 -289 CURVE",
"353 -347 OFFCURVE",
"411 -411 OFFCURVE",
"447 -411 CURVE SMOOTH"
);
}
);
width = 678;
}
);
unicode = 0047;
},
{
glyphname = H;
lastChange = "2021-06-05 20:37:42 +0000";
layers = (
{
anchors = (
{
name = bottom;
position = "{495, 0}";
},
{
name = center;
position = "{495, 341}";
},
{
name = top;
position = "{495, 1263}";
}
);
layerId = "3A120C99-D056-4211-BE1A-9D4BB1803F4A";
paths = (
{
closed = 1;
nodes = (
"222 -130 OFFCURVE",
"258 -99 OFFCURVE",
"289 -75 CURVE SMOOTH",
"311 -58 OFFCURVE",
"342 -32 OFFCURVE",
"342 -14 CURVE SMOOTH",
"342 0 OFFCURVE",
"337 25 OFFCURVE",
"330 54 CURVE SMOOTH",
"323 82 OFFCURVE",
"318 114 OFFCURVE",
"314 147 CURVE SMOOTH",
"303 229 OFFCURVE",
"298 449 OFFCURVE",
"293 576 CURVE SMOOTH",
"289 706 OFFCURVE",
"281 912 OFFCURVE",
"281 1003 CURVE SMOOTH",
"281 1100 OFFCURVE",
"291 1205 OFFCURVE",
"300 1290 CURVE",
"277 1303 LINE",
"239 1247 OFFCURVE",
"187 1176 OFFCURVE",
"144 1135 CURVE SMOOTH",
"101 1094 OFFCURVE",
"10 1028 OFFCURVE",
"-64 976 CURVE",
"-48 952 LINE",
"-9 981 OFFCURVE",
"28 999 OFFCURVE",
"54 999 CURVE SMOOTH",
"131 999 OFFCURVE",
"165 955 OFFCURVE",
"185 849 CURVE SMOOTH",
"197 786 OFFCURVE",
"215 576 OFFCURVE",
"223 482 CURVE SMOOTH",
"232 375 OFFCURVE",
"249 131 OFFCURVE",
"249 76 CURVE SMOOTH",
"249 -39 OFFCURVE",
"244 -48 OFFCURVE",
"162 -141 CURVE",
"185 -163 LINE"
);
},
{
closed = 1;
nodes = (
"770 -92 OFFCURVE",
"814 -39 OFFCURVE",
"814 13 CURVE SMOOTH",
"814 50 OFFCURVE",
"789 67 OFFCURVE",
"740 67 CURVE SMOOTH",
"685 67 OFFCURVE",
"636 40 OFFCURVE",
"636 -14 CURVE SMOOTH",
"636 -47 OFFCURVE",
"668 -92 OFFCURVE",
"724 -92 CURVE SMOOTH"
);
},
{
closed = 1;
nodes = (
"801 67 OFFCURVE",
"834 124 OFFCURVE",
"861 176 CURVE SMOOTH",
"895 238 OFFCURVE",
"939 323 OFFCURVE",
"939 380 CURVE SMOOTH",
"939 435 OFFCURVE",
"902 495 OFFCURVE",
"863 544 CURVE SMOOTH",
"827 590 OFFCURVE",
"776 644 OFFCURVE",
"722 644 CURVE SMOOTH",
"698 644 OFFCURVE",
"609 627 OFFCURVE",
"557 599 CURVE SMOOTH",
"515 577 OFFCURVE",
"493 552 OFFCURVE",
"467 507 CURVE SMOOTH",
"438 460 OFFCURVE",
"409 393 OFFCURVE",
"381 342 CURVE SMOOTH",
"349 284 OFFCURVE",
"316 226 OFFCURVE",
"281 172 CURVE",
"314 47 LINE",
"336 119 OFFCURVE",
"358 190 OFFCURVE",
"387 264 CURVE SMOOTH",
"414 333 OFFCURVE",
"445 405 OFFCURVE",
"473 443 CURVE SMOOTH",
"504 485 OFFCURVE",
"532 501 OFFCURVE",
"608 501 CURVE SMOOTH",
"706 501 OFFCURVE",
"865 421 OFFCURVE",
"865 304 CURVE SMOOTH",
"865 232 OFFCURVE",
"805 131 OFFCURVE",
"743 27 CURVE",
"769 11 LINE"
);
}
);
width = 989;
},
{
anchors = (
{
name = bottom;
position = "{495, 0}";
},
{
name = center;
position = "{495, 341}";
},
{
name = top;
position = "{495, 1263}";
}
);
associatedMasterId = "3A120C99-D056-4211-BE1A-9D4BB1803F4A";
layerId = "C32BB289-18FF-4AA9-83BC-279E2E338D1B";
name = "Color 0";
paths = (
{
closed = 1;
nodes = (
"222 -130 OFFCURVE",
"258 -99 OFFCURVE",
"289 -75 CURVE SMOOTH",
"311 -58 OFFCURVE",
"342 -32 OFFCURVE",
"342 -14 CURVE SMOOTH",
"342 0 OFFCURVE",
"337 25 OFFCURVE",
"330 54 CURVE SMOOTH",
"323 82 OFFCURVE",
"318 114 OFFCURVE",
"314 147 CURVE SMOOTH",
"303 229 OFFCURVE",
"298 449 OFFCURVE",
"293 576 CURVE SMOOTH",
"289 706 OFFCURVE",
"281 912 OFFCURVE",
"281 1003 CURVE SMOOTH",
"281 1100 OFFCURVE",
"291 1205 OFFCURVE",
"300 1290 CURVE",
"277 1303 LINE",
"239 1247 OFFCURVE",
"187 1176 OFFCURVE",
"144 1135 CURVE SMOOTH",
"101 1094 OFFCURVE",
"10 1028 OFFCURVE",
"-64 976 CURVE",
"-48 952 LINE",
"-9 981 OFFCURVE",
"28 999 OFFCURVE",
"54 999 CURVE SMOOTH",
"131 999 OFFCURVE",
"165 955 OFFCURVE",
"185 849 CURVE SMOOTH",
"197 786 OFFCURVE",
"215 576 OFFCURVE",
"223 482 CURVE SMOOTH",
"232 375 OFFCURVE",
"249 131 OFFCURVE",
"249 76 CURVE SMOOTH",
"249 -39 OFFCURVE",
"244 -48 OFFCURVE",
"162 -141 CURVE",
"185 -163 LINE"
);
},
{
closed = 1;
nodes = (
"770 -92 OFFCURVE",
"814 -39 OFFCURVE",
"814 13 CURVE SMOOTH",
"814 50 OFFCURVE",
"789 67 OFFCURVE",
"740 67 CURVE SMOOTH",
"685 67 OFFCURVE",
"636 40 OFFCURVE",
"636 -14 CURVE SMOOTH",
"636 -47 OFFCURVE",
"668 -92 OFFCURVE",
"724 -92 CURVE SMOOTH"
);
},
{
closed = 1;
nodes = (
"801 67 OFFCURVE",
"834 124 OFFCURVE",
"861 176 CURVE SMOOTH",
"895 238 OFFCURVE",
"939 323 OFFCURVE",
"939 380 CURVE SMOOTH",
"939 435 OFFCURVE",
"902 495 OFFCURVE",
"863 544 CURVE SMOOTH",
"827 590 OFFCURVE",
"776 644 OFFCURVE",
"722 644 CURVE SMOOTH",
"698 644 OFFCURVE",
"609 627 OFFCURVE",
"557 599 CURVE SMOOTH",
"515 577 OFFCURVE",
"493 552 OFFCURVE",
"467 507 CURVE SMOOTH",
"438 460 OFFCURVE",
"409 393 OFFCURVE",
"381 342 CURVE SMOOTH",
"349 284 OFFCURVE",
"316 226 OFFCURVE",
"281 172 CURVE",
"314 47 LINE",
"336 119 OFFCURVE",
"358 190 OFFCURVE",
"387 264 CURVE SMOOTH",
"414 333 OFFCURVE",
"445 405 OFFCURVE",
"473 443 CURVE SMOOTH",
"504 485 OFFCURVE",
"532 501 OFFCURVE",
"608 501 CURVE SMOOTH",
"706 501 OFFCURVE",
"865 421 OFFCURVE",
"865 304 CURVE SMOOTH",
"865 232 OFFCURVE",
"805 131 OFFCURVE",
"743 27 CURVE",
"769 11 LINE"
);
}
);
width = 989;
},
{
associatedMasterId = "3A120C99-D056-4211-BE1A-9D4BB1803F4A";
layerId = "4EFB1A87-C20D-4617-86A1-656004077C17";
name = "Color 3";
paths = (
{
closed = 1;
nodes = (
"636 -14 LINE",
"636 40 OFFCURVE",
"685 67 OFFCURVE",
"740 67 CURVE SMOOTH",
"749 67 OFFCURVE",
"758 66 OFFCURVE",
"766 65 CURVE",
"819 155 OFFCURVE",
"865 241 OFFCURVE",
"865 304 CURVE SMOOTH",
"865 421 OFFCURVE",
"706 501 OFFCURVE",
"608 501 CURVE SMOOTH",
"532 501 OFFCURVE",
"504 485 OFFCURVE",
"473 443 CURVE SMOOTH",
"445 405 OFFCURVE",
"414 333 OFFCURVE",
"387 264 CURVE SMOOTH",
"362 201 OFFCURVE",
"343 141 OFFCURVE",
"324 80 CURVE",
"330 54 LINE SMOOTH",
"337 25 OFFCURVE",
"342 0 OFFCURVE",
"342 -14 CURVE"
);
}
);
width = 989;
}
);
unicode = 0048;
},
{
glyphname = I;
lastChange = "2021-06-05 20:38:22 +0000";
layers = (
{
anchors = (
{
name = bottom;
position = "{229, -133}";
},
{
name = ogonek;
position = "{411, 10}";
},
{
name = top;
position = "{229, 1260}";
}
);
layerId = "3A120C99-D056-4211-BE1A-9D4BB1803F4A";
paths = (
{
closed = 1;
nodes = (
"240 -173 OFFCURVE",
"294 -67 OFFCURVE",
"318 -23 CURVE",
"296 1 OFFCURVE",
"277 22 OFFCURVE",
"277 69 CURVE SMOOTH",
"277 100 OFFCURVE",
"287 173 OFFCURVE",
"294 217 CURVE SMOOTH",
"304 280 OFFCURVE",
"317 362 OFFCURVE",
"325 447 CURVE SMOOTH",
"343 595 OFFCURVE",
"350 731 OFFCURVE",
"351 877 CURVE SMOOTH",
"351 1010 OFFCURVE",
"361 1151 OFFCURVE",
"407 1293 CURVE",
"388 1300 LINE",
"282 1126 OFFCURVE",
"172 986 OFFCURVE",
"40 868 CURVE",
"59 840 LINE",
"76 846 OFFCURVE",
"95 848 OFFCURVE",
"120 848 CURVE SMOOTH",
"176 848 OFFCURVE",
"243 778 OFFCURVE",
"243 684 CURVE SMOOTH",
"243 609 OFFCURVE",
"226 457 OFFCURVE",
"216 358 CURVE SMOOTH",
"207 257 OFFCURVE",
"195 116 OFFCURVE",
"183 39 CURVE SMOOTH",
"168 -37 OFFCURVE",
"136 -97 OFFCURVE",
"136 -137 CURVE SMOOTH",
"136 -169 OFFCURVE",
"155 -173 OFFCURVE",
"198 -173 CURVE SMOOTH"
);
}
);
width = 457;
},
{
anchors = (
{
name = bottom;
position = "{229, -133}";
},
{
name = ogonek;
position = "{411, 10}";
},
{
name = top;
position = "{229, 1260}";
}
);
associatedMasterId = "3A120C99-D056-4211-BE1A-9D4BB1803F4A";
layerId = "91748E6E-0FE1-42A1-B949-39F1254776C6";
name = "Color 0";
paths = (
{
closed = 1;
nodes = (
"240 -173 OFFCURVE",
"294 -67 OFFCURVE",
"318 -23 CURVE",
"296 1 OFFCURVE",
"277 22 OFFCURVE",
"277 69 CURVE SMOOTH",
"277 100 OFFCURVE",
"287 173 OFFCURVE",
"294 217 CURVE SMOOTH",
"304 280 OFFCURVE",
"317 362 OFFCURVE",
"325 447 CURVE SMOOTH",
"343 595 OFFCURVE",
"350 731 OFFCURVE",
"351 877 CURVE SMOOTH",
"351 1010 OFFCURVE",
"361 1151 OFFCURVE",
"407 1293 CURVE",
"388 1300 LINE",
"282 1126 OFFCURVE",
"172 986 OFFCURVE",
"40 868 CURVE",
"59 840 LINE",
"76 846 OFFCURVE",
"95 848 OFFCURVE",
"120 848 CURVE SMOOTH",
"176 848 OFFCURVE",
"243 778 OFFCURVE",
"243 684 CURVE SMOOTH",
"243 609 OFFCURVE",
"226 457 OFFCURVE",
"216 358 CURVE SMOOTH",
"207 257 OFFCURVE",
"195 116 OFFCURVE",
"183 39 CURVE SMOOTH",
"168 -37 OFFCURVE",
"136 -97 OFFCURVE",
"136 -137 CURVE SMOOTH",
"136 -169 OFFCURVE",
"155 -173 OFFCURVE",
"198 -173 CURVE SMOOTH"
);
}
);
width = 457;
},
{
associatedMasterId = "3A120C99-D056-4211-BE1A-9D4BB1803F4A";
layerId = "1350A928-9DB2-4A43-A689-53719DE2A2EB";
name = "Color 2";
paths = (
{
closed = 1;
nodes = (
"136 -97 OFFCURVE",
"168 -37 OFFCURVE",
"183 39 CURVE SMOOTH",
"195 116 OFFCURVE",
"207 257 OFFCURVE",
"216 358 CURVE SMOOTH",
"226 457 OFFCURVE",
"243 609 OFFCURVE",
"243 684 CURVE SMOOTH",
"243 778 OFFCURVE",
"176 848 OFFCURVE",
"120 848 CURVE SMOOTH",
"95 848 OFFCURVE",
"76 846 OFFCURVE",
"59 840 CURVE",
"132 -131 LINE",
"136 -137 LINE"
);
}
);
width = 457;
}
);
unicode = 0049;
},
{
glyphname = Iacute;
lastChange = "2021-06-05 21:26:19 +0000";
layers = (
{
components = (
{
name = I;
},
{
name = acutecomb;
transform = "{1, 0, 0, 1, 737, 659}";
}
);
layerId = "3A120C99-D056-4211-BE1A-9D4BB1803F4A";
width = 457;
},
{
associatedMasterId = "3A120C99-D056-4211-BE1A-9D4BB1803F4A";
components = (
{
name = I;
},
{
name = acutecomb;
transform = "{1, 0, 0, 1, 737, 659}";
}
);
layerId = "DDE90632-A487-43F4-99E0-1A240C30208B";
name = "Color 0";
width = 457;
},
{
associatedMasterId = "3A120C99-D056-4211-BE1A-9D4BB1803F4A";
layerId = "EA9CFF62-524D-45AF-BDA6-7266C213E666";
name = "Color 1";
paths = (
{
closed = 1;
nodes = (
"136 -97 OFFCURVE",
"168 -37 OFFCURVE",
"183 39 CURVE SMOOTH",
"195 116 OFFCURVE",
"207 257 OFFCURVE",
"216 358 CURVE SMOOTH",
"226 457 OFFCURVE",
"243 609 OFFCURVE",
"243 684 CURVE SMOOTH",
"243 778 OFFCURVE",
"176 848 OFFCURVE",
"120 848 CURVE SMOOTH",
"95 848 OFFCURVE",
"76 846 OFFCURVE",
"59 840 CURVE",
"132 -131 LINE",
"136 -137 LINE"
);
}
);
width = 457;
}
);
unicode = 00CD;
},
{
glyphname = Icircumflex;
lastChange = "2021-06-05 21:26:30 +0000";
layers = (
{
components = (
{
name = I;
},
{
name = circumflexcomb;
transform = "{1, 0, 0, 1, 725, 659}";
}
);
layerId = "3A120C99-D056-4211-BE1A-9D4BB1803F4A";
width = 457;
},
{
associatedMasterId = "3A120C99-D056-4211-BE1A-9D4BB1803F4A";
components = (
{
name = I;
},
{
name = circumflexcomb;
transform = "{1, 0, 0, 1, 725, 659}";
}
);
layerId = "DCCBEF00-39F6-4F7E-ACB6-2CE839676C72";
name = "Color 0";
width = 457;
},
{
associatedMasterId = "3A120C99-D056-4211-BE1A-9D4BB1803F4A";
layerId = "71CED966-9B83-4882-92AA-DD179DE38F43";
name = "Color 2";
paths = (
{
closed = 1;
nodes = (
"136 -97 OFFCURVE",
"168 -37 OFFCURVE",
"183 39 CURVE SMOOTH",
"195 116 OFFCURVE",
"207 257 OFFCURVE",
"216 358 CURVE SMOOTH",
"226 457 OFFCURVE",
"243 609 OFFCURVE",
"243 684 CURVE SMOOTH",
"243 778 OFFCURVE",
"176 848 OFFCURVE",
"120 848 CURVE SMOOTH",
"95 848 OFFCURVE",
"76 846 OFFCURVE",
"59 840 CURVE",
"132 -131 LINE",
"136 -137 LINE"
);
}
);
width = 457;
}
);
unicode = 00CE;
},
{
glyphname = Idieresis;
lastChange = "2021-06-05 21:26:42 +0000";
layers = (
{
components = (
{
name = I;
},
{
name = dieresiscomb;
transform = "{1, 0, 0, 1, 805, 659}";
}
);
layerId = "3A120C99-D056-4211-BE1A-9D4BB1803F4A";
width = 457;
},
{
associatedMasterId = "3A120C99-D056-4211-BE1A-9D4BB1803F4A";
components = (
{
name = I;
},
{
name = dieresiscomb;
transform = "{1, 0, 0, 1, 805, 659}";
}
);
layerId = "7151685E-0BD4-4704-ACA1-4E171CD804F9";
name = "Color 0";
width = 457;
},
{
associatedMasterId = "3A120C99-D056-4211-BE1A-9D4BB1803F4A";
layerId = "493CB305-B187-452C-8718-589B83E33ABD";
name = "Color 3";
paths = (
{
closed = 1;
nodes = (
"136 -97 OFFCURVE",
"168 -37 OFFCURVE",
"183 39 CURVE SMOOTH",
"195 116 OFFCURVE",
"207 257 OFFCURVE",
"216 358 CURVE SMOOTH",
"226 457 OFFCURVE",
"243 609 OFFCURVE",
"243 684 CURVE SMOOTH",
"243 778 OFFCURVE",
"176 848 OFFCURVE",
"120 848 CURVE SMOOTH",
"95 848 OFFCURVE",
"76 846 OFFCURVE",
"59 840 CURVE",
"132 -131 LINE",
"136 -137 LINE"
);
}
);
width = 457;
}
);
unicode = 00CF;
},
{
glyphname = Igrave;
lastChange = "2021-06-05 21:26:53 +0000";
layers = (
{
components = (
{
name = I;
},
{
name = gravecomb;
transform = "{1, 0, 0, 1, 702, 659}";
}
);
layerId = "3A120C99-D056-4211-BE1A-9D4BB1803F4A";
width = 457;
},
{
associatedMasterId = "3A120C99-D056-4211-BE1A-9D4BB1803F4A";
components = (
{
name = I;
},
{
name = gravecomb;
transform = "{1, 0, 0, 1, 702, 659}";
}
);
layerId = "6586764E-B5E0-4AD7-BD81-20D36FFF1E91";
name = "Color 0";
width = 457;
},
{
associatedMasterId = "3A120C99-D056-4211-BE1A-9D4BB1803F4A";
layerId = "F93199ED-FDF0-4CFB-956B-BA97EE2EE5A2";
name = "Color 4";
paths = (
{
closed = 1;
nodes = (
"136 -97 OFFCURVE",
"168 -37 OFFCURVE",
"183 39 CURVE SMOOTH",
"195 116 OFFCURVE",
"207 257 OFFCURVE",
"216 358 CURVE SMOOTH",
"226 457 OFFCURVE",
"243 609 OFFCURVE",
"243 684 CURVE SMOOTH",
"243 778 OFFCURVE",
"176 848 OFFCURVE",
"120 848 CURVE SMOOTH",
"95 848 OFFCURVE",
"76 846 OFFCURVE",
"59 840 CURVE",
"132 -131 LINE",
"136 -137 LINE"
);
}
);
width = 457;
}
);
unicode = 00CC;
},
{
glyphname = Imacron;
lastChange = "2021-06-05 22:33:30 +0000";
layers = (
{
components = (
{
name = I;
},
{
name = macroncomb;
transform = "{1, 0, 0, 1, 807, 659}";
}
);
layerId = "3A120C99-D056-4211-BE1A-9D4BB1803F4A";
width = 457;
},
{
associatedMasterId = "3A120C99-D056-4211-BE1A-9D4BB1803F4A";
components = (
{
name = I;
},
{
name = macroncomb;
transform = "{1, 0, 0, 1, 807, 659}";
}
);
layerId = "558ECBFE-4456-45AD-A872-C23CC1BF3763";
name = "Color 0";
width = 457;
},
{
associatedMasterId = "3A120C99-D056-4211-BE1A-9D4BB1803F4A";
layerId = "E0578A7A-435D-4CB0-A6B0-69FD048DA7B5";
name = "Color 1";
paths = (
{
closed = 1;
nodes = (
"136 -97 OFFCURVE",
"168 -37 OFFCURVE",
"183 39 CURVE SMOOTH",
"195 116 OFFCURVE",
"207 257 OFFCURVE",
"216 358 CURVE SMOOTH",
"226 457 OFFCURVE",
"243 609 OFFCURVE",
"243 684 CURVE SMOOTH",
"243 778 OFFCURVE",
"176 848 OFFCURVE",
"120 848 CURVE SMOOTH",
"95 848 OFFCURVE",
"76 846 OFFCURVE",
"59 840 CURVE",
"132 -131 LINE",
"136 -137 LINE"
);
}
);
width = 457;
}
);
unicode = 012A;
},
{
glyphname = J;
lastChange = "2021-06-05 20:39:05 +0000";
layers = (
{
anchors = (
{
name = bottom;
position = "{289, -636}";
},
{
name = top;
position = "{289, 1269}";
}
);
background = {
paths = (
{
closed = 1;
nodes = (
"352 -592 OFFCURVE",
"394 -563 OFFCURVE",
"491 -525 CURVE",
"453 -470 OFFCURVE",
"418 -415 OFFCURVE",
"400 -348 CURVE SMOOTH",
"383 -270 OFFCURVE",
"394 -132 OFFCURVE",
"405 -29 CURVE SMOOTH",
"415 79 OFFCURVE",
"428 204 OFFCURVE",
"428 328 CURVE SMOOTH",
"428 438 OFFCURVE",
"418 545 OFFCURVE",
"411 643 CURVE SMOOTH",
"405 722 OFFCURVE",
"402 787 OFFCURVE",
"402 844 CURVE SMOOTH",
"402 1023 OFFCURVE",
"438 1118 OFFCURVE",
"556 1283 CURVE",
"523 1309 LINE",
"467 1232 OFFCURVE",
"407 1159 OFFCURVE",
"337 1090 CURVE SMOOTH",
"226 982 OFFCURVE",
"94 889 OFFCURVE",
"-40 796 CURVE",
"-21 771 LINE",
"37 811 OFFCURVE",
"81 838 OFFCURVE",
"134 838 CURVE SMOOTH",
"334 838 OFFCURVE",
"325 598 OFFCURVE",
"325 408 CURVE SMOOTH",
"325 239 OFFCURVE",
"313 59 OFFCURVE",
"302 -95 CURVE SMOOTH",
"295 -231 OFFCURVE",
"288 -336 OFFCURVE",
"288 -462 CURVE SMOOTH",
"288 -548 OFFCURVE",
"290 -611 OFFCURVE",
"295 -676 CURVE"
);
}
);
};
layerId = "3A120C99-D056-4211-BE1A-9D4BB1803F4A";
paths = (
{
closed = 1;
nodes = (
"352 -592 OFFCURVE",
"394 -563 OFFCURVE",
"491 -525 CURVE",
"453 -470 OFFCURVE",
"418 -415 OFFCURVE",
"400 -348 CURVE SMOOTH",
"383 -270 OFFCURVE",
"394 -132 OFFCURVE",
"405 -29 CURVE SMOOTH",
"415 79 OFFCURVE",
"428 204 OFFCURVE",
"428 328 CURVE SMOOTH",
"428 438 OFFCURVE",
"418 545 OFFCURVE",
"411 643 CURVE SMOOTH",
"405 722 OFFCURVE",
"402 787 OFFCURVE",
"402 844 CURVE SMOOTH",
"402 1023 OFFCURVE",
"438 1118 OFFCURVE",
"556 1283 CURVE",
"523 1309 LINE",
"467 1232 OFFCURVE",
"407 1159 OFFCURVE",
"337 1090 CURVE SMOOTH",
"226 982 OFFCURVE",
"94 889 OFFCURVE",
"-40 796 CURVE",
"-21 771 LINE",
"37 811 OFFCURVE",
"81 838 OFFCURVE",
"134 838 CURVE SMOOTH",
"283 838 OFFCURVE",
"325 743 OFFCURVE",
"325 408 CURVE SMOOTH",
"325 239 OFFCURVE",
"313 59 OFFCURVE",
"302 -95 CURVE SMOOTH",
"295 -231 OFFCURVE",
"288 -336 OFFCURVE",
"288 -462 CURVE SMOOTH",
"288 -548 OFFCURVE",
"290 -611 OFFCURVE",
"295 -676 CURVE"
);
}
);
width = 578;
},
{
anchors = (
{
name = bottom;
position = "{289, -636}";
},
{
name = top;
position = "{289, 1269}";
}
);
associatedMasterId = "3A120C99-D056-4211-BE1A-9D4BB1803F4A";
background = {
paths = (
{
closed = 1;
nodes = (
"352 -592 OFFCURVE",
"394 -563 OFFCURVE",
"491 -525 CURVE",
"453 -470 OFFCURVE",
"418 -415 OFFCURVE",
"400 -348 CURVE SMOOTH",
"383 -270 OFFCURVE",
"394 -132 OFFCURVE",
"405 -29 CURVE SMOOTH",
"415 79 OFFCURVE",
"428 204 OFFCURVE",
"428 328 CURVE SMOOTH",
"428 438 OFFCURVE",
"418 545 OFFCURVE",
"411 643 CURVE SMOOTH",
"405 722 OFFCURVE",
"402 787 OFFCURVE",
"402 844 CURVE SMOOTH",
"402 1023 OFFCURVE",
"438 1118 OFFCURVE",
"556 1283 CURVE",
"523 1309 LINE",
"467 1232 OFFCURVE",
"407 1159 OFFCURVE",
"337 1090 CURVE SMOOTH",
"226 982 OFFCURVE",
"94 889 OFFCURVE",
"-40 796 CURVE",
"-21 771 LINE",
"37 811 OFFCURVE",
"81 838 OFFCURVE",
"134 838 CURVE SMOOTH",
"334 838 OFFCURVE",
"325 598 OFFCURVE",
"325 408 CURVE SMOOTH",
"325 239 OFFCURVE",
"313 59 OFFCURVE",
"302 -95 CURVE SMOOTH",
"295 -231 OFFCURVE",
"288 -336 OFFCURVE",
"288 -462 CURVE SMOOTH",
"288 -548 OFFCURVE",
"290 -611 OFFCURVE",
"295 -676 CURVE"
);
}
);
};
layerId = "BB74B520-7875-47DC-B4D9-484A2827DD9F";
name = "Color 0";
paths = (
{
closed = 1;
nodes = (
"352 -592 OFFCURVE",
"394 -563 OFFCURVE",
"491 -525 CURVE",
"453 -470 OFFCURVE",
"418 -415 OFFCURVE",
"400 -348 CURVE SMOOTH",
"383 -270 OFFCURVE",
"394 -132 OFFCURVE",
"405 -29 CURVE SMOOTH",
"415 79 OFFCURVE",
"428 204 OFFCURVE",
"428 328 CURVE SMOOTH",
"428 438 OFFCURVE",
"418 545 OFFCURVE",
"411 643 CURVE SMOOTH",
"405 722 OFFCURVE",
"402 787 OFFCURVE",
"402 844 CURVE SMOOTH",
"402 1023 OFFCURVE",
"438 1118 OFFCURVE",
"556 1283 CURVE",
"523 1309 LINE",
"467 1232 OFFCURVE",
"407 1159 OFFCURVE",
"337 1090 CURVE SMOOTH",
"226 982 OFFCURVE",
"94 889 OFFCURVE",
"-40 796 CURVE",
"-21 771 LINE",
"37 811 OFFCURVE",
"81 838 OFFCURVE",
"134 838 CURVE SMOOTH",
"283 838 OFFCURVE",
"325 743 OFFCURVE",
"325 408 CURVE SMOOTH",
"325 239 OFFCURVE",
"313 59 OFFCURVE",
"302 -95 CURVE SMOOTH",
"295 -231 OFFCURVE",
"288 -336 OFFCURVE",
"288 -462 CURVE SMOOTH",
"288 -548 OFFCURVE",
"290 -611 OFFCURVE",
"295 -676 CURVE"
);
}
);
width = 578;
},
{
associatedMasterId = "3A120C99-D056-4211-BE1A-9D4BB1803F4A";
background = {
paths = (
{
closed = 1;
nodes = (
"352 -592 OFFCURVE",
"394 -563 OFFCURVE",
"491 -525 CURVE",
"453 -470 OFFCURVE",
"418 -415 OFFCURVE",
"400 -348 CURVE SMOOTH",
"383 -270 OFFCURVE",
"394 -132 OFFCURVE",
"405 -29 CURVE SMOOTH",
"415 79 OFFCURVE",
"428 204 OFFCURVE",
"428 328 CURVE SMOOTH",
"428 438 OFFCURVE",
"418 545 OFFCURVE",
"411 643 CURVE SMOOTH",
"405 722 OFFCURVE",
"402 787 OFFCURVE",
"402 844 CURVE SMOOTH",
"402 1023 OFFCURVE",
"438 1118 OFFCURVE",
"556 1283 CURVE",
"523 1309 LINE",
"467 1232 OFFCURVE",
"407 1159 OFFCURVE",
"337 1090 CURVE SMOOTH",
"226 982 OFFCURVE",
"94 889 OFFCURVE",
"-40 796 CURVE",
"-21 771 LINE",
"37 811 OFFCURVE",
"81 838 OFFCURVE",
"134 838 CURVE SMOOTH",
"334 838 OFFCURVE",
"325 598 OFFCURVE",
"325 408 CURVE SMOOTH",
"325 239 OFFCURVE",
"313 59 OFFCURVE",
"302 -95 CURVE SMOOTH",
"295 -231 OFFCURVE",
"288 -336 OFFCURVE",
"288 -462 CURVE SMOOTH",
"288 -548 OFFCURVE",
"290 -611 OFFCURVE",
"295 -676 CURVE"
);
}
);
};
layerId = "7B93B460-3828-4737-B79B-0C96C81319FD";
name = "Color 3";
paths = (
{
closed = 1;
nodes = (
"288 -336 OFFCURVE",
"295 -231 OFFCURVE",
"302 -95 CURVE SMOOTH",
"313 59 OFFCURVE",
"325 239 OFFCURVE",
"325 408 CURVE SMOOTH",
"325 743 OFFCURVE",
"283 838 OFFCURVE",
"134 838 CURVE SMOOTH",
"81 838 OFFCURVE",
"37 811 OFFCURVE",
"-21 771 CURVE",
"229 601 OFFCURVE",
"229 162 OFFCURVE",
"229 -227 CURVE SMOOTH",
"229 -305 OFFCURVE",
"258 -384 OFFCURVE",
"288 -462 CURVE"
);
}
);
width = 578;
}
);
unicode = 004A;
},
{
glyphname = K;
lastChange = "2021-06-05 20:40:47 +0000";
layers = (
{
anchors = (
{
name = bottom;
position = "{463, -516}";
},
{
name = top;
position = "{463, 1269}";
}
);
layerId = "3A120C99-D056-4211-BE1A-9D4BB1803F4A";
paths = (
{
closed = 1;
nodes = (
"352 -479 OFFCURVE",
"394 -452 OFFCURVE",
"491 -417 CURVE",
"453 -366 OFFCURVE",
"418 -316 OFFCURVE",
"400 -254 CURVE SMOOTH",
"383 -182 OFFCURVE",
"394 -55 OFFCURVE",
"405 40 CURVE SMOOTH",
"411 99 OFFCURVE",
"418 164 OFFCURVE",
"423 231 CURVE",
"480 195 OFFCURVE",
"523 128 OFFCURVE",
"568 59 CURVE SMOOTH",
"609 -4 OFFCURVE",
"665 -90 OFFCURVE",
"724 -90 CURVE SMOOTH",
"744 -90 OFFCURVE",
"766 -81 OFFCURVE",
"791 -63 CURVE SMOOTH",
"848 -23 OFFCURVE",
"921 54 OFFCURVE",
"993 133 CURVE",
"968 163 LINE",
"928 112 OFFCURVE",
"890 66 OFFCURVE",
"861 41 CURVE SMOOTH",
"842 24 OFFCURVE",
"826 17 OFFCURVE",
"812 17 CURVE SMOOTH",
"773 17 OFFCURVE",
"730 88 OFFCURVE",
"690 154 CURVE SMOOTH",
"659 205 OFFCURVE",
"626 255 OFFCURVE",
"586 295 CURVE",
"615 333 OFFCURVE",
"646 377 OFFCURVE",
"677 423 CURVE SMOOTH",
"747 526 OFFCURVE",
"817 640 OFFCURVE",
"886 754 CURVE",
"869 777 LINE",
"776 722 OFFCURVE",
"738 708 OFFCURVE",
"611 683 CURVE",
"618 655 LINE",
"632 655 OFFCURVE",
"645 653 OFFCURVE",
"657 647 CURVE SMOOTH",
"694 631 OFFCURVE",
"698 584 OFFCURVE",
"681 547 CURVE SMOOTH",
"667 515 OFFCURVE",
"643 479 OFFCURVE",
"616 440 CURVE SMOOTH",
"593 406 OFFCURVE",
"566 369 OFFCURVE",
"539 334 CURVE",
"507 355 OFFCURVE",
"471 369 OFFCURVE",
"428 375 CURVE",
"428 474 OFFCURVE",
"418 570 OFFCURVE",
"411 658 CURVE SMOOTH",
"405 731 OFFCURVE",
"402 791 OFFCURVE",
"402 844 CURVE SMOOTH",
"402 1023 OFFCURVE",
"438 1118 OFFCURVE",
"556 1283 CURVE",
"523 1309 LINE",
"467 1232 OFFCURVE",
"407 1159 OFFCURVE",
"337 1090 CURVE SMOOTH",
"226 982 OFFCURVE",
"94 889 OFFCURVE",
"-40 796 CURVE",
"-21 771 LINE",
"37 811 OFFCURVE",
"81 838 OFFCURVE",
"134 838 CURVE SMOOTH",
"283 838 OFFCURVE",
"325 751 OFFCURVE",
"325 442 CURVE SMOOTH",
"325 286 OFFCURVE",
"313 121 OFFCURVE",
"302 -21 CURVE SMOOTH",
"295 -146 OFFCURVE",
"288 -243 OFFCURVE",
"288 -359 CURVE SMOOTH",
"288 -438 OFFCURVE",
"290 -496 OFFCURVE",
"295 -556 CURVE"
);
}
);
width = 926;
},
{
anchors = (
{
name = bottom;
position = "{463, -516}";
},
{
name = top;
position = "{463, 1269}";
}
);
associatedMasterId = "3A120C99-D056-4211-BE1A-9D4BB1803F4A";
layerId = "9DAB8248-172F-48C0-9F18-D5ABCA7E65C5";
name = "Color 0";
paths = (
{
closed = 1;
nodes = (
"352 -479 OFFCURVE",
"394 -452 OFFCURVE",
"491 -417 CURVE",
"453 -366 OFFCURVE",
"418 -316 OFFCURVE",
"400 -254 CURVE SMOOTH",
"383 -182 OFFCURVE",
"394 -55 OFFCURVE",
"405 40 CURVE SMOOTH",
"411 99 OFFCURVE",
"418 164 OFFCURVE",
"423 231 CURVE",
"480 195 OFFCURVE",
"523 128 OFFCURVE",
"568 59 CURVE SMOOTH",
"609 -4 OFFCURVE",
"665 -90 OFFCURVE",
"724 -90 CURVE SMOOTH",
"744 -90 OFFCURVE",
"766 -81 OFFCURVE",
"791 -63 CURVE SMOOTH",
"848 -23 OFFCURVE",
"921 54 OFFCURVE",
"993 133 CURVE",
"968 163 LINE",
"928 112 OFFCURVE",
"890 66 OFFCURVE",
"861 41 CURVE SMOOTH",
"842 24 OFFCURVE",
"826 17 OFFCURVE",
"812 17 CURVE SMOOTH",
"773 17 OFFCURVE",
"730 88 OFFCURVE",
"690 154 CURVE SMOOTH",
"659 205 OFFCURVE",
"626 255 OFFCURVE",
"586 295 CURVE",
"615 333 OFFCURVE",
"646 377 OFFCURVE",
"677 423 CURVE SMOOTH",
"747 526 OFFCURVE",
"817 640 OFFCURVE",
"886 754 CURVE",
"869 777 LINE",
"776 722 OFFCURVE",
"738 708 OFFCURVE",
"611 683 CURVE",
"618 655 LINE",
"632 655 OFFCURVE",
"645 653 OFFCURVE",
"657 647 CURVE SMOOTH",
"694 631 OFFCURVE",
"698 584 OFFCURVE",
"681 547 CURVE SMOOTH",
"667 515 OFFCURVE",
"643 479 OFFCURVE",
"616 440 CURVE SMOOTH",
"593 406 OFFCURVE",
"566 369 OFFCURVE",
"539 334 CURVE",
"507 355 OFFCURVE",
"471 369 OFFCURVE",
"428 375 CURVE",
"428 474 OFFCURVE",
"418 570 OFFCURVE",
"411 658 CURVE SMOOTH",
"405 731 OFFCURVE",
"402 791 OFFCURVE",
"402 844 CURVE SMOOTH",
"402 1023 OFFCURVE",
"438 1118 OFFCURVE",
"556 1283 CURVE",
"523 1309 LINE",
"467 1232 OFFCURVE",
"407 1159 OFFCURVE",
"337 1090 CURVE SMOOTH",
"226 982 OFFCURVE",
"94 889 OFFCURVE",
"-40 796 CURVE",
"-21 771 LINE",
"37 811 OFFCURVE",
"81 838 OFFCURVE",
"134 838 CURVE SMOOTH",
"283 838 OFFCURVE",
"325 751 OFFCURVE",
"325 442 CURVE SMOOTH",
"325 286 OFFCURVE",
"313 121 OFFCURVE",
"302 -21 CURVE SMOOTH",
"295 -146 OFFCURVE",
"288 -243 OFFCURVE",
"288 -359 CURVE SMOOTH",
"288 -438 OFFCURVE",
"290 -496 OFFCURVE",
"295 -556 CURVE"
);
}
);
width = 926;
},
{
associatedMasterId = "3A120C99-D056-4211-BE1A-9D4BB1803F4A";
layerId = "C7A35F29-1FBB-48CB-AFC6-FDC024660ACD";
name = "Color 4";
paths = (
{
closed = 1;
nodes = (
"491 -264 OFFCURVE",
"513 -123 OFFCURVE",
"645 -45 CURVE",
"616 -15 OFFCURVE",
"590 25 OFFCURVE",
"568 59 CURVE SMOOTH",
"523 128 OFFCURVE",
"480 195 OFFCURVE",
"423 231 CURVE",
"418 164 OFFCURVE",
"411 99 OFFCURVE",
"405 40 CURVE SMOOTH",
"394 -55 OFFCURVE",
"383 -182 OFFCURVE",
"400 -254 CURVE SMOOTH",
"418 -316 OFFCURVE",
"453 -366 OFFCURVE",
"491 -417 CURVE"
);
},
{
closed = 1;
nodes = (
"566 369 OFFCURVE",
"593 406 OFFCURVE",
"616 440 CURVE SMOOTH",
"643 479 OFFCURVE",
"667 515 OFFCURVE",
"681 547 CURVE SMOOTH",
"698 584 OFFCURVE",
"694 631 OFFCURVE",
"657 647 CURVE SMOOTH",
"645 653 OFFCURVE",
"632 655 OFFCURVE",
"618 655 CURVE",
"611 683 LINE",
"546 653 OFFCURVE",
"480 649 OFFCURVE",
"411 658 CURVE",
"418 570 OFFCURVE",
"428 474 OFFCURVE",
"428 375 CURVE",
"471 369 OFFCURVE",
"507 355 OFFCURVE",
"539 334 CURVE"
);
}
);
width = 926;
}
);
unicode = 004B;
},
{
glyphname = L;
lastChange = "2021-06-05 20:41:39 +0000";
layers = (
{
anchors = (
{
name = bottom;
position = "{345, -141}";
},
{
name = center;
position = "{345, 635}";
},
{
name = top;
position = "{345, 1269}";
}
);
layerId = "3A120C99-D056-4211-BE1A-9D4BB1803F4A";
paths = (
{
closed = 1;
nodes = (
"404 -181 OFFCURVE",
"490 -123 OFFCURVE",
"571 -43 CURVE SMOOTH",
"622 7 OFFCURVE",
"681 81 OFFCURVE",
"740 159 CURVE",
"720 184 LINE",
"600 48 OFFCURVE",
"492 -73 OFFCURVE",
"378 -73 CURVE SMOOTH",
"257 -73 OFFCURVE",
"166 41 OFFCURVE",
"166 160 CURVE SMOOTH",
"166 220 OFFCURVE",
"186 313 OFFCURVE",
"202 379 CURVE SMOOTH",
"219 447 OFFCURVE",
"236 523 OFFCURVE",
"247 599 CURVE SMOOTH",
"265 724 OFFCURVE",
"260 848 OFFCURVE",
"272 972 CURVE SMOOTH",
"283 1085 OFFCURVE",
"306 1184 OFFCURVE",
"336 1283 CURVE",
"318 1300 LINE",
"273 1229 OFFCURVE",
"229 1159 OFFCURVE",
"176 1095 CURVE SMOOTH",
"123 1030 OFFCURVE",
"61 970 OFFCURVE",
"0 916 CURVE",
"25 889 LINE",
"48 911 OFFCURVE",
"83 931 OFFCURVE",
"106 931 CURVE SMOOTH",
"159 931 OFFCURVE",
"175 810 OFFCURVE",
"175 752 CURVE SMOOTH",
"175 712 OFFCURVE",
"172 664 OFFCURVE",
"157 594 CURVE SMOOTH",
"135 492 OFFCURVE",
"88 341 OFFCURVE",
"61 237 CURVE SMOOTH",
"46 180 OFFCURVE",
"38 139 OFFCURVE",
"38 104 CURVE SMOOTH",
"38 38 OFFCURVE",
"76 -38 OFFCURVE",
"131 -98 CURVE SMOOTH",
"177 -148 OFFCURVE",
"234 -181 OFFCURVE",
"306 -181 CURVE SMOOTH"
);
}
);
width = 690;
},
{
anchors = (
{
name = bottom;
position = "{345, -141}";
},
{
name = center;
position = "{345, 635}";
},
{
name = top;
position = "{345, 1269}";
}
);
associatedMasterId = "3A120C99-D056-4211-BE1A-9D4BB1803F4A";
layerId = "72548729-6014-4401-9C7F-4BE3C1AE80ED";
name = "Color 0";
paths = (
{
closed = 1;
nodes = (
"404 -181 OFFCURVE",
"490 -123 OFFCURVE",
"571 -43 CURVE SMOOTH",
"622 7 OFFCURVE",
"681 81 OFFCURVE",
"740 159 CURVE",
"720 184 LINE",
"600 48 OFFCURVE",
"492 -73 OFFCURVE",
"378 -73 CURVE SMOOTH",
"257 -73 OFFCURVE",
"166 41 OFFCURVE",
"166 160 CURVE SMOOTH",
"166 220 OFFCURVE",
"186 313 OFFCURVE",
"202 379 CURVE SMOOTH",
"219 447 OFFCURVE",
"236 523 OFFCURVE",
"247 599 CURVE SMOOTH",
"265 724 OFFCURVE",
"260 848 OFFCURVE",
"272 972 CURVE SMOOTH",
"283 1085 OFFCURVE",
"306 1184 OFFCURVE",
"336 1283 CURVE",
"318 1300 LINE",
"273 1229 OFFCURVE",
"229 1159 OFFCURVE",
"176 1095 CURVE SMOOTH",
"123 1030 OFFCURVE",
"61 970 OFFCURVE",
"0 916 CURVE",
"25 889 LINE",
"48 911 OFFCURVE",
"83 931 OFFCURVE",
"106 931 CURVE SMOOTH",
"159 931 OFFCURVE",
"175 810 OFFCURVE",
"175 752 CURVE SMOOTH",
"175 712 OFFCURVE",
"172 664 OFFCURVE",
"157 594 CURVE SMOOTH",
"135 492 OFFCURVE",
"88 341 OFFCURVE",
"61 237 CURVE SMOOTH",
"46 180 OFFCURVE",
"38 139 OFFCURVE",
"38 104 CURVE SMOOTH",
"38 38 OFFCURVE",
"76 -38 OFFCURVE",
"131 -98 CURVE SMOOTH",
"177 -148 OFFCURVE",
"234 -181 OFFCURVE",
"306 -181 CURVE SMOOTH"
);
}
);
width = 690;
},
{
associatedMasterId = "3A120C99-D056-4211-BE1A-9D4BB1803F4A";
layerId = "A8E1F119-1C9D-4E7F-8FC6-4FBE9897B753";
name = "Color 2";
paths = (
{
closed = 1;
nodes = (
"492 -73 OFFCURVE",
"600 48 OFFCURVE",
"720 184 CURVE",
"594 67 OFFCURVE",
"497 14 OFFCURVE",
"427 14 CURVE SMOOTH",
"334 14 OFFCURVE",
"290 108 OFFCURVE",
"290 264 CURVE SMOOTH",
"290 318 OFFCURVE",
"296 379 OFFCURVE",
"306 447 CURVE SMOOTH",
"336 645 OFFCURVE",
"359 809 OFFCURVE",
"359 982 CURVE SMOOTH",
"359 1077 OFFCURVE",
"352 1175 OFFCURVE",
"336 1283 CURVE",
"306 1184 OFFCURVE",
"283 1085 OFFCURVE",
"272 972 CURVE SMOOTH",
"260 848 OFFCURVE",
"265 724 OFFCURVE",
"247 599 CURVE SMOOTH",
"236 523 OFFCURVE",
"219 447 OFFCURVE",
"202 379 CURVE SMOOTH",
"186 313 OFFCURVE",
"166 220 OFFCURVE",
"166 160 CURVE SMOOTH",
"166 41 OFFCURVE",
"257 -73 OFFCURVE",
"378 -73 CURVE SMOOTH"
);
}
);
width = 690;
}
);
unicode = 004C;
},
{
glyphname = M;
lastChange = "2021-06-05 20:42:14 +0000";
layers = (
{
anchors = (
{
name = bottom;
position = "{652, -267}";
},
{
name = top;
position = "{722, 753}";
}
);
layerId = "3A120C99-D056-4211-BE1A-9D4BB1803F4A";
paths = (
{
closed = 1;
nodes = (
"713 -236 OFFCURVE",
"762 -196 OFFCURVE",
"846 -139 CURVE",
"835 -123 LINE",
"813 -139 OFFCURVE",
"788 -155 OFFCURVE",
"777 -155 CURVE SMOOTH",
"753 -155 OFFCURVE",
"756 -102 OFFCURVE",
"756 -72 CURVE SMOOTH",
"756 -39 LINE",
"782 143 OFFCURVE",
"805 318 OFFCURVE",
"832 435 CURVE SMOOTH",
"864 573 OFFCURVE",
"897 634 OFFCURVE",
"921 666 CURVE SMOOTH",
"931 679 OFFCURVE",
"938 685 OFFCURVE",
"947 685 CURVE SMOOTH",
"957 685 OFFCURVE",
"970 673 OFFCURVE",
"988 640 CURVE SMOOTH",
"1020 582 OFFCURVE",
"1072 468 OFFCURVE",
"1097 379 CURVE SMOOTH",
"1114 319 OFFCURVE",
"1122 272 OFFCURVE",
"1122 218 CURVE SMOOTH",
"1122 142 OFFCURVE",
"1105 -30 OFFCURVE",
"1080 -135 CURVE SMOOTH",
"1062 -210 OFFCURVE",
"1050 -239 OFFCURVE",
"1032 -269 CURVE",
"1046 -284 LINE",
"1078 -258 OFFCURVE",
"1111 -230 OFFCURVE",
"1145 -204 CURVE SMOOTH",
"1179 -178 OFFCURVE",
"1216 -153 OFFCURVE",
"1253 -129 CURVE",
"1240 -103 LINE",
"1222 -123 OFFCURVE",
"1203 -139 OFFCURVE",
"1190 -147 CURVE",
"1166 -155 OFFCURVE",
"1160 -121 OFFCURVE",
"1160 -95 CURVE SMOOTH",
"1160 -58 OFFCURVE",
"1173 16 OFFCURVE",
"1196 115 CURVE SMOOTH",
"1212 184 OFFCURVE",
"1225 261 OFFCURVE",
"1225 329 CURVE SMOOTH",
"1225 429 OFFCURVE",
"1190 529 OFFCURVE",
"1150 613 CURVE SMOOTH",
"1114 689 OFFCURVE",
"1054 793 OFFCURVE",
"1005 793 CURVE SMOOTH",
"950 793 OFFCURVE",
"832 681 OFFCURVE",
"785 541 CURVE SMOOTH",
"763 474 OFFCURVE",
"747 400 OFFCURVE",
"738 328 CURVE",
"733 382 OFFCURVE",
"726 436 OFFCURVE",
"720 489 CURVE SMOOTH",
"703 625 OFFCURVE",
"675 742 OFFCURVE",
"623 797 CURVE SMOOTH",
"617 804 OFFCURVE",
"611 808 OFFCURVE",
"605 808 CURVE SMOOTH",
"591 808 OFFCURVE",
"574 797 OFFCURVE",
"540 769 CURVE SMOOTH",
"488 727 OFFCURVE",
"395 634 OFFCURVE",
"303 545 CURVE SMOOTH",
"221 466 OFFCURVE",
"128 364 OFFCURVE",
"51 298 CURVE SMOOTH",
"-26 232 OFFCURVE",
"-89 187 OFFCURVE",
"-156 144 CURVE",
"-143 116 LINE",
"-94 143 OFFCURVE",
"-45 168 OFFCURVE",
"22 223 CURVE",
"88 166 OFFCURVE",
"127 113 OFFCURVE",
"168 23 CURVE SMOOTH",
"219 -88 OFFCURVE",
"250 -138 OFFCURVE",
"287 -168 CURVE SMOOTH",
"299 -178 OFFCURVE",
"313 -181 OFFCURVE",
"325 -181 CURVE SMOOTH",
"343 -181 OFFCURVE",
"359 -173 OFFCURVE",
"380 -161 CURVE SMOOTH",
"474 -106 OFFCURVE",
"542 -33 OFFCURVE",
"658 141 CURVE",
"659 135 OFFCURVE",
"659 129 OFFCURVE",
"660 123 CURVE SMOOTH",
"667 57 OFFCURVE",
"669 -4 OFFCURVE",
"669 -56 CURVE SMOOTH",
"669 -142 OFFCURVE",
"664 -208 OFFCURVE",
"623 -279 CURVE",
"639 -297 LINE"
);
},
{
closed = 1;
nodes = (
"398 -86 OFFCURVE",
"383 -75 OFFCURVE",
"366 -48 CURVE SMOOTH",
"338 -3 OFFCURVE",
"317 33 OFFCURVE",
"289 91 CURVE SMOOTH",
"247 177 OFFCURVE",
"202 237 OFFCURVE",
"122 311 CURVE",
"182 368 OFFCURVE",
"252 438 OFFCURVE",
"314 504 CURVE SMOOTH",
"358 551 OFFCURVE",
"402 595 OFFCURVE",
"435 627 CURVE SMOOTH",
"484 674 OFFCURVE",
"510 694 OFFCURVE",
"524 694 CURVE SMOOTH",
"536 694 OFFCURVE",
"542 684 OFFCURVE",
"550 668 CURVE SMOOTH",
"570 627 OFFCURVE",
"593 546 OFFCURVE",
"613 446 CURVE SMOOTH",
"630 363 OFFCURVE",
"644 268 OFFCURVE",
"654 176 CURVE",
"552 35 OFFCURVE",
"495 -32 OFFCURVE",
"439 -73 CURVE SMOOTH",
"427 -82 OFFCURVE",
"419 -86 OFFCURVE",
"411 -86 CURVE SMOOTH"
);
}
);
width = 1303;
},
{
anchors = (
{
name = bottom;
position = "{652, -267}";
},
{
name = top;
position = "{722, 753}";
}
);
associatedMasterId = "3A120C99-D056-4211-BE1A-9D4BB1803F4A";
layerId = "B8854906-6202-45D3-A654-407D47FDF37C";
name = "Color 0";
paths = (
{
closed = 1;
nodes = (
"713 -236 OFFCURVE",
"762 -196 OFFCURVE",
"846 -139 CURVE",
"835 -123 LINE",
"813 -139 OFFCURVE",
"788 -155 OFFCURVE",
"777 -155 CURVE SMOOTH",
"753 -155 OFFCURVE",
"756 -102 OFFCURVE",
"756 -72 CURVE SMOOTH",
"756 -39 LINE",
"782 143 OFFCURVE",
"805 318 OFFCURVE",
"832 435 CURVE SMOOTH",
"864 573 OFFCURVE",
"897 634 OFFCURVE",
"921 666 CURVE SMOOTH",
"931 679 OFFCURVE",
"938 685 OFFCURVE",
"947 685 CURVE SMOOTH",
"957 685 OFFCURVE",
"970 673 OFFCURVE",
"988 640 CURVE SMOOTH",
"1020 582 OFFCURVE",
"1072 468 OFFCURVE",
"1097 379 CURVE SMOOTH",
"1114 319 OFFCURVE",
"1122 272 OFFCURVE",
"1122 218 CURVE SMOOTH",
"1122 142 OFFCURVE",
"1105 -30 OFFCURVE",
"1080 -135 CURVE SMOOTH",
"1062 -210 OFFCURVE",
"1050 -239 OFFCURVE",
"1032 -269 CURVE",
"1046 -284 LINE",
"1078 -258 OFFCURVE",
"1111 -230 OFFCURVE",
"1145 -204 CURVE SMOOTH",
"1179 -178 OFFCURVE",
"1216 -153 OFFCURVE",
"1253 -129 CURVE",
"1240 -103 LINE",
"1222 -123 OFFCURVE",
"1203 -139 OFFCURVE",
"1190 -147 CURVE",
"1166 -155 OFFCURVE",
"1160 -121 OFFCURVE",
"1160 -95 CURVE SMOOTH",
"1160 -58 OFFCURVE",
"1173 16 OFFCURVE",
"1196 115 CURVE SMOOTH",
"1212 184 OFFCURVE",
"1225 261 OFFCURVE",
"1225 329 CURVE SMOOTH",
"1225 429 OFFCURVE",
"1190 529 OFFCURVE",
"1150 613 CURVE SMOOTH",
"1114 689 OFFCURVE",
"1054 793 OFFCURVE",
"1005 793 CURVE SMOOTH",
"950 793 OFFCURVE",
"832 681 OFFCURVE",
"785 541 CURVE SMOOTH",
"763 474 OFFCURVE",
"747 400 OFFCURVE",
"738 328 CURVE",
"733 382 OFFCURVE",
"726 436 OFFCURVE",
"720 489 CURVE SMOOTH",
"703 625 OFFCURVE",
"675 742 OFFCURVE",
"623 797 CURVE SMOOTH",
"617 804 OFFCURVE",
"611 808 OFFCURVE",
"605 808 CURVE SMOOTH",
"591 808 OFFCURVE",
"574 797 OFFCURVE",
"540 769 CURVE SMOOTH",
"488 727 OFFCURVE",
"395 634 OFFCURVE",
"303 545 CURVE SMOOTH",
"221 466 OFFCURVE",
"128 364 OFFCURVE",
"51 298 CURVE SMOOTH",
"-26 232 OFFCURVE",
"-89 187 OFFCURVE",
"-156 144 CURVE",
"-143 116 LINE",
"-94 143 OFFCURVE",
"-45 168 OFFCURVE",
"22 223 CURVE",
"88 166 OFFCURVE",
"127 113 OFFCURVE",
"168 23 CURVE SMOOTH",
"219 -88 OFFCURVE",
"250 -138 OFFCURVE",
"287 -168 CURVE SMOOTH",
"299 -178 OFFCURVE",
"313 -181 OFFCURVE",
"325 -181 CURVE SMOOTH",
"343 -181 OFFCURVE",
"359 -173 OFFCURVE",
"380 -161 CURVE SMOOTH",
"474 -106 OFFCURVE",
"542 -33 OFFCURVE",
"658 141 CURVE",
"659 135 OFFCURVE",
"659 129 OFFCURVE",
"660 123 CURVE SMOOTH",
"667 57 OFFCURVE",
"669 -4 OFFCURVE",
"669 -56 CURVE SMOOTH",
"669 -142 OFFCURVE",
"664 -208 OFFCURVE",
"623 -279 CURVE",
"639 -297 LINE"
);
},
{
closed = 1;
nodes = (
"398 -86 OFFCURVE",
"383 -75 OFFCURVE",
"366 -48 CURVE SMOOTH",
"338 -3 OFFCURVE",
"317 33 OFFCURVE",
"289 91 CURVE SMOOTH",
"247 177 OFFCURVE",
"202 237 OFFCURVE",
"122 311 CURVE",
"182 368 OFFCURVE",
"252 438 OFFCURVE",
"314 504 CURVE SMOOTH",
"358 551 OFFCURVE",
"402 595 OFFCURVE",
"435 627 CURVE SMOOTH",
"484 674 OFFCURVE",
"510 694 OFFCURVE",
"524 694 CURVE SMOOTH",
"536 694 OFFCURVE",
"542 684 OFFCURVE",
"550 668 CURVE SMOOTH",
"570 627 OFFCURVE",
"593 546 OFFCURVE",
"613 446 CURVE SMOOTH",
"630 363 OFFCURVE",
"644 268 OFFCURVE",
"654 176 CURVE",
"552 35 OFFCURVE",
"495 -32 OFFCURVE",
"439 -73 CURVE SMOOTH",
"427 -82 OFFCURVE",
"419 -86 OFFCURVE",
"411 -86 CURVE SMOOTH"
);
}
);
width = 1303;
},
{
associatedMasterId = "3A120C99-D056-4211-BE1A-9D4BB1803F4A";
layerId = "9D4B0BCC-F9C7-4F35-996F-7ECC366E6D56";
name = "Color 1";
paths = (
{
closed = 1;
nodes = (
"419 -86 OFFCURVE",
"427 -82 OFFCURVE",
"439 -73 CURVE SMOOTH",
"495 -32 OFFCURVE",
"552 35 OFFCURVE",
"654 176 CURVE",
"644 268 OFFCURVE",
"630 363 OFFCURVE",
"613 446 CURVE SMOOTH",
"593 546 OFFCURVE",
"570 627 OFFCURVE",
"550 668 CURVE SMOOTH",
"542 684 OFFCURVE",
"536 694 OFFCURVE",
"524 694 CURVE SMOOTH",
"510 694 OFFCURVE",
"484 674 OFFCURVE",
"435 627 CURVE SMOOTH",
"402 595 OFFCURVE",
"358 551 OFFCURVE",
"314 504 CURVE SMOOTH",
"252 438 OFFCURVE",
"182 368 OFFCURVE",
"122 311 CURVE",
"202 237 OFFCURVE",
"247 177 OFFCURVE",
"289 91 CURVE SMOOTH",
"317 33 OFFCURVE",
"338 -3 OFFCURVE",
"366 -48 CURVE SMOOTH",
"383 -75 OFFCURVE",
"398 -86 OFFCURVE",
"411 -86 CURVE SMOOTH"
);
}
);
width = 1303;
},
{
associatedMasterId = "3A120C99-D056-4211-BE1A-9D4BB1803F4A";
layerId = "820806A0-6EA7-4ED8-8C36-0F450A5A26E7";
name = "Color 4";
paths = (
{
closed = 1;
nodes = (
"788 -155 OFFCURVE",
"813 -139 OFFCURVE",
"835 -123 CURVE",
"917 -108 OFFCURVE",
"998 -110 OFFCURVE",
"1080 -135 CURVE",
"1105 -30 OFFCURVE",
"1122 142 OFFCURVE",
"1122 218 CURVE SMOOTH",
"1122 272 OFFCURVE",
"1114 319 OFFCURVE",
"1097 379 CURVE SMOOTH",
"1072 468 OFFCURVE",
"1020 582 OFFCURVE",
"988 640 CURVE SMOOTH",
"970 673 OFFCURVE",
"957 685 OFFCURVE",
"947 685 CURVE SMOOTH",
"938 685 OFFCURVE",
"931 679 OFFCURVE",
"921 666 CURVE SMOOTH",
"897 634 OFFCURVE",
"864 573 OFFCURVE",
"832 435 CURVE SMOOTH",
"805 318 OFFCURVE",
"782 143 OFFCURVE",
"756 -39 CURVE",
"756 -72 LINE SMOOTH",
"756 -102 OFFCURVE",
"753 -155 OFFCURVE",
"777 -155 CURVE SMOOTH"
);
}
);
width = 1303;
}
);
unicode = 004D;
},
{
glyphname = N;
lastChange = "2021-06-05 20:43:08 +0000";
layers = (
{
anchors = (
{
name = bottom;
position = "{408, -240}";
},
{
name = top;
position = "{408, 763}";
}
);
layerId = "3A120C99-D056-4211-BE1A-9D4BB1803F4A";
paths = (
{
closed = 1;
nodes = (
"648 -304 OFFCURVE",
"700 -253 OFFCURVE",
"728 -211 CURVE",
"705 -207 OFFCURVE",
"685 -202 OFFCURVE",
"695 -178 CURVE SMOOTH",
"695 -163 OFFCURVE",
"699 -136 OFFCURVE",
"709 -87 CURVE SMOOTH",
"728 7 OFFCURVE",
"743 115 OFFCURVE",
"757 231 CURVE SMOOTH",
"762 275 OFFCURVE",
"765 319 OFFCURVE",
"765 361 CURVE SMOOTH",
"765 426 OFFCURVE",
"758 489 OFFCURVE",
"744 549 CURVE SMOOTH",
"720 645 OFFCURVE",
"676 730 OFFCURVE",
"638 774 CURVE SMOOTH",
"622 791 OFFCURVE",
"601 803 OFFCURVE",
"580 803 CURVE SMOOTH",
"557 803 OFFCURVE",
"529 779 OFFCURVE",
"490 724 CURVE SMOOTH",
"434 645 OFFCURVE",
"354 496 OFFCURVE",
"267 336 CURVE",
"266 398 OFFCURVE",
"264 457 OFFCURVE",
"258 504 CURVE SMOOTH",
"254 533 OFFCURVE",
"250 560 OFFCURVE",
"243 583 CURVE SMOOTH",
"232 619 OFFCURVE",
"232 647 OFFCURVE",
"232 670 CURVE SMOOTH",
"232 714 OFFCURVE",
"245 747 OFFCURVE",
"271 815 CURVE",
"259 826 LINE",
"155 677 OFFCURVE",
"117 631 OFFCURVE",
"-20 502 CURVE",
"-7 486 LINE",
"22 512 OFFCURVE",
"60 539 OFFCURVE",
"84 539 CURVE SMOOTH",
"124 539 OFFCURVE",
"157 452 OFFCURVE",
"171 375 CURVE SMOOTH",
"182 316 OFFCURVE",
"188 249 OFFCURVE",
"192 178 CURVE SMOOTH",
"195 131 OFFCURVE",
"198 81 OFFCURVE",
"198 33 CURVE SMOOTH",
"198 6 OFFCURVE",
"197 -21 OFFCURVE",
"194 -46 CURVE SMOOTH",
"186 -119 OFFCURVE",
"167 -183 OFFCURVE",
"147 -246 CURVE",
"183 -259 LINE",
"241 -176 OFFCURVE",
"270 -55 OFFCURVE",
"291 66 CURVE SMOOTH",
"306 154 OFFCURVE",
"325 245 OFFCURVE",
"351 340 CURVE SMOOTH",
"396 505 OFFCURVE",
"475 685 OFFCURVE",
"508 685 CURVE SMOOTH",
"538 685 OFFCURVE",
"615 570 OFFCURVE",
"644 463 CURVE SMOOTH",
"664 389 OFFCURVE",
"669 302 OFFCURVE",
"669 212 CURVE SMOOTH",
"669 130 OFFCURVE",
"662 -13 OFFCURVE",
"650 -108 CURVE SMOOTH",
"642 -166 OFFCURVE",
"637 -191 OFFCURVE",
"630 -208 CURVE SMOOTH",
"623 -224 OFFCURVE",
"615 -237 OFFCURVE",
"608 -254 CURVE SMOOTH",
"605 -262 OFFCURVE",
"603 -271 OFFCURVE",
"603 -279 CURVE SMOOTH",
"603 -293 OFFCURVE",
"609 -304 OFFCURVE",
"624 -304 CURVE SMOOTH"
);
}
);
width = 815;
},
{
anchors = (
{
name = bottom;
position = "{408, -240}";
},
{
name = top;
position = "{408, 763}";
}
);
associatedMasterId = "3A120C99-D056-4211-BE1A-9D4BB1803F4A";
layerId = "E96F8D0D-981B-4915-98C2-BC887B54FC0E";
name = "Color 0";
paths = (
{
closed = 1;
nodes = (
"648 -304 OFFCURVE",
"700 -253 OFFCURVE",
"728 -211 CURVE",
"705 -207 OFFCURVE",
"685 -202 OFFCURVE",
"695 -178 CURVE SMOOTH",
"695 -163 OFFCURVE",
"699 -136 OFFCURVE",
"709 -87 CURVE SMOOTH",
"728 7 OFFCURVE",
"743 115 OFFCURVE",
"757 231 CURVE SMOOTH",
"762 275 OFFCURVE",
"765 319 OFFCURVE",
"765 361 CURVE SMOOTH",
"765 426 OFFCURVE",
"758 489 OFFCURVE",
"744 549 CURVE SMOOTH",
"720 645 OFFCURVE",
"676 730 OFFCURVE",
"638 774 CURVE SMOOTH",
"622 791 OFFCURVE",
"601 803 OFFCURVE",
"580 803 CURVE SMOOTH",
"557 803 OFFCURVE",
"529 779 OFFCURVE",
"490 724 CURVE SMOOTH",
"434 645 OFFCURVE",
"354 496 OFFCURVE",
"267 336 CURVE",
"266 398 OFFCURVE",
"264 457 OFFCURVE",
"258 504 CURVE SMOOTH",
"254 533 OFFCURVE",
"250 560 OFFCURVE",
"243 583 CURVE SMOOTH",
"232 619 OFFCURVE",
"232 647 OFFCURVE",
"232 670 CURVE SMOOTH",
"232 714 OFFCURVE",
"245 747 OFFCURVE",
"271 815 CURVE",
"259 826 LINE",
"155 677 OFFCURVE",
"117 631 OFFCURVE",
"-20 502 CURVE",
"-7 486 LINE",
"22 512 OFFCURVE",
"60 539 OFFCURVE",
"84 539 CURVE SMOOTH",
"124 539 OFFCURVE",
"157 452 OFFCURVE",
"171 375 CURVE SMOOTH",
"182 316 OFFCURVE",
"188 249 OFFCURVE",
"192 178 CURVE SMOOTH",
"195 131 OFFCURVE",
"198 81 OFFCURVE",
"198 33 CURVE SMOOTH",
"198 6 OFFCURVE",
"197 -21 OFFCURVE",
"194 -46 CURVE SMOOTH",
"186 -119 OFFCURVE",
"167 -183 OFFCURVE",
"147 -246 CURVE",
"183 -259 LINE",
"241 -176 OFFCURVE",
"270 -55 OFFCURVE",
"291 66 CURVE SMOOTH",
"306 154 OFFCURVE",
"325 245 OFFCURVE",
"351 340 CURVE SMOOTH",
"396 505 OFFCURVE",
"475 685 OFFCURVE",
"508 685 CURVE SMOOTH",
"538 685 OFFCURVE",
"615 570 OFFCURVE",
"644 463 CURVE SMOOTH",
"664 389 OFFCURVE",
"669 302 OFFCURVE",
"669 212 CURVE SMOOTH",
"669 130 OFFCURVE",
"662 -13 OFFCURVE",
"650 -108 CURVE SMOOTH",
"642 -166 OFFCURVE",
"637 -191 OFFCURVE",
"630 -208 CURVE SMOOTH",
"623 -224 OFFCURVE",
"615 -237 OFFCURVE",
"608 -254 CURVE SMOOTH",
"605 -262 OFFCURVE",
"603 -271 OFFCURVE",
"603 -279 CURVE SMOOTH",
"603 -293 OFFCURVE",
"609 -304 OFFCURVE",
"624 -304 CURVE SMOOTH"
);
}
);
width = 815;
},
{
associatedMasterId = "3A120C99-D056-4211-BE1A-9D4BB1803F4A";
layerId = "63F4E1AD-BDE3-44DF-9153-513B0CA54999";
name = "Color 2";
paths = (
{
closed = 1;
nodes = (
"603 -271 OFFCURVE",
"605 -262 OFFCURVE",
"608 -254 CURVE SMOOTH",
"615 -237 OFFCURVE",
"623 -224 OFFCURVE",
"630 -208 CURVE SMOOTH",
"637 -191 OFFCURVE",
"642 -166 OFFCURVE",
"650 -108 CURVE SMOOTH",
"662 -13 OFFCURVE",
"669 130 OFFCURVE",
"669 212 CURVE SMOOTH",
"669 302 OFFCURVE",
"664 389 OFFCURVE",
"644 463 CURVE SMOOTH",
"615 570 OFFCURVE",
"538 685 OFFCURVE",
"508 685 CURVE SMOOTH",
"475 685 OFFCURVE",
"396 505 OFFCURVE",
"351 340 CURVE SMOOTH",
"325 245 OFFCURVE",
"306 154 OFFCURVE",
"291 66 CURVE SMOOTH",
"270 -55 OFFCURVE",
"241 -176 OFFCURVE",
"183 -259 CURVE",
"351 -129 OFFCURVE",
"496 -114 OFFCURVE",
"603 -279 CURVE"
);
}
);
width = 815;
}
);
unicode = 004E;
},
{
glyphname = Ntilde;
lastChange = "2021-06-05 21:16:54 +0000";
layers = (
{
components = (
{
name = N;
},
{
name = tildecomb;
transform = "{1, 0, 0, 1, 1053, 162}";
}
);
layerId = "3A120C99-D056-4211-BE1A-9D4BB1803F4A";
width = 815;
},
{
associatedMasterId = "3A120C99-D056-4211-BE1A-9D4BB1803F4A";
components = (
{
name = N;
},
{
name = tildecomb;
transform = "{1, 0, 0, 1, 1053, 162}";
}
);
layerId = "404A3F42-419A-4F76-93C3-87AADFB39050";
name = "Color 0";
width = 815;
},
{
associatedMasterId = "3A120C99-D056-4211-BE1A-9D4BB1803F4A";
layerId = "BAD936FF-0AC4-40B6-8697-AE1789026C53";
name = "Color 1";
paths = (
{
closed = 1;
nodes = (
"603 -271 OFFCURVE",
"605 -262 OFFCURVE",
"608 -254 CURVE SMOOTH",
"615 -237 OFFCURVE",
"623 -224 OFFCURVE",
"630 -208 CURVE SMOOTH",
"637 -191 OFFCURVE",
"642 -166 OFFCURVE",
"650 -108 CURVE SMOOTH",
"662 -13 OFFCURVE",
"669 130 OFFCURVE",
"669 212 CURVE SMOOTH",
"669 302 OFFCURVE",
"664 389 OFFCURVE",
"644 463 CURVE SMOOTH",
"615 570 OFFCURVE",
"538 685 OFFCURVE",
"508 685 CURVE SMOOTH",
"475 685 OFFCURVE",
"396 505 OFFCURVE",
"351 340 CURVE SMOOTH",
"325 245 OFFCURVE",
"306 154 OFFCURVE",
"291 66 CURVE SMOOTH",
"270 -55 OFFCURVE",
"241 -176 OFFCURVE",
"183 -259 CURVE",
"351 -129 OFFCURVE",
"496 -114 OFFCURVE",
"603 -279 CURVE"
);
}
);
width = 815;
}
);
unicode = 00D1;
},
{
glyphname = O;
lastChange = "2021-06-05 21:15:25 +0000";
layers = (
{
anchors = (
{
name = bottom;
position = "{435, -140}";
},
{
name = center;
position = "{505, 418}";
},
{
name = ogonek;
position = "{782, 10}";
},
{
name = top;
position = "{555, 861}";
}
);
layerId = "3A120C99-D056-4211-BE1A-9D4BB1803F4A";
paths = (
{
closed = 1;
nodes = (
"521 -176 OFFCURVE",
"621 -46 OFFCURVE",
"718 135 CURVE SMOOTH",
"784 258 OFFCURVE",
"819 386 OFFCURVE",
"819 493 CURVE SMOOTH",
"819 630 OFFCURVE",
"750 789 OFFCURVE",
"641 874 CURVE SMOOTH",
"619 891 OFFCURVE",
"597 901 OFFCURVE",
"574 901 CURVE SMOOTH",
"535 901 OFFCURVE",
"490 875 OFFCURVE",
"423 809 CURVE SMOOTH",
"313 700 OFFCURVE",
"147 485 OFFCURVE",
"-20 269 CURVE",
"0 245 LINE",
"30 268 OFFCURVE",
"61 284 OFFCURVE",
"95 284 CURVE SMOOTH",
"157 284 OFFCURVE",
"241 198 OFFCURVE",
"277 99 CURVE SMOOTH",
"313 -1 OFFCURVE",
"379 -176 OFFCURVE",
"443 -176 CURVE SMOOTH"
);
},
{
closed = 1;
nodes = (
"490 -44 OFFCURVE",
"463 1 OFFCURVE",
"428 110 CURVE SMOOTH",
"354 340 OFFCURVE",
"308 386 OFFCURVE",
"167 426 CURVE",
"267 551 OFFCURVE",
"369 678 OFFCURVE",
"432 740 CURVE SMOOTH",
"465 773 OFFCURVE",
"488 786 OFFCURVE",
"509 786 CURVE SMOOTH",
"529 786 OFFCURVE",
"546 776 OFFCURVE",
"567 755 CURVE SMOOTH",
"652 672 OFFCURVE",
"739 537 OFFCURVE",
"739 418 CURVE SMOOTH",
"739 342 OFFCURVE",
"708 255 OFFCURVE",
"678 184 CURVE SMOOTH",
"640 95 OFFCURVE",
"572 -44 OFFCURVE",
"520 -44 CURVE SMOOTH"
);
}
);
width = 869;
},
{
anchors = (
{
name = bottom;
position = "{435, -140}";
},
{
name = center;
position = "{505, 418}";
},
{
name = ogonek;
position = "{782, 10}";
},
{
name = top;
position = "{555, 861}";
}
);
associatedMasterId = "3A120C99-D056-4211-BE1A-9D4BB1803F4A";
layerId = "3F008A9C-5E0C-43E4-A5E5-3E8E1541786F";
name = "Color 0";
paths = (
{
closed = 1;
nodes = (
"521 -176 OFFCURVE",
"621 -46 OFFCURVE",
"718 135 CURVE SMOOTH",
"784 258 OFFCURVE",
"819 386 OFFCURVE",
"819 493 CURVE SMOOTH",
"819 630 OFFCURVE",
"750 789 OFFCURVE",
"641 874 CURVE SMOOTH",
"619 891 OFFCURVE",
"597 901 OFFCURVE",
"574 901 CURVE SMOOTH",
"535 901 OFFCURVE",
"490 875 OFFCURVE",
"423 809 CURVE SMOOTH",
"313 700 OFFCURVE",
"147 485 OFFCURVE",
"-20 269 CURVE",
"0 245 LINE",
"30 268 OFFCURVE",
"61 284 OFFCURVE",
"95 284 CURVE SMOOTH",
"157 284 OFFCURVE",
"241 198 OFFCURVE",
"277 99 CURVE SMOOTH",
"313 -1 OFFCURVE",
"379 -176 OFFCURVE",
"443 -176 CURVE SMOOTH"
);
},
{
closed = 1;
nodes = (
"490 -44 OFFCURVE",
"463 1 OFFCURVE",
"428 110 CURVE SMOOTH",
"354 340 OFFCURVE",
"308 386 OFFCURVE",
"167 426 CURVE",
"267 551 OFFCURVE",
"369 678 OFFCURVE",
"432 740 CURVE SMOOTH",
"465 773 OFFCURVE",
"488 786 OFFCURVE",
"509 786 CURVE SMOOTH",
"529 786 OFFCURVE",
"546 776 OFFCURVE",
"567 755 CURVE SMOOTH",
"652 672 OFFCURVE",
"739 537 OFFCURVE",
"739 418 CURVE SMOOTH",
"739 342 OFFCURVE",
"708 255 OFFCURVE",
"678 184 CURVE SMOOTH",
"640 95 OFFCURVE",
"572 -44 OFFCURVE",
"520 -44 CURVE SMOOTH"
);
}
);
width = 869;
},
{
associatedMasterId = "3A120C99-D056-4211-BE1A-9D4BB1803F4A";
layerId = "2C5E607E-B57A-45DB-8608-C9572F35CD62";
name = "Color 3";
paths = (
{
closed = 1;
nodes = (
"572 -44 OFFCURVE",
"640 95 OFFCURVE",
"678 184 CURVE SMOOTH",
"708 255 OFFCURVE",
"739 342 OFFCURVE",
"739 418 CURVE SMOOTH",
"739 537 OFFCURVE",
"652 672 OFFCURVE",
"567 755 CURVE SMOOTH",
"546 776 OFFCURVE",
"529 786 OFFCURVE",
"509 786 CURVE SMOOTH",
"488 786 OFFCURVE",
"465 773 OFFCURVE",
"432 740 CURVE SMOOTH",
"369 678 OFFCURVE",
"267 551 OFFCURVE",
"167 426 CURVE",
"308 386 OFFCURVE",
"354 340 OFFCURVE",
"428 110 CURVE SMOOTH",
"463 1 OFFCURVE",
"490 -44 OFFCURVE",
"520 -44 CURVE SMOOTH"
);
}
);
width = 869;
}
);
unicode = 004F;
},
{
glyphname = Oacute;
lastChange = "2021-06-05 21:17:29 +0000";
layers = (
{
components = (
{
name = O;
},
{
name = acutecomb;
transform = "{1, 0, 0, 1, 1063, 260}";
}
);
layerId = "3A120C99-D056-4211-BE1A-9D4BB1803F4A";
width = 869;
},
{
associatedMasterId = "3A120C99-D056-4211-BE1A-9D4BB1803F4A";
components = (
{
name = O;
},
{
name = acutecomb;
transform = "{1, 0, 0, 1, 1063, 260}";
}
);
layerId = "54089716-C0E1-4EBE-B9A6-FD4301421E07";
name = "Color 0";
width = 869;
},
{
associatedMasterId = "3A120C99-D056-4211-BE1A-9D4BB1803F4A";
layerId = "8FE2B31D-225C-4A63-8F33-26FD4A83B41F";
name = "Color 2";
paths = (
{
closed = 1;
nodes = (
"572 -44 OFFCURVE",
"640 95 OFFCURVE",
"678 184 CURVE SMOOTH",
"708 255 OFFCURVE",
"739 342 OFFCURVE",
"739 418 CURVE SMOOTH",
"739 537 OFFCURVE",
"652 672 OFFCURVE",
"567 755 CURVE SMOOTH",
"546 776 OFFCURVE",
"529 786 OFFCURVE",
"509 786 CURVE SMOOTH",
"488 786 OFFCURVE",
"465 773 OFFCURVE",
"432 740 CURVE SMOOTH",
"369 678 OFFCURVE",
"267 551 OFFCURVE",
"167 426 CURVE",
"308 386 OFFCURVE",
"354 340 OFFCURVE",
"428 110 CURVE SMOOTH",
"463 1 OFFCURVE",
"490 -44 OFFCURVE",
"520 -44 CURVE SMOOTH"
);
}
);
width = 869;
}
);
unicode = 00D3;
},
{
glyphname = Ocircumflex;
lastChange = "2021-06-05 21:17:48 +0000";
layers = (
{
components = (
{
name = O;
},
{
name = circumflexcomb;
transform = "{1, 0, 0, 1, 1051, 260}";
}
);
layerId = "3A120C99-D056-4211-BE1A-9D4BB1803F4A";
width = 869;
},
{
associatedMasterId = "3A120C99-D056-4211-BE1A-9D4BB1803F4A";
components = (
{
name = O;
},
{
name = circumflexcomb;
transform = "{1, 0, 0, 1, 1051, 260}";
}
);
layerId = "7A46D724-B8A3-4063-BF67-885A7F8F5CD8";
name = "Color 0";
width = 869;
},
{
associatedMasterId = "3A120C99-D056-4211-BE1A-9D4BB1803F4A";
layerId = "F08A773F-E18D-4A84-9D3E-2178BD1F849C";
name = "Color 3";
paths = (
{
closed = 1;
nodes = (
"572 -44 OFFCURVE",
"640 95 OFFCURVE",
"678 184 CURVE SMOOTH",
"708 255 OFFCURVE",
"739 342 OFFCURVE",
"739 418 CURVE SMOOTH",
"739 537 OFFCURVE",
"652 672 OFFCURVE",
"567 755 CURVE SMOOTH",
"546 776 OFFCURVE",
"529 786 OFFCURVE",
"509 786 CURVE SMOOTH",
"488 786 OFFCURVE",
"465 773 OFFCURVE",
"432 740 CURVE SMOOTH",
"369 678 OFFCURVE",
"267 551 OFFCURVE",
"167 426 CURVE",
"308 386 OFFCURVE",
"354 340 OFFCURVE",
"428 110 CURVE SMOOTH",
"463 1 OFFCURVE",
"490 -44 OFFCURVE",
"520 -44 CURVE SMOOTH"
);
}
);
width = 869;
}
);
unicode = 00D4;
},
{
glyphname = Odieresis;
lastChange = "2021-06-05 21:18:02 +0000";
layers = (
{
components = (
{
name = O;
},
{
name = dieresiscomb;
transform = "{1, 0, 0, 1, 1131, 260}";
}
);
layerId = "3A120C99-D056-4211-BE1A-9D4BB1803F4A";
width = 869;
},
{
associatedMasterId = "3A120C99-D056-4211-BE1A-9D4BB1803F4A";
components = (
{
name = O;
},
{
name = dieresiscomb;
transform = "{1, 0, 0, 1, 1131, 260}";
}
);
layerId = "A7D9DE37-6A9D-4DDD-A3F6-DEC729A8687B";
name = "Color 0";
width = 869;
},
{
associatedMasterId = "3A120C99-D056-4211-BE1A-9D4BB1803F4A";
layerId = "EC07E970-B738-4BDF-830E-1A2ACE3C565E";
name = "Color 4";
paths = (
{
closed = 1;
nodes = (
"572 -44 OFFCURVE",
"640 95 OFFCURVE",
"678 184 CURVE SMOOTH",
"708 255 OFFCURVE",
"739 342 OFFCURVE",
"739 418 CURVE SMOOTH",
"739 537 OFFCURVE",
"652 672 OFFCURVE",
"567 755 CURVE SMOOTH",
"546 776 OFFCURVE",
"529 786 OFFCURVE",
"509 786 CURVE SMOOTH",
"488 786 OFFCURVE",
"465 773 OFFCURVE",
"432 740 CURVE SMOOTH",
"369 678 OFFCURVE",
"267 551 OFFCURVE",
"167 426 CURVE",
"308 386 OFFCURVE",
"354 340 OFFCURVE",
"428 110 CURVE SMOOTH",
"463 1 OFFCURVE",
"490 -44 OFFCURVE",
"520 -44 CURVE SMOOTH"
);
}
);
width = 869;
}
);
unicode = 00D6;
},
{
glyphname = Ograve;
lastChange = "2021-06-05 21:18:19 +0000";
layers = (
{
components = (
{
name = O;
},
{
name = gravecomb;
transform = "{1, 0, 0, 1, 1028, 260}";
}
);
layerId = "3A120C99-D056-4211-BE1A-9D4BB1803F4A";
width = 869;
},
{
associatedMasterId = "3A120C99-D056-4211-BE1A-9D4BB1803F4A";
components = (
{
name = O;
},
{
name = gravecomb;
transform = "{1, 0, 0, 1, 1028, 260}";
}
);
layerId = "D93C7FC3-16D5-45E9-BA40-96C6BF690A5F";
name = "Color 0";
width = 869;
},
{
associatedMasterId = "3A120C99-D056-4211-BE1A-9D4BB1803F4A";
layerId = "F4824AD6-3B53-4F15-8D97-3FF7F2016CB5";
name = "Color 1";
paths = (
{
closed = 1;
nodes = (
"572 -44 OFFCURVE",
"640 95 OFFCURVE",
"678 184 CURVE SMOOTH",
"708 255 OFFCURVE",
"739 342 OFFCURVE",
"739 418 CURVE SMOOTH",
"739 537 OFFCURVE",
"652 672 OFFCURVE",
"567 755 CURVE SMOOTH",
"546 776 OFFCURVE",
"529 786 OFFCURVE",
"509 786 CURVE SMOOTH",
"488 786 OFFCURVE",
"465 773 OFFCURVE",
"432 740 CURVE SMOOTH",
"369 678 OFFCURVE",
"267 551 OFFCURVE",
"167 426 CURVE",
"308 386 OFFCURVE",
"354 340 OFFCURVE",
"428 110 CURVE SMOOTH",
"463 1 OFFCURVE",
"490 -44 OFFCURVE",
"520 -44 CURVE SMOOTH"
);
}
);
width = 869;
}
);
unicode = 00D2;
},
{
glyphname = Omacron;
lastChange = "2021-06-05 22:34:46 +0000";
layers = (
{
components = (
{
name = O;
},
{
name = macroncomb;
transform = "{1, 0, 0, 1, 1133, 260}";
}
);
layerId = "3A120C99-D056-4211-BE1A-9D4BB1803F4A";
width = 869;
},
{
associatedMasterId = "3A120C99-D056-4211-BE1A-9D4BB1803F4A";
components = (
{
name = O;
},
{
name = macroncomb;
transform = "{1, 0, 0, 1, 1133, 260}";
}
);
layerId = "4326FBB6-D493-4FD5-8C2E-AEF14F309FDC";
name = "Color 0";
width = 869;
},
{
associatedMasterId = "3A120C99-D056-4211-BE1A-9D4BB1803F4A";
layerId = "0CDD0E9A-614A-4B77-917C-EC17ECE785EA";
name = "Color 2";
paths = (
{
closed = 1;
nodes = (
"572 -44 OFFCURVE",
"640 95 OFFCURVE",
"678 184 CURVE SMOOTH",
"708 255 OFFCURVE",
"739 342 OFFCURVE",
"739 418 CURVE SMOOTH",
"739 537 OFFCURVE",
"652 672 OFFCURVE",
"567 755 CURVE SMOOTH",
"546 776 OFFCURVE",
"529 786 OFFCURVE",
"509 786 CURVE SMOOTH",
"488 786 OFFCURVE",
"465 773 OFFCURVE",
"432 740 CURVE SMOOTH",
"369 678 OFFCURVE",
"267 551 OFFCURVE",
"167 426 CURVE",
"308 386 OFFCURVE",
"354 340 OFFCURVE",
"428 110 CURVE SMOOTH",
"463 1 OFFCURVE",
"490 -44 OFFCURVE",
"520 -44 CURVE SMOOTH"
);
}
);
width = 869;
}
);
unicode = 014C;
},
{
glyphname = Oslash;
lastChange = "2021-06-13 16:59:45 +0000";
layers = (
{
anchors = (
{
name = bottom;
position = "{435, -140}";
},
{
name = ogonek;
position = "{782, 10}";
},
{
name = top;
position = "{555, 861}";
}
);
layerId = "3A120C99-D056-4211-BE1A-9D4BB1803F4A";
paths = (
{
closed = 1;
nodes = (
"521 -176 OFFCURVE",
"621 -46 OFFCURVE",
"718 135 CURVE SMOOTH",
"784 258 OFFCURVE",
"819 386 OFFCURVE",
"819 493 CURVE SMOOTH",
"819 630 OFFCURVE",
"750 789 OFFCURVE",
"641 874 CURVE SMOOTH",
"619 891 OFFCURVE",
"597 901 OFFCURVE",
"574 901 CURVE SMOOTH",
"535 901 OFFCURVE",
"490 875 OFFCURVE",
"423 809 CURVE SMOOTH",
"313 700 OFFCURVE",
"147 485 OFFCURVE",
"-20 269 CURVE",
"0 245 LINE",
"30 268 OFFCURVE",
"61 284 OFFCURVE",
"95 284 CURVE SMOOTH",
"157 284 OFFCURVE",
"241 198 OFFCURVE",
"277 99 CURVE SMOOTH",
"313 -1 OFFCURVE",
"379 -176 OFFCURVE",
"443 -176 CURVE SMOOTH"
);
},
{
closed = 1;
nodes = (
"490 -44 OFFCURVE",
"463 1 OFFCURVE",
"428 110 CURVE SMOOTH",
"354 340 OFFCURVE",
"308 386 OFFCURVE",
"167 426 CURVE",
"267 551 OFFCURVE",
"369 678 OFFCURVE",
"432 740 CURVE SMOOTH",
"465 773 OFFCURVE",
"488 786 OFFCURVE",
"509 786 CURVE SMOOTH",
"529 786 OFFCURVE",
"546 776 OFFCURVE",
"567 755 CURVE SMOOTH",
"652 672 OFFCURVE",
"739 537 OFFCURVE",
"739 418 CURVE SMOOTH",
"739 342 OFFCURVE",
"708 255 OFFCURVE",
"678 184 CURVE SMOOTH",
"640 95 OFFCURVE",
"572 -44 OFFCURVE",
"520 -44 CURVE SMOOTH"
);
},
{
closed = 1;
nodes = (
"913 874 LINE",
"878 912 LINE",
"85 -53 LINE",
"120 -92 LINE"
);
}
);
width = 869;
},
{
anchors = (
{
name = bottom;
position = "{435, -140}";
},
{
name = ogonek;
position = "{782, 10}";
},
{
name = top;
position = "{555, 861}";
}
);
associatedMasterId = "3A120C99-D056-4211-BE1A-9D4BB1803F4A";
layerId = "4D7EE885-E67C-458E-989E-5AAB9213D362";
name = "Color 0";
paths = (
{
closed = 1;
nodes = (
"521 -176 OFFCURVE",
"621 -46 OFFCURVE",
"718 135 CURVE SMOOTH",
"784 258 OFFCURVE",
"819 386 OFFCURVE",
"819 493 CURVE SMOOTH",
"819 630 OFFCURVE",
"750 789 OFFCURVE",
"641 874 CURVE SMOOTH",
"619 891 OFFCURVE",
"597 901 OFFCURVE",
"574 901 CURVE SMOOTH",
"535 901 OFFCURVE",
"490 875 OFFCURVE",
"423 809 CURVE SMOOTH",
"313 700 OFFCURVE",
"147 485 OFFCURVE",
"-20 269 CURVE",
"0 245 LINE",
"30 268 OFFCURVE",
"61 284 OFFCURVE",
"95 284 CURVE SMOOTH",
"157 284 OFFCURVE",
"241 198 OFFCURVE",
"277 99 CURVE SMOOTH",
"313 -1 OFFCURVE",
"379 -176 OFFCURVE",
"443 -176 CURVE SMOOTH"
);
},
{
closed = 1;
nodes = (
"490 -44 OFFCURVE",
"463 1 OFFCURVE",
"428 110 CURVE SMOOTH",
"354 340 OFFCURVE",
"308 386 OFFCURVE",
"167 426 CURVE",
"267 551 OFFCURVE",
"369 678 OFFCURVE",
"432 740 CURVE SMOOTH",
"465 773 OFFCURVE",
"488 786 OFFCURVE",
"509 786 CURVE SMOOTH",
"529 786 OFFCURVE",
"546 776 OFFCURVE",
"567 755 CURVE SMOOTH",
"652 672 OFFCURVE",
"739 537 OFFCURVE",
"739 418 CURVE SMOOTH",
"739 342 OFFCURVE",
"708 255 OFFCURVE",
"678 184 CURVE SMOOTH",
"640 95 OFFCURVE",
"572 -44 OFFCURVE",
"520 -44 CURVE SMOOTH"
);
},
{
closed = 1;
nodes = (
"913 874 LINE",
"878 912 LINE",
"85 -53 LINE",
"120 -92 LINE"
);
}
);
width = 869;
},
{
associatedMasterId = "3A120C99-D056-4211-BE1A-9D4BB1803F4A";
layerId = "263EA126-A14F-4B9F-8D0D-4274B76B5214";
name = "Color 4";
paths = (
{
closed = 1;
nodes = (
"658 644 LINE",
"630 686 OFFCURVE",
"599 724 OFFCURVE",
"567 755 CURVE SMOOTH",
"546 776 OFFCURVE",
"529 786 OFFCURVE",
"509 786 CURVE SMOOTH",
"488 786 OFFCURVE",
"465 773 OFFCURVE",
"432 740 CURVE SMOOTH",
"369 678 OFFCURVE",
"267 551 OFFCURVE",
"167 426 CURVE",
"262 399 OFFCURVE",
"314 369 OFFCURVE",
"360 282 CURVE"
);
},
{
closed = 1;
nodes = (
"572 -44 OFFCURVE",
"640 95 OFFCURVE",
"678 184 CURVE SMOOTH",
"708 255 OFFCURVE",
"739 342 OFFCURVE",
"739 418 CURVE SMOOTH",
"739 477 OFFCURVE",
"718 539 OFFCURVE",
"686 598 CURVE",
"385 230 LINE",
"399 197 OFFCURVE",
"413 157 OFFCURVE",
"428 110 CURVE SMOOTH",
"463 1 OFFCURVE",
"490 -44 OFFCURVE",
"520 -44 CURVE SMOOTH"
);
}
);
width = 869;
}
);
unicode = 00D8;
},
{
glyphname = Otilde;
lastChange = "2021-06-05 23:06:46 +0000";
layers = (
{
components = (
{
name = O;
},
{
name = tildecomb;
transform = "{1, 0, 0, 1, 1200, 260}";
}
);
layerId = "3A120C99-D056-4211-BE1A-9D4BB1803F4A";
width = 869;
},
{
associatedMasterId = "3A120C99-D056-4211-BE1A-9D4BB1803F4A";
components = (
{
name = O;
},
{
name = tildecomb;
transform = "{1, 0, 0, 1, 1200, 260}";
}
);
layerId = "1F7904E7-DC41-4772-B188-FD854DA400D1";
name = "Color 0";
width = 869;
},
{
associatedMasterId = "3A120C99-D056-4211-BE1A-9D4BB1803F4A";
layerId = "02DCD5BC-1808-48DD-9A75-7612FB186608";
name = "Color 4";
paths = (
{
closed = 1;
nodes = (
"572 -44 OFFCURVE",
"640 95 OFFCURVE",
"678 184 CURVE SMOOTH",
"708 255 OFFCURVE",
"739 342 OFFCURVE",
"739 418 CURVE SMOOTH",
"739 537 OFFCURVE",
"652 672 OFFCURVE",
"567 755 CURVE SMOOTH",
"546 776 OFFCURVE",
"529 786 OFFCURVE",
"509 786 CURVE SMOOTH",
"488 786 OFFCURVE",
"465 773 OFFCURVE",
"432 740 CURVE SMOOTH",
"369 678 OFFCURVE",
"267 551 OFFCURVE",
"167 426 CURVE",
"308 386 OFFCURVE",
"354 340 OFFCURVE",
"428 110 CURVE SMOOTH",
"463 1 OFFCURVE",
"490 -44 OFFCURVE",
"520 -44 CURVE SMOOTH"
);
}
);
width = 869;
}
);
unicode = 00D5;
},
{
glyphname = P;
lastChange = "2021-06-05 20:45:13 +0000";
layers = (
{
anchors = (
{
name = bottom;
position = "{552, 0}";
},
{
name = top;
position = "{412, 704}";
}
);
layerId = "3A120C99-D056-4211-BE1A-9D4BB1803F4A";
paths = (
{
closed = 1;
nodes = (
"269 -586 OFFCURVE",
"293 -529 OFFCURVE",
"310 -464 CURVE SMOOTH",
"325 -402 OFFCURVE",
"332 -335 OFFCURVE",
"332 -263 CURVE SMOOTH",
"332 -188 OFFCURVE",
"324 -103 OFFCURVE",
"321 -25 CURVE SMOOTH",
"319 23 OFFCURVE",
"318 74 OFFCURVE",
"318 127 CURVE SMOOTH",
"318 277 OFFCURVE",
"329 434 OFFCURVE",
"355 536 CURVE SMOOTH",
"378 625 OFFCURVE",
"418 661 OFFCURVE",
"482 661 CURVE SMOOTH",
"533 661 OFFCURVE",
"587 630 OFFCURVE",
"627 596 CURVE SMOOTH",
"677 554 OFFCURVE",
"718 498 OFFCURVE",
"718 440 CURVE SMOOTH",
"718 344 OFFCURVE",
"631 281 OFFCURVE",
"537 223 CURVE",
"519 256 OFFCURVE",
"494 298 OFFCURVE",
"471 298 CURVE SMOOTH",
"443 298 OFFCURVE",
"391 235 OFFCURVE",
"391 216 CURVE SMOOTH",
"391 184 OFFCURVE",
"447 137 OFFCURVE",
"479 137 CURVE SMOOTH",
"521 137 OFFCURVE",
"615 214 OFFCURVE",
"679 292 CURVE SMOOTH",
"738 362 OFFCURVE",
"783 439 OFFCURVE",
"783 513 CURVE SMOOTH",
"783 578 OFFCURVE",
"739 640 OFFCURVE",
"682 686 CURVE SMOOTH",
"642 719 OFFCURVE",
"592 744 OFFCURVE",
"531 744 CURVE SMOOTH",
"457 744 OFFCURVE",
"398 702 OFFCURVE",
"352 632 CURVE SMOOTH",
"296 546 OFFCURVE",
"278 419 OFFCURVE",
"261 292 CURVE",
"240 292 LINE",
"224 380 OFFCURVE",
"209 468 OFFCURVE",
"209 540 CURVE SMOOTH",
"209 613 OFFCURVE",
"223 669 OFFCURVE",
"241 725 CURVE",
"222 739 LINE",
"133 597 OFFCURVE",
"95 551 OFFCURVE",
"-21 440 CURVE",
"-6 431 LINE",
"19 457 OFFCURVE",
"59 495 OFFCURVE",
"83 495 CURVE SMOOTH",
"99 495 OFFCURVE",
"113 480 OFFCURVE",
"126 429 CURVE SMOOTH",
"136 387 OFFCURVE",
"145 325 OFFCURVE",
"153 256 CURVE SMOOTH",
"158 204 OFFCURVE",
"166 146 OFFCURVE",
"176 95 CURVE SMOOTH",
"187 29 OFFCURVE",
"199 -26 OFFCURVE",
"213 -76 CURVE SMOOTH",
"225 -114 OFFCURVE",
"234 -151 OFFCURVE",
"240 -184 CURVE SMOOTH",
"249 -242 OFFCURVE",
"254 -295 OFFCURVE",
"254 -350 CURVE SMOOTH",
"254 -444 OFFCURVE",
"242 -522 OFFCURVE",
"222 -632 CURVE",
"243 -644 LINE"
);
}
);
width = 823;
},
{
anchors = (
{
name = bottom;
position = "{552, 0}";
},
{
name = top;
position = "{412, 704}";
}
);
associatedMasterId = "3A120C99-D056-4211-BE1A-9D4BB1803F4A";
layerId = "6C70D935-B7C7-4436-A123-9D5D9E312C8C";
name = "Color 0";
paths = (
{
closed = 1;
nodes = (
"269 -586 OFFCURVE",
"293 -529 OFFCURVE",
"310 -464 CURVE SMOOTH",
"325 -402 OFFCURVE",
"332 -335 OFFCURVE",
"332 -263 CURVE SMOOTH",
"332 -188 OFFCURVE",
"324 -103 OFFCURVE",
"321 -25 CURVE SMOOTH",
"319 23 OFFCURVE",
"318 74 OFFCURVE",
"318 127 CURVE SMOOTH",
"318 277 OFFCURVE",
"329 434 OFFCURVE",
"355 536 CURVE SMOOTH",
"378 625 OFFCURVE",
"418 661 OFFCURVE",
"482 661 CURVE SMOOTH",
"533 661 OFFCURVE",
"587 630 OFFCURVE",
"627 596 CURVE SMOOTH",
"677 554 OFFCURVE",
"718 498 OFFCURVE",
"718 440 CURVE SMOOTH",
"718 344 OFFCURVE",
"631 281 OFFCURVE",
"537 223 CURVE",
"519 256 OFFCURVE",
"494 298 OFFCURVE",
"471 298 CURVE SMOOTH",
"443 298 OFFCURVE",
"391 235 OFFCURVE",
"391 216 CURVE SMOOTH",
"391 184 OFFCURVE",
"447 137 OFFCURVE",
"479 137 CURVE SMOOTH",
"521 137 OFFCURVE",
"615 214 OFFCURVE",
"679 292 CURVE SMOOTH",
"738 362 OFFCURVE",
"783 439 OFFCURVE",
"783 513 CURVE SMOOTH",
"783 578 OFFCURVE",
"739 640 OFFCURVE",
"682 686 CURVE SMOOTH",
"642 719 OFFCURVE",
"592 744 OFFCURVE",
"531 744 CURVE SMOOTH",
"457 744 OFFCURVE",
"398 702 OFFCURVE",
"352 632 CURVE SMOOTH",
"296 546 OFFCURVE",
"278 419 OFFCURVE",
"261 292 CURVE",
"240 292 LINE",
"224 380 OFFCURVE",
"209 468 OFFCURVE",
"209 540 CURVE SMOOTH",
"209 613 OFFCURVE",
"223 669 OFFCURVE",
"241 725 CURVE",
"222 739 LINE",
"133 597 OFFCURVE",
"95 551 OFFCURVE",
"-21 440 CURVE",
"-6 431 LINE",
"19 457 OFFCURVE",
"59 495 OFFCURVE",
"83 495 CURVE SMOOTH",
"99 495 OFFCURVE",
"113 480 OFFCURVE",
"126 429 CURVE SMOOTH",
"136 387 OFFCURVE",
"145 325 OFFCURVE",
"153 256 CURVE SMOOTH",
"158 204 OFFCURVE",
"166 146 OFFCURVE",
"176 95 CURVE SMOOTH",
"187 29 OFFCURVE",
"199 -26 OFFCURVE",
"213 -76 CURVE SMOOTH",
"225 -114 OFFCURVE",
"234 -151 OFFCURVE",
"240 -184 CURVE SMOOTH",
"249 -242 OFFCURVE",
"254 -295 OFFCURVE",
"254 -350 CURVE SMOOTH",
"254 -444 OFFCURVE",
"242 -522 OFFCURVE",
"222 -632 CURVE",
"243 -644 LINE"
);
}
);
width = 823;
},
{
associatedMasterId = "3A120C99-D056-4211-BE1A-9D4BB1803F4A";
layerId = "874FA490-CBDD-4456-92E1-7883E7DA3A94";
name = "Color 4";
paths = (
{
closed = 1;
nodes = (
"391 235 OFFCURVE",
"443 298 OFFCURVE",
"471 298 CURVE SMOOTH",
"494 298 OFFCURVE",
"519 256 OFFCURVE",
"537 223 CURVE",
"631 281 OFFCURVE",
"718 344 OFFCURVE",
"718 440 CURVE SMOOTH",
"718 498 OFFCURVE",
"677 554 OFFCURVE",
"627 596 CURVE SMOOTH",
"587 630 OFFCURVE",
"533 661 OFFCURVE",
"482 661 CURVE SMOOTH",
"418 661 OFFCURVE",
"378 625 OFFCURVE",
"355 536 CURVE SMOOTH",
"335 457 OFFCURVE",
"324 344 OFFCURVE",
"320 227 CURVE",
"391 216 LINE"
);
}
);
width = 797;
}
);
unicode = 0050;
},
{
glyphname = Thorn;
lastChange = "2021-06-03 19:08:38 +0000";
layers = (
{
anchors = (
{
name = bottom;
position = "{336, 0}";
},
{
name = top;
position = "{336, 1108}";
}
);
guideLines = (
{
position = "{525, 744}";
}
);
layerId = "3A120C99-D056-4211-BE1A-9D4BB1803F4A";
paths = (
{
closed = 1;
nodes = (
"225 -287 OFFCURVE",
"257 16 OFFCURVE",
"257 282 CURVE SMOOTH",
"257 453 OFFCURVE",
"241 659 OFFCURVE",
"212 864 CURVE SMOOTH",
"201 922 OFFCURVE",
"200 979 OFFCURVE",
"200 1012 CURVE SMOOTH",
"200 1043 OFFCURVE",
"213 1096 OFFCURVE",
"226 1129 CURVE",
"205 1148 LINE",
"123 1032 OFFCURVE",
"70 978 OFFCURVE",
"-60 878 CURVE",
"-33 853 LINE",
"-10 881 OFFCURVE",
"21 918 OFFCURVE",
"44 918 CURVE SMOOTH",
"83 918 OFFCURVE",
"115 761 OFFCURVE",
"134 545 CURVE SMOOTH",
"146 409 OFFCURVE",
"152 235 OFFCURVE",
"154 65 CURVE SMOOTH",
"154 -173 OFFCURVE",
"133 -348 OFFCURVE",
"88 -606 CURVE",
"148 -625 LINE"
);
},
{
closed = 1;
nodes = (
"318 7 OFFCURVE",
"433 100 OFFCURVE",
"520 203 CURVE SMOOTH",
"612 314 OFFCURVE",
"631 422 OFFCURVE",
"631 475 CURVE SMOOTH",
"630 582 OFFCURVE",
"558 744 OFFCURVE",
"431 744 CURVE SMOOTH",
"350 744 OFFCURVE",
"304 700 OFFCURVE",
"210 599 CURVE",
"223 573 LINE",
"275 629 OFFCURVE",
"328 663 OFFCURVE",
"407 663 CURVE SMOOTH",
"458 663 OFFCURVE",
"541 604 OFFCURVE",
"541 446 CURVE SMOOTH",
"541 362 OFFCURVE",
"509 286 OFFCURVE",
"440 197 CURVE SMOOTH",
"383 120 OFFCURVE",
"294 51 OFFCURVE",
"214 -22 CURVE",
"209 -58 LINE"
);
}
);
width = 671;
},
{
anchors = (
{
name = bottom;
position = "{336, 0}";
},
{
name = top;
position = "{336, 1108}";
}
);
associatedMasterId = "3A120C99-D056-4211-BE1A-9D4BB1803F4A";
guideLines = (
{
position = "{525, 744}";
}
);
layerId = "08A24B51-1BE7-4220-B881-3878BA813426";
name = "Color 0";
paths = (
{
closed = 1;
nodes = (
"225 -287 OFFCURVE",
"257 16 OFFCURVE",
"257 282 CURVE SMOOTH",
"257 453 OFFCURVE",
"241 659 OFFCURVE",
"212 864 CURVE SMOOTH",
"201 922 OFFCURVE",
"200 979 OFFCURVE",
"200 1012 CURVE SMOOTH",
"200 1043 OFFCURVE",
"213 1096 OFFCURVE",
"226 1129 CURVE",
"205 1148 LINE",
"123 1032 OFFCURVE",
"70 978 OFFCURVE",
"-60 878 CURVE",
"-33 853 LINE",
"-10 881 OFFCURVE",
"21 918 OFFCURVE",
"44 918 CURVE SMOOTH",
"83 918 OFFCURVE",
"115 761 OFFCURVE",
"134 545 CURVE SMOOTH",
"146 409 OFFCURVE",
"152 235 OFFCURVE",
"154 65 CURVE SMOOTH",
"154 -173 OFFCURVE",
"133 -348 OFFCURVE",
"88 -606 CURVE",
"148 -625 LINE"
);
},
{
closed = 1;
nodes = (
"318 7 OFFCURVE",
"433 100 OFFCURVE",
"520 203 CURVE SMOOTH",
"612 314 OFFCURVE",
"631 422 OFFCURVE",
"631 475 CURVE SMOOTH",
"630 582 OFFCURVE",
"558 744 OFFCURVE",
"431 744 CURVE SMOOTH",
"350 744 OFFCURVE",
"304 700 OFFCURVE",
"210 599 CURVE",
"223 573 LINE",
"275 629 OFFCURVE",
"328 663 OFFCURVE",
"407 663 CURVE SMOOTH",
"458 663 OFFCURVE",
"541 604 OFFCURVE",
"541 446 CURVE SMOOTH",
"541 362 OFFCURVE",
"509 286 OFFCURVE",
"440 197 CURVE SMOOTH",
"383 120 OFFCURVE",
"294 51 OFFCURVE",
"214 -22 CURVE",
"209 -58 LINE"
);
}
);
width = 671;
},
{
associatedMasterId = "3A120C99-D056-4211-BE1A-9D4BB1803F4A";
guideLines = (
{
position = "{525, 744}";
}
);
layerId = "54A9ACA8-510B-409F-8390-61608CAFB2F8";
name = "Color 2";
paths = (
{
closed = 1;
nodes = (
"317 69 OFFCURVE",
"391 130 OFFCURVE",
"440 197 CURVE SMOOTH",
"509 286 OFFCURVE",
"541 362 OFFCURVE",
"541 446 CURVE SMOOTH",
"541 604 OFFCURVE",
"458 663 OFFCURVE",
"407 663 CURVE SMOOTH",
"338 663 OFFCURVE",
"289 637 OFFCURVE",
"243 593 CURVE",
"252 483 OFFCURVE",
"257 377 OFFCURVE",
"257 282 CURVE SMOOTH",
"257 194 OFFCURVE",
"254 102 OFFCURVE",
"246 7 CURVE"
);
}
);
width = 671;
}
);
unicode = 00DE;
},
{
glyphname = Q;
lastChange = "2021-06-05 20:58:03 +0000";
layers = (
{
anchors = (
{
name = bottom;
position = "{389, 0}";
},
{
name = top;
position = "{539, 920}";
}
);
layerId = "3A120C99-D056-4211-BE1A-9D4BB1803F4A";
paths = (
{
closed = 1;
nodes = (
"933 670 OFFCURVE",
"876 600 OFFCURVE",
"845 553 CURVE SMOOTH",
"827 525 OFFCURVE",
"819 505 OFFCURVE",
"819 492 CURVE SMOOTH",
"819 464 OFFCURVE",
"853 456 OFFCURVE",
"871 453 CURVE SMOOTH",
"889 450 OFFCURVE",
"900 397 OFFCURVE",
"900 343 CURVE SMOOTH",
"900 305 OFFCURVE",
"897 279 OFFCURVE",
"891 234 CURVE SMOOTH",
"888 212 OFFCURVE",
"885 189 OFFCURVE",
"883 164 CURVE",
"843 112 OFFCURVE",
"805 67 OFFCURVE",
"776 41 CURVE SMOOTH",
"757 24 OFFCURVE",
"741 17 OFFCURVE",
"727 17 CURVE SMOOTH",
"688 17 OFFCURVE",
"645 88 OFFCURVE",
"605 154 CURVE SMOOTH",
"539 264 OFFCURVE",
"462 372 OFFCURVE",
"318 377 CURVE",
"335 396 OFFCURVE",
"361 421 OFFCURVE",
"409 457 CURVE SMOOTH",
"482 515 OFFCURVE",
"609 605 OFFCURVE",
"691 668 CURVE SMOOTH",
"798 748 OFFCURVE",
"902 834 OFFCURVE",
"902 910 CURVE SMOOTH",
"902 943 OFFCURVE",
"875 960 OFFCURVE",
"840 960 CURVE SMOOTH",
"804 960 OFFCURVE",
"732 936 OFFCURVE",
"648 875 CURVE SMOOTH",
"588 831 OFFCURVE",
"506 755 OFFCURVE",
"448 713 CURVE SMOOTH",
"420 693 OFFCURVE",
"401 684 OFFCURVE",
"388 684 CURVE SMOOTH",
"376 684 OFFCURVE",
"368 693 OFFCURVE",
"359 706 CURVE",
"343 735 OFFCURVE",
"328 791 OFFCURVE",
"312 820 CURVE SMOOTH",
"302 835 OFFCURVE",
"291 842 OFFCURVE",
"278 842 CURVE SMOOTH",
"253 842 OFFCURVE",
"206 821 OFFCURVE",
"206 787 CURVE SMOOTH",
"206 767 OFFCURVE",
"229 710 OFFCURVE",
"248 668 CURVE SMOOTH",
"265 631 OFFCURVE",
"287 593 OFFCURVE",
"310 553 CURVE",
"403 631 OFFCURVE",
"486 697 OFFCURVE",
"560 762 CURVE SMOOTH",
"624 814 OFFCURVE",
"682 868 OFFCURVE",
"741 868 CURVE SMOOTH",
"776 868 OFFCURVE",
"803 851 OFFCURVE",
"803 828 CURVE SMOOTH",
"803 812 OFFCURVE",
"788 796 OFFCURVE",
"747 757 CURVE SMOOTH",
"704 717 OFFCURVE",
"630 659 OFFCURVE",
"551 604 CURVE SMOOTH",
"482 554 OFFCURVE",
"386 495 OFFCURVE",
"328 445 CURVE SMOOTH",
"296 418 OFFCURVE",
"274 395 OFFCURVE",
"257 372 CURVE",
"154 351 OFFCURVE",
"72 268 OFFCURVE",
"-30 172 CURVE",
"-2 129 LINE",
"80 189 OFFCURVE",
"184 257 OFFCURVE",
"252 257 CURVE SMOOTH",
"355 257 OFFCURVE",
"419 158 OFFCURVE",
"483 59 CURVE SMOOTH",
"524 -4 OFFCURVE",
"580 -90 OFFCURVE",
"639 -90 CURVE SMOOTH",
"659 -90 OFFCURVE",
"681 -81 OFFCURVE",
"706 -63 CURVE SMOOTH",
"755 -28 OFFCURVE",
"817 34 OFFCURVE",
"879 101 CURVE",
"878 76 OFFCURVE",
"877 50 OFFCURVE",
"877 22 CURVE SMOOTH",
"877 -91 OFFCURVE",
"885 -206 OFFCURVE",
"885 -319 CURVE SMOOTH",
"885 -417 OFFCURVE",
"884 -605 OFFCURVE",
"835 -750 CURVE SMOOTH",
"798 -861 OFFCURVE",
"739 -943 OFFCURVE",
"677 -1028 CURVE",
"708 -1059 LINE",
"780 -968 OFFCURVE",
"853 -874 OFFCURVE",
"900 -772 CURVE SMOOTH",
"947 -669 OFFCURVE",
"966 -560 OFFCURVE",
"980 -462 CURVE SMOOTH",
"992 -376 OFFCURVE",
"1000 -300 OFFCURVE",
"1000 -207 CURVE SMOOTH",
"1000 -67 OFFCURVE",
"987 61 OFFCURVE",
"987 211 CURVE SMOOTH",
"987 377 OFFCURVE",
"1001 550 OFFCURVE",
"1018 728 CURVE",
"993 742 LINE"
);
}
);
width = 1077;
},
{
anchors = (
{
name = bottom;
position = "{389, 0}";
},
{
name = top;
position = "{539, 920}";
}
);
associatedMasterId = "3A120C99-D056-4211-BE1A-9D4BB1803F4A";
layerId = "20571626-3060-49A1-B09C-823CFA12F72E";
name = "Color 0";
paths = (
{
closed = 1;
nodes = (
"933 670 OFFCURVE",
"876 600 OFFCURVE",
"845 553 CURVE SMOOTH",
"827 525 OFFCURVE",
"819 505 OFFCURVE",
"819 492 CURVE SMOOTH",
"819 464 OFFCURVE",
"853 456 OFFCURVE",
"871 453 CURVE SMOOTH",
"889 450 OFFCURVE",
"900 397 OFFCURVE",
"900 343 CURVE SMOOTH",
"900 305 OFFCURVE",
"897 279 OFFCURVE",
"891 234 CURVE SMOOTH",
"888 212 OFFCURVE",
"885 189 OFFCURVE",
"883 164 CURVE",
"843 112 OFFCURVE",
"805 67 OFFCURVE",
"776 41 CURVE SMOOTH",
"757 24 OFFCURVE",
"741 17 OFFCURVE",
"727 17 CURVE SMOOTH",
"688 17 OFFCURVE",
"645 88 OFFCURVE",
"605 154 CURVE SMOOTH",
"539 264 OFFCURVE",
"462 372 OFFCURVE",
"318 377 CURVE",
"335 396 OFFCURVE",
"361 421 OFFCURVE",
"409 457 CURVE SMOOTH",
"482 515 OFFCURVE",
"609 605 OFFCURVE",
"691 668 CURVE SMOOTH",
"798 748 OFFCURVE",
"902 834 OFFCURVE",
"902 910 CURVE SMOOTH",
"902 943 OFFCURVE",
"875 960 OFFCURVE",
"840 960 CURVE SMOOTH",
"804 960 OFFCURVE",
"732 936 OFFCURVE",
"648 875 CURVE SMOOTH",
"588 831 OFFCURVE",
"506 755 OFFCURVE",
"448 713 CURVE SMOOTH",
"420 693 OFFCURVE",
"401 684 OFFCURVE",
"388 684 CURVE SMOOTH",
"376 684 OFFCURVE",
"368 693 OFFCURVE",
"359 706 CURVE",
"343 735 OFFCURVE",
"328 791 OFFCURVE",
"312 820 CURVE SMOOTH",
"302 835 OFFCURVE",
"291 842 OFFCURVE",
"278 842 CURVE SMOOTH",
"253 842 OFFCURVE",
"206 821 OFFCURVE",
"206 787 CURVE SMOOTH",
"206 767 OFFCURVE",
"229 710 OFFCURVE",
"248 668 CURVE SMOOTH",
"265 631 OFFCURVE",
"287 593 OFFCURVE",
"310 553 CURVE",
"403 631 OFFCURVE",
"486 697 OFFCURVE",
"560 762 CURVE SMOOTH",
"624 814 OFFCURVE",
"682 868 OFFCURVE",
"741 868 CURVE SMOOTH",
"776 868 OFFCURVE",
"803 851 OFFCURVE",
"803 828 CURVE SMOOTH",
"803 812 OFFCURVE",
"788 796 OFFCURVE",
"747 757 CURVE SMOOTH",
"704 717 OFFCURVE",
"630 659 OFFCURVE",
"551 604 CURVE SMOOTH",
"482 554 OFFCURVE",
"386 495 OFFCURVE",
"328 445 CURVE SMOOTH",
"296 418 OFFCURVE",
"274 395 OFFCURVE",
"257 372 CURVE",
"154 351 OFFCURVE",
"72 268 OFFCURVE",
"-30 172 CURVE",
"-2 129 LINE",
"80 189 OFFCURVE",
"184 257 OFFCURVE",
"252 257 CURVE SMOOTH",
"355 257 OFFCURVE",
"419 158 OFFCURVE",
"483 59 CURVE SMOOTH",
"524 -4 OFFCURVE",
"580 -90 OFFCURVE",
"639 -90 CURVE SMOOTH",
"659 -90 OFFCURVE",
"681 -81 OFFCURVE",
"706 -63 CURVE SMOOTH",
"755 -28 OFFCURVE",
"817 34 OFFCURVE",
"879 101 CURVE",
"878 76 OFFCURVE",
"877 50 OFFCURVE",
"877 22 CURVE SMOOTH",
"877 -91 OFFCURVE",
"885 -206 OFFCURVE",
"885 -319 CURVE SMOOTH",
"885 -417 OFFCURVE",
"884 -605 OFFCURVE",
"835 -750 CURVE SMOOTH",
"798 -861 OFFCURVE",
"739 -943 OFFCURVE",
"677 -1028 CURVE",
"708 -1059 LINE",
"780 -968 OFFCURVE",
"853 -874 OFFCURVE",
"900 -772 CURVE SMOOTH",
"947 -669 OFFCURVE",
"966 -560 OFFCURVE",
"980 -462 CURVE SMOOTH",
"992 -376 OFFCURVE",
"1000 -300 OFFCURVE",
"1000 -207 CURVE SMOOTH",
"1000 -67 OFFCURVE",
"987 61 OFFCURVE",
"987 211 CURVE SMOOTH",
"987 377 OFFCURVE",
"1001 550 OFFCURVE",
"1018 728 CURVE",
"993 742 LINE"
);
}
);
width = 1077;
},
{
associatedMasterId = "3A120C99-D056-4211-BE1A-9D4BB1803F4A";
layerId = "289AB571-1903-4E99-ADDA-DA407200141A";
name = "Color 2";
paths = (
{
closed = 1;
nodes = (
"741 17 OFFCURVE",
"757 24 OFFCURVE",
"776 41 CURVE SMOOTH",
"805 67 OFFCURVE",
"843 112 OFFCURVE",
"883 164 CURVE",
"885 189 OFFCURVE",
"888 212 OFFCURVE",
"891 234 CURVE SMOOTH",
"897 279 OFFCURVE",
"900 305 OFFCURVE",
"900 343 CURVE SMOOTH",
"900 397 OFFCURVE",
"889 450 OFFCURVE",
"871 453 CURVE SMOOTH",
"853 456 OFFCURVE",
"819 464 OFFCURVE",
"819 492 CURVE SMOOTH",
"819 505 OFFCURVE",
"827 525 OFFCURVE",
"845 553 CURVE SMOOTH",
"876 600 OFFCURVE",
"933 670 OFFCURVE",
"993 742 CURVE",
"862 819 LINE",
"822 769 OFFCURVE",
"757 717 OFFCURVE",
"691 668 CURVE SMOOTH",
"609 605 OFFCURVE",
"482 515 OFFCURVE",
"409 457 CURVE SMOOTH",
"361 421 OFFCURVE",
"335 396 OFFCURVE",
"318 377 CURVE",
"462 372 OFFCURVE",
"539 264 OFFCURVE",
"605 154 CURVE SMOOTH",
"645 88 OFFCURVE",
"688 17 OFFCURVE",
"727 17 CURVE SMOOTH"
);
}
);
width = 1077;
}
);
unicode = 0051;
},
{
glyphname = R;
lastChange = "2021-06-05 20:58:42 +0000";
layers = (
{
anchors = (
{
name = bottom;
position = "{521, -121}";
},
{
name = top;
position = "{421, 703}";
}
);
guideLines = (
{
position = "{222, -105}";
},
{
position = "{167, 1172}";
},
{
position = "{646, 743}";
}
);
layerId = "3A120C99-D056-4211-BE1A-9D4BB1803F4A";
paths = (
{
closed = 1;
nodes = (
"844 39 OFFCURVE",
"781 -36 OFFCURVE",
"708 -36 CURVE SMOOTH",
"653 -36 OFFCURVE",
"628 9 OFFCURVE",
"595 68 CURVE SMOOTH",
"567 118 OFFCURVE",
"543 158 OFFCURVE",
"497 230 CURVE",
"631 313 OFFCURVE",
"725 391 OFFCURVE",
"725 536 CURVE SMOOTH",
"725 636 OFFCURVE",
"664 743 OFFCURVE",
"546 743 CURVE SMOOTH",
"489 743 OFFCURVE",
"440 712 OFFCURVE",
"395 652 CURVE SMOOTH",
"363 610 OFFCURVE",
"330 551 OFFCURVE",
"299 508 CURVE SMOOTH",
"277 477 OFFCURVE",
"256 455 OFFCURVE",
"236 435 CURVE",
"233 470 OFFCURVE",
"232 505 OFFCURVE",
"232 537 CURVE SMOOTH",
"232 643 OFFCURVE",
"250 697 OFFCURVE",
"301 791 CURVE",
"288 805 LINE",
"167 661 OFFCURVE",
"145 642 OFFCURVE",
"-27 547 CURVE",
"-17 525 LINE",
"4 533 OFFCURVE",
"14 536 OFFCURVE",
"33 536 CURVE SMOOTH",
"130 536 OFFCURVE",
"150 383 OFFCURVE",
"156 298 CURVE SMOOTH",
"162 213 OFFCURVE",
"164 45 OFFCURVE",
"164 -74 CURVE SMOOTH",
"164 -187 OFFCURVE",
"161 -336 OFFCURVE",
"157 -430 CURVE SMOOTH",
"153 -515 OFFCURVE",
"145 -549 OFFCURVE",
"111 -595 CURVE SMOOTH",
"77 -641 OFFCURVE",
"17 -699 OFFCURVE",
"-46 -758 CURVE",
"-22 -781 LINE",
"36 -726 OFFCURVE",
"92 -670 OFFCURVE",
"135 -624 CURVE SMOOTH",
"219 -534 OFFCURVE",
"241 -459 OFFCURVE",
"252 -331 CURVE SMOOTH",
"259 -252 OFFCURVE",
"264 -70 OFFCURVE",
"264 1 CURVE SMOOTH",
"264 125 OFFCURVE",
"257 214 OFFCURVE",
"244 338 CURVE SMOOTH",
"243 351 OFFCURVE",
"241 365 OFFCURVE",
"240 379 CURVE",
"271 412 OFFCURVE",
"302 447 OFFCURVE",
"325 479 CURVE SMOOTH",
"349 512 OFFCURVE",
"370 545 OFFCURVE",
"388 578 CURVE SMOOTH",
"408 615 OFFCURVE",
"439 648 OFFCURVE",
"487 648 CURVE SMOOTH",
"565 648 OFFCURVE",
"627 575 OFFCURVE",
"627 496 CURVE SMOOTH",
"627 439 OFFCURVE",
"610 409 OFFCURVE",
"546 341 CURVE SMOOTH",
"498 290 OFFCURVE",
"421 219 OFFCURVE",
"343 149 CURVE",
"399 137 OFFCURVE",
"423 131 OFFCURVE",
"461 51 CURVE SMOOTH",
"489 -8 OFFCURVE",
"528 -88 OFFCURVE",
"574 -130 CURVE SMOOTH",
"596 -151 OFFCURVE",
"620 -161 OFFCURVE",
"644 -161 CURVE SMOOTH",
"730 -161 OFFCURVE",
"840 -23 OFFCURVE",
"939 101 CURVE",
"916 127 LINE"
);
}
);
width = 842;
},
{
anchors = (
{
name = bottom;
position = "{521, -121}";
},
{
name = top;
position = "{421, 703}";
}
);
associatedMasterId = "3A120C99-D056-4211-BE1A-9D4BB1803F4A";
guideLines = (
{
position = "{222, -105}";
},
{
position = "{167, 1172}";
},
{
position = "{646, 743}";
}
);
layerId = "4DB525C8-9B64-4407-9C9A-781EBB4E8D1D";
name = "Color 0";
paths = (
{
closed = 1;
nodes = (
"844 39 OFFCURVE",
"781 -36 OFFCURVE",
"708 -36 CURVE SMOOTH",
"653 -36 OFFCURVE",
"628 9 OFFCURVE",
"595 68 CURVE SMOOTH",
"567 118 OFFCURVE",
"543 158 OFFCURVE",
"497 230 CURVE",
"631 313 OFFCURVE",
"725 391 OFFCURVE",
"725 536 CURVE SMOOTH",
"725 636 OFFCURVE",
"664 743 OFFCURVE",
"546 743 CURVE SMOOTH",
"489 743 OFFCURVE",
"440 712 OFFCURVE",
"395 652 CURVE SMOOTH",
"363 610 OFFCURVE",
"330 551 OFFCURVE",
"299 508 CURVE SMOOTH",
"277 477 OFFCURVE",
"256 455 OFFCURVE",
"236 435 CURVE",
"233 470 OFFCURVE",
"232 505 OFFCURVE",
"232 537 CURVE SMOOTH",
"232 643 OFFCURVE",
"250 697 OFFCURVE",
"301 791 CURVE",
"288 805 LINE",
"167 661 OFFCURVE",
"145 642 OFFCURVE",
"-27 547 CURVE",
"-17 525 LINE",
"4 533 OFFCURVE",
"14 536 OFFCURVE",
"33 536 CURVE SMOOTH",
"130 536 OFFCURVE",
"150 383 OFFCURVE",
"156 298 CURVE SMOOTH",
"162 213 OFFCURVE",
"164 45 OFFCURVE",
"164 -74 CURVE SMOOTH",
"164 -187 OFFCURVE",
"161 -336 OFFCURVE",
"157 -430 CURVE SMOOTH",
"153 -515 OFFCURVE",
"145 -549 OFFCURVE",
"111 -595 CURVE SMOOTH",
"77 -641 OFFCURVE",
"17 -699 OFFCURVE",
"-46 -758 CURVE",
"-22 -781 LINE",
"36 -726 OFFCURVE",
"92 -670 OFFCURVE",
"135 -624 CURVE SMOOTH",
"219 -534 OFFCURVE",
"241 -459 OFFCURVE",
"252 -331 CURVE SMOOTH",
"259 -252 OFFCURVE",
"264 -70 OFFCURVE",
"264 1 CURVE SMOOTH",
"264 125 OFFCURVE",
"257 214 OFFCURVE",
"244 338 CURVE SMOOTH",
"243 351 OFFCURVE",
"241 365 OFFCURVE",
"240 379 CURVE",
"271 412 OFFCURVE",
"302 447 OFFCURVE",
"325 479 CURVE SMOOTH",
"349 512 OFFCURVE",
"370 545 OFFCURVE",
"388 578 CURVE SMOOTH",
"408 615 OFFCURVE",
"439 648 OFFCURVE",
"487 648 CURVE SMOOTH",
"565 648 OFFCURVE",
"627 575 OFFCURVE",
"627 496 CURVE SMOOTH",
"627 439 OFFCURVE",
"610 409 OFFCURVE",
"546 341 CURVE SMOOTH",
"498 290 OFFCURVE",
"421 219 OFFCURVE",
"343 149 CURVE",
"399 137 OFFCURVE",
"423 131 OFFCURVE",
"461 51 CURVE SMOOTH",
"489 -8 OFFCURVE",
"528 -88 OFFCURVE",
"574 -130 CURVE SMOOTH",
"596 -151 OFFCURVE",
"620 -161 OFFCURVE",
"644 -161 CURVE SMOOTH",
"730 -161 OFFCURVE",
"840 -23 OFFCURVE",
"939 101 CURVE",
"916 127 LINE"
);
}
);
width = 842;
},
{
associatedMasterId = "3A120C99-D056-4211-BE1A-9D4BB1803F4A";
guideLines = (
{
position = "{222, -105}";
},
{
position = "{167, 1172}";
},
{
position = "{646, 743}";
}
);
layerId = "69159580-7EC3-42C6-87C7-8380640ACD07";
name = "Color 1";
paths = (
{
closed = 1;
nodes = (
"343 149 LINE",
"421 219 OFFCURVE",
"498 290 OFFCURVE",
"546 341 CURVE SMOOTH",
"610 409 OFFCURVE",
"627 439 OFFCURVE",
"627 496 CURVE SMOOTH",
"627 575 OFFCURVE",
"565 648 OFFCURVE",
"487 648 CURVE SMOOTH",
"439 648 OFFCURVE",
"408 615 OFFCURVE",
"388 578 CURVE SMOOTH",
"370 545 OFFCURVE",
"349 512 OFFCURVE",
"325 479 CURVE SMOOTH",
"302 447 OFFCURVE",
"271 412 OFFCURVE",
"240 379 CURVE",
"241 365 OFFCURVE",
"243 351 OFFCURVE",
"244 338 CURVE SMOOTH",
"252 261 OFFCURVE",
"258 198 OFFCURVE",
"261 131 CURVE"
);
}
);
width = 842;
}
);
unicode = 0052;
},
{
glyphname = S;
lastChange = "2021-06-05 20:59:15 +0000";
layers = (
{
anchors = (
{
name = bottom;
position = "{323, -332}";
},
{
name = top;
position = "{323, 703}";
}
);
guideLines = (
{
position = "{580, 1172}";
}
);
layerId = "3A120C99-D056-4211-BE1A-9D4BB1803F4A";
paths = (
{
closed = 1;
nodes = (
"403 -372 OFFCURVE",
"477 -328 OFFCURVE",
"527 -273 CURVE SMOOTH",
"583 -212 OFFCURVE",
"616 -128 OFFCURVE",
"616 -60 CURVE SMOOTH",
"616 9 OFFCURVE",
"583 64 OFFCURVE",
"519 123 CURVE SMOOTH",
"476 162 OFFCURVE",
"408 212 OFFCURVE",
"346 256 CURVE SMOOTH",
"308 283 OFFCURVE",
"270 310 OFFCURVE",
"239 333 CURVE SMOOTH",
"167 388 OFFCURVE",
"142 432 OFFCURVE",
"142 487 CURVE SMOOTH",
"142 531 OFFCURVE",
"165 566 OFFCURVE",
"195 598 CURVE SMOOTH",
"221 626 OFFCURVE",
"265 661 OFFCURVE",
"297 661 CURVE SMOOTH",
"337 661 OFFCURVE",
"389 608 OFFCURVE",
"433 559 CURVE",
"508 639 LINE",
"459 696 OFFCURVE",
"418 743 OFFCURVE",
"364 743 CURVE SMOOTH",
"313 743 OFFCURVE",
"226 681 OFFCURVE",
"165 623 CURVE SMOOTH",
"95 556 OFFCURVE",
"50 493 OFFCURVE",
"50 413 CURVE SMOOTH",
"50 355 OFFCURVE",
"74 297 OFFCURVE",
"132 245 CURVE SMOOTH",
"171 210 OFFCURVE",
"224 171 OFFCURVE",
"291 132 CURVE SMOOTH",
"358 93 OFFCURVE",
"437 47 OFFCURVE",
"483 -5 CURVE SMOOTH",
"522 -49 OFFCURVE",
"537 -99 OFFCURVE",
"537 -143 CURVE SMOOTH",
"537 -217 OFFCURVE",
"484 -281 OFFCURVE",
"442 -281 CURVE SMOOTH",
"405 -281 OFFCURVE",
"352 -220 OFFCURVE",
"304 -165 CURVE",
"213 -263 LINE",
"262 -316 OFFCURVE",
"315 -372 OFFCURVE",
"362 -372 CURVE SMOOTH"
);
}
);
width = 646;
},
{
anchors = (
{
name = bottom;
position = "{323, -332}";
},
{
name = top;
position = "{323, 703}";
}
);
associatedMasterId = "3A120C99-D056-4211-BE1A-9D4BB1803F4A";
guideLines = (
{
position = "{580, 1172}";
}
);
layerId = "2C9ECAEF-80EF-46C0-9B3E-C52AE1DBDE6E";
name = "Color 0";
paths = (
{
closed = 1;
nodes = (
"403 -372 OFFCURVE",
"477 -328 OFFCURVE",
"527 -273 CURVE SMOOTH",
"583 -212 OFFCURVE",
"616 -128 OFFCURVE",
"616 -60 CURVE SMOOTH",
"616 9 OFFCURVE",
"583 64 OFFCURVE",
"519 123 CURVE SMOOTH",
"476 162 OFFCURVE",
"408 212 OFFCURVE",
"346 256 CURVE SMOOTH",
"308 283 OFFCURVE",
"270 310 OFFCURVE",
"239 333 CURVE SMOOTH",
"167 388 OFFCURVE",
"142 432 OFFCURVE",
"142 487 CURVE SMOOTH",
"142 531 OFFCURVE",
"165 566 OFFCURVE",
"195 598 CURVE SMOOTH",
"221 626 OFFCURVE",
"265 661 OFFCURVE",
"297 661 CURVE SMOOTH",
"337 661 OFFCURVE",
"389 608 OFFCURVE",
"433 559 CURVE",
"508 639 LINE",
"459 696 OFFCURVE",
"418 743 OFFCURVE",
"364 743 CURVE SMOOTH",
"313 743 OFFCURVE",
"226 681 OFFCURVE",
"165 623 CURVE SMOOTH",
"95 556 OFFCURVE",
"50 493 OFFCURVE",
"50 413 CURVE SMOOTH",
"50 355 OFFCURVE",
"74 297 OFFCURVE",
"132 245 CURVE SMOOTH",
"171 210 OFFCURVE",
"224 171 OFFCURVE",
"291 132 CURVE SMOOTH",
"358 93 OFFCURVE",
"437 47 OFFCURVE",
"483 -5 CURVE SMOOTH",
"522 -49 OFFCURVE",
"537 -99 OFFCURVE",
"537 -143 CURVE SMOOTH",
"537 -217 OFFCURVE",
"484 -281 OFFCURVE",
"442 -281 CURVE SMOOTH",
"405 -281 OFFCURVE",
"352 -220 OFFCURVE",
"304 -165 CURVE",
"213 -263 LINE",
"262 -316 OFFCURVE",
"315 -372 OFFCURVE",
"362 -372 CURVE SMOOTH"
);
}
);
width = 646;
},
{
associatedMasterId = "3A120C99-D056-4211-BE1A-9D4BB1803F4A";
guideLines = (
{
position = "{580, 1172}";
}
);
layerId = "9842CC96-C01A-44AB-A361-CB8C3B3948D3";
name = "Color 1";
paths = (
{
closed = 1;
nodes = (
"484 -281 OFFCURVE",
"537 -217 OFFCURVE",
"537 -143 CURVE SMOOTH",
"537 -99 OFFCURVE",
"522 -49 OFFCURVE",
"483 -5 CURVE SMOOTH",
"437 47 OFFCURVE",
"358 93 OFFCURVE",
"291 132 CURVE SMOOTH",
"258 151 OFFCURVE",
"229 170 OFFCURVE",
"203 189 CURVE",
"294 59 OFFCURVE",
"325 -59 OFFCURVE",
"304 -165 CURVE",
"352 -220 OFFCURVE",
"405 -281 OFFCURVE",
"442 -281 CURVE SMOOTH"
);
},
{
closed = 1;
nodes = (
"412 302 OFFCURVE",
"407 431 OFFCURVE",
"433 559 CURVE",
"389 608 OFFCURVE",
"337 661 OFFCURVE",
"297 661 CURVE SMOOTH",
"265 661 OFFCURVE",
"221 626 OFFCURVE",
"195 598 CURVE SMOOTH",
"165 566 OFFCURVE",
"142 531 OFFCURVE",
"142 487 CURVE SMOOTH",
"142 432 OFFCURVE",
"167 388 OFFCURVE",
"239 333 CURVE SMOOTH",
"270 310 OFFCURVE",
"308 283 OFFCURVE",
"346 256 CURVE SMOOTH",
"383 230 OFFCURVE",
"422 201 OFFCURVE",
"457 174 CURVE"
);
}
);
width = 646;
}
);
unicode = 0053;
},
{
glyphname = T;
lastChange = "2021-06-13 18:52:51 +0000";
layers = (
{
anchors = (
{
name = bottom;
position = "{459, -129}";
},
{
name = center;
position = "{459, 278}";
},
{
name = top;
position = "{459, 639}";
}
);
layerId = "3A120C99-D056-4211-BE1A-9D4BB1803F4A";
paths = (
{
closed = 1;
nodes = (
"505 -169 OFFCURVE",
"602 -66 OFFCURVE",
"676 35 CURVE SMOOTH",
"727 104 OFFCURVE",
"771 172 OFFCURVE",
"814 241 CURVE",
"792 252 LINE",
"747 185 OFFCURVE",
"702 118 OFFCURVE",
"661 64 CURVE SMOOTH",
"610 -3 OFFCURVE",
"557 -58 OFFCURVE",
"513 -58 CURVE SMOOTH",
"458 -58 OFFCURVE",
"403 38 OFFCURVE",
"364 113 CURVE SMOOTH",
"328 183 OFFCURVE",
"278 297 OFFCURVE",
"278 371 CURVE SMOOTH",
"278 417 OFFCURVE",
"294 459 OFFCURVE",
"315 493 CURVE SMOOTH",
"333 522 OFFCURVE",
"356 552 OFFCURVE",
"380 581 CURVE",
"442 578 OFFCURVE",
"505 574 OFFCURVE",
"564 574 CURVE SMOOTH",
"774 574 OFFCURVE",
"847 608 OFFCURVE",
"968 771 CURVE",
"949 789 LINE",
"871 680 OFFCURVE",
"844 671 OFFCURVE",
"607 671 CURVE SMOOTH",
"502 671 OFFCURVE",
"466 679 OFFCURVE",
"384 679 CURVE SMOOTH",
"200 679 OFFCURVE",
"128 642 OFFCURVE",
"-20 474 CURVE",
"5 457 LINE",
"88 551 OFFCURVE",
"118 585 OFFCURVE",
"251 585 CURVE SMOOTH",
"281 585 OFFCURVE",
"313 584 OFFCURVE",
"346 582 CURVE",
"305 539 OFFCURVE",
"267 495 OFFCURVE",
"239 447 CURVE SMOOTH",
"210 398 OFFCURVE",
"189 335 OFFCURVE",
"189 258 CURVE SMOOTH",
"189 184 OFFCURVE",
"214 91 OFFCURVE",
"242 22 CURVE SMOOTH",
"280 -71 OFFCURVE",
"340 -169 OFFCURVE",
"422 -169 CURVE SMOOTH"
);
}
);
width = 918;
},
{
anchors = (
{
name = bottom;
position = "{459, -129}";
},
{
name = center;
position = "{459, 278}";
},
{
name = top;
position = "{459, 639}";
}
);
associatedMasterId = "3A120C99-D056-4211-BE1A-9D4BB1803F4A";
layerId = "71FB1F19-FFDD-4BCE-B81C-5238557CFE68";
name = "Color 0";
paths = (
{
closed = 1;
nodes = (
"505 -169 OFFCURVE",
"602 -66 OFFCURVE",
"676 35 CURVE SMOOTH",
"727 104 OFFCURVE",
"771 172 OFFCURVE",
"814 241 CURVE",
"792 252 LINE",
"747 185 OFFCURVE",
"702 118 OFFCURVE",
"661 64 CURVE SMOOTH",
"610 -3 OFFCURVE",
"557 -58 OFFCURVE",
"513 -58 CURVE SMOOTH",
"458 -58 OFFCURVE",
"403 38 OFFCURVE",
"364 113 CURVE SMOOTH",
"328 183 OFFCURVE",
"278 297 OFFCURVE",
"278 371 CURVE SMOOTH",
"278 417 OFFCURVE",
"294 459 OFFCURVE",
"315 493 CURVE SMOOTH",
"333 522 OFFCURVE",
"356 552 OFFCURVE",
"380 581 CURVE",
"442 578 OFFCURVE",
"505 574 OFFCURVE",
"564 574 CURVE SMOOTH",
"774 574 OFFCURVE",
"847 608 OFFCURVE",
"968 771 CURVE",
"949 789 LINE",
"871 680 OFFCURVE",
"844 671 OFFCURVE",
"607 671 CURVE SMOOTH",
"502 671 OFFCURVE",
"466 679 OFFCURVE",
"384 679 CURVE SMOOTH",
"200 679 OFFCURVE",
"128 642 OFFCURVE",
"-20 474 CURVE",
"5 457 LINE",
"88 551 OFFCURVE",
"118 585 OFFCURVE",
"251 585 CURVE SMOOTH",
"281 585 OFFCURVE",
"313 584 OFFCURVE",
"346 582 CURVE",
"305 539 OFFCURVE",
"267 495 OFFCURVE",
"239 447 CURVE SMOOTH",
"210 398 OFFCURVE",
"189 335 OFFCURVE",
"189 258 CURVE SMOOTH",
"189 184 OFFCURVE",
"214 91 OFFCURVE",
"242 22 CURVE SMOOTH",
"280 -71 OFFCURVE",
"340 -169 OFFCURVE",
"422 -169 CURVE SMOOTH"
);
}
);
width = 918;
},
{
associatedMasterId = "3A120C99-D056-4211-BE1A-9D4BB1803F4A";
layerId = "EBDA3038-C8CB-4A4D-A4F9-3AEEAA2AC4BF";
name = "Color 2";
paths = (
{
closed = 1;
nodes = (
"557 -58 OFFCURVE",
"610 -3 OFFCURVE",
"661 64 CURVE SMOOTH",
"702 118 OFFCURVE",
"747 185 OFFCURVE",
"792 252 CURVE",
"710 344 OFFCURVE",
"684 456 OFFCURVE",
"691 581 CURVE",
"655 576 OFFCURVE",
"613 574 OFFCURVE",
"564 574 CURVE SMOOTH",
"505 574 OFFCURVE",
"442 578 OFFCURVE",
"380 581 CURVE",
"356 552 OFFCURVE",
"333 522 OFFCURVE",
"315 493 CURVE SMOOTH",
"294 459 OFFCURVE",
"278 417 OFFCURVE",
"278 371 CURVE SMOOTH",
"278 297 OFFCURVE",
"328 183 OFFCURVE",
"364 113 CURVE SMOOTH",
"403 38 OFFCURVE",
"458 -58 OFFCURVE",
"513 -58 CURVE SMOOTH"
);
}
);
width = 918;
}
);
unicode = 0054;
},
{
glyphname = U;
lastChange = "2021-06-14 02:47:14 +0000";
layers = (
{
anchors = (
{
name = bottom;
position = "{268, -332}";
},
{
name = ogonek;
position = "{841, 10}";
},
{
name = top;
position = "{549, 778}";
}
);
guideLines = (
{
position = "{621, 1172}";
},
{
position = "{648, -105}";
},
{
position = "{222, -105}";
},
{
position = "{167, 1172}";
},
{
position = "{607, -372}";
},
{
position = "{605, 743}";
}
);
layerId = "3A120C99-D056-4211-BE1A-9D4BB1803F4A";
paths = (
{
closed = 1;
nodes = (
"323 -372 OFFCURVE",
"363 -362 OFFCURVE",
"406 -333 CURVE SMOOTH",
"485 -280 OFFCURVE",
"580 -167 OFFCURVE",
"674 -53 CURVE",
"649 -27 LINE",
"575 -115 OFFCURVE",
"499 -205 OFFCURVE",
"450 -246 CURVE SMOOTH",
"422 -269 OFFCURVE",
"402 -278 OFFCURVE",
"383 -278 CURVE SMOOTH",
"332 -278 OFFCURVE",
"196 -178 OFFCURVE",
"196 -73 CURVE SMOOTH",
"196 -31 OFFCURVE",
"215 20 OFFCURVE",
"236 66 CURVE SMOOTH",
"279 160 OFFCURVE",
"314 304 OFFCURVE",
"314 403 CURVE SMOOTH",
"314 445 OFFCURVE",
"308 479 OFFCURVE",
"308 518 CURVE SMOOTH",
"308 604 OFFCURVE",
"356 691 OFFCURVE",
"417 799 CURVE",
"397 818 LINE",
"268 639 OFFCURVE",
"238 614 OFFCURVE",
"50 499 CURVE",
"75 458 LINE",
"88 469 OFFCURVE",
"101 480 OFFCURVE",
"123 480 CURVE SMOOTH",
"174 480 OFFCURVE",
"206 363 OFFCURVE",
"206 276 CURVE SMOOTH",
"206 190 OFFCURVE",
"165 82 OFFCURVE",
"132 9 CURVE SMOOTH",
"106 -49 OFFCURVE",
"71 -132 OFFCURVE",
"71 -186 CURVE SMOOTH",
"71 -295 OFFCURVE",
"197 -372 OFFCURVE",
"288 -372 CURVE SMOOTH"
);
},
{
closed = 1;
nodes = (
"637 -461 OFFCURVE",
"688 -408 OFFCURVE",
"741 -356 CURVE SMOOTH",
"793 -305 OFFCURVE",
"849 -253 OFFCURVE",
"904 -203 CURVE",
"878 -183 LINE",
"824 -240 OFFCURVE",
"770 -297 OFFCURVE",
"751 -297 CURVE SMOOTH",
"738 -297 OFFCURVE",
"738 -272 OFFCURVE",
"738 -254 CURVE SMOOTH",
"738 -239 OFFCURVE",
"748 -47 OFFCURVE",
"754 31 CURVE SMOOTH",
"765 179 OFFCURVE",
"775 336 OFFCURVE",
"776 462 CURVE SMOOTH",
"777 600 OFFCURVE",
"809 659 OFFCURVE",
"888 803 CURVE",
"867 814 LINE",
"726 639 OFFCURVE",
"700 613 OFFCURVE",
"499 495 CURVE",
"526 456 LINE",
"552 476 OFFCURVE",
"567 486 OFFCURVE",
"590 486 CURVE SMOOTH",
"654 486 OFFCURVE",
"664 409 OFFCURVE",
"664 347 CURVE SMOOTH",
"664 320 OFFCURVE",
"657 209 OFFCURVE",
"653 154 CURVE SMOOTH",
"649 99 OFFCURVE",
"645 43 OFFCURVE",
"642 -14 CURVE SMOOTH",
"622 -378 OFFCURVE",
"618 -402 OFFCURVE",
"562 -491 CURVE",
"586 -514 LINE"
);
}
);
width = 934;
},
{
anchors = (
{
name = bottom;
position = "{268, -332}";
},
{
name = ogonek;
position = "{841, 10}";
},
{
name = top;
position = "{549, 778}";
}
);
associatedMasterId = "3A120C99-D056-4211-BE1A-9D4BB1803F4A";
guideLines = (
{
position = "{621, 1172}";
},
{
position = "{648, -105}";
},
{
position = "{222, -105}";
},
{
position = "{167, 1172}";
},
{
position = "{607, -372}";
},
{
position = "{605, 743}";
}
);
layerId = "04CAE54F-E1C3-4C8E-8661-66B38831A780";
name = "Color 0";
paths = (
{
closed = 1;
nodes = (
"323 -372 OFFCURVE",
"363 -362 OFFCURVE",
"406 -333 CURVE SMOOTH",
"485 -280 OFFCURVE",
"580 -167 OFFCURVE",
"674 -53 CURVE",
"649 -27 LINE",
"575 -115 OFFCURVE",
"499 -205 OFFCURVE",
"450 -246 CURVE SMOOTH",
"422 -269 OFFCURVE",
"402 -278 OFFCURVE",
"383 -278 CURVE SMOOTH",
"332 -278 OFFCURVE",
"196 -178 OFFCURVE",
"196 -73 CURVE SMOOTH",
"196 -31 OFFCURVE",
"215 20 OFFCURVE",
"236 66 CURVE SMOOTH",
"279 160 OFFCURVE",
"314 304 OFFCURVE",
"314 403 CURVE SMOOTH",
"314 445 OFFCURVE",
"308 479 OFFCURVE",
"308 518 CURVE SMOOTH",
"308 604 OFFCURVE",
"356 691 OFFCURVE",
"417 799 CURVE",
"397 818 LINE",
"268 639 OFFCURVE",
"238 614 OFFCURVE",
"50 499 CURVE",
"75 458 LINE",
"88 469 OFFCURVE",
"101 480 OFFCURVE",
"123 480 CURVE SMOOTH",
"174 480 OFFCURVE",
"206 363 OFFCURVE",
"206 276 CURVE SMOOTH",
"206 190 OFFCURVE",
"165 82 OFFCURVE",
"132 9 CURVE SMOOTH",
"106 -49 OFFCURVE",
"71 -132 OFFCURVE",
"71 -186 CURVE SMOOTH",
"71 -295 OFFCURVE",
"197 -372 OFFCURVE",
"288 -372 CURVE SMOOTH"
);
},
{
closed = 1;
nodes = (
"637 -461 OFFCURVE",
"688 -408 OFFCURVE",
"741 -356 CURVE SMOOTH",
"793 -305 OFFCURVE",
"849 -253 OFFCURVE",
"904 -203 CURVE",
"878 -183 LINE",
"824 -240 OFFCURVE",
"770 -297 OFFCURVE",
"751 -297 CURVE SMOOTH",
"738 -297 OFFCURVE",
"738 -272 OFFCURVE",
"738 -254 CURVE SMOOTH",
"738 -239 OFFCURVE",
"748 -47 OFFCURVE",
"754 31 CURVE SMOOTH",
"765 179 OFFCURVE",
"775 336 OFFCURVE",
"776 462 CURVE SMOOTH",
"777 600 OFFCURVE",
"809 659 OFFCURVE",
"888 803 CURVE",
"867 814 LINE",
"726 639 OFFCURVE",
"700 613 OFFCURVE",
"499 495 CURVE",
"526 456 LINE",
"552 476 OFFCURVE",
"567 486 OFFCURVE",
"590 486 CURVE SMOOTH",
"654 486 OFFCURVE",
"664 409 OFFCURVE",
"664 347 CURVE SMOOTH",
"664 320 OFFCURVE",
"657 209 OFFCURVE",
"653 154 CURVE SMOOTH",
"649 99 OFFCURVE",
"645 43 OFFCURVE",
"642 -14 CURVE SMOOTH",
"622 -378 OFFCURVE",
"618 -402 OFFCURVE",
"562 -491 CURVE",
"586 -514 LINE"
);
}
);
width = 934;
},
{
associatedMasterId = "3A120C99-D056-4211-BE1A-9D4BB1803F4A";
guideLines = (
{
position = "{621, 1172}";
},
{
position = "{648, -105}";
},
{
position = "{222, -105}";
},
{
position = "{167, 1172}";
},
{
position = "{607, -372}";
},
{
position = "{605, 743}";
}
);
layerId = "B8B3910C-A165-45BC-BAC8-4E35EDB040E6";
name = "Color 4";
paths = (
{
closed = 1;
nodes = (
"402 -278 OFFCURVE",
"422 -269 OFFCURVE",
"450 -246 CURVE SMOOTH",
"497 -207 OFFCURVE",
"569 -122 OFFCURVE",
"641 -37 CURVE",
"641 -29 OFFCURVE",
"642 -22 OFFCURVE",
"642 -14 CURVE SMOOTH",
"645 43 OFFCURVE",
"649 99 OFFCURVE",
"653 154 CURVE SMOOTH",
"657 209 OFFCURVE",
"664 320 OFFCURVE",
"664 347 CURVE SMOOTH",
"664 409 OFFCURVE",
"654 486 OFFCURVE",
"590 486 CURVE SMOOTH",
"567 486 OFFCURVE",
"552 476 OFFCURVE",
"526 456 CURVE",
"499 495 LINE",
"539 518 OFFCURVE",
"572 538 OFFCURVE",
"600 556 CURVE",
"503 516 OFFCURVE",
"405 504 OFFCURVE",
"308 518 CURVE",
"308 479 OFFCURVE",
"314 445 OFFCURVE",
"314 403 CURVE SMOOTH",
"314 304 OFFCURVE",
"279 160 OFFCURVE",
"236 66 CURVE SMOOTH",
"215 20 OFFCURVE",
"196 -31 OFFCURVE",
"196 -73 CURVE SMOOTH",
"196 -178 OFFCURVE",
"332 -278 OFFCURVE",
"383 -278 CURVE SMOOTH"
);
}
);
width = 934;
}
);
unicode = 0055;
},
{
glyphname = Uacute;
lastChange = "2021-06-14 02:48:41 +0000";
layers = (
{
components = (
{
name = U;
},
{
name = acutecomb;
transform = "{1, 0, 0, 1, 1057, 177}";
}
);
layerId = "3A120C99-D056-4211-BE1A-9D4BB1803F4A";
width = 934;
},
{
associatedMasterId = "3A120C99-D056-4211-BE1A-9D4BB1803F4A";
components = (
{
name = U;
},
{
name = acutecomb;
transform = "{1, 0, 0, 1, 1057, 177}";
}
);
layerId = "BFD972B3-FAE3-48DA-8A1F-05A9E63B0162";
name = "Color 0";
width = 934;
},
{
associatedMasterId = "3A120C99-D056-4211-BE1A-9D4BB1803F4A";
layerId = "C0BFE60C-1B42-4FF8-92E7-D5BB6616932B";
name = "Color 1";
paths = (
{
closed = 1;
nodes = (
"402 -278 OFFCURVE",
"422 -269 OFFCURVE",
"450 -246 CURVE SMOOTH",
"497 -207 OFFCURVE",
"569 -122 OFFCURVE",
"641 -37 CURVE",
"641 -29 OFFCURVE",
"642 -22 OFFCURVE",
"642 -14 CURVE SMOOTH",
"645 43 OFFCURVE",
"649 99 OFFCURVE",
"653 154 CURVE SMOOTH",
"657 209 OFFCURVE",
"664 320 OFFCURVE",
"664 347 CURVE SMOOTH",
"664 409 OFFCURVE",
"654 486 OFFCURVE",
"590 486 CURVE SMOOTH",
"567 486 OFFCURVE",
"552 476 OFFCURVE",
"526 456 CURVE",
"499 495 LINE",
"539 518 OFFCURVE",
"572 538 OFFCURVE",
"600 556 CURVE",
"503 516 OFFCURVE",
"405 504 OFFCURVE",
"308 518 CURVE",
"308 479 OFFCURVE",
"314 445 OFFCURVE",
"314 403 CURVE SMOOTH",
"314 304 OFFCURVE",
"279 160 OFFCURVE",
"236 66 CURVE SMOOTH",
"215 20 OFFCURVE",
"196 -31 OFFCURVE",
"196 -73 CURVE SMOOTH",
"196 -178 OFFCURVE",
"332 -278 OFFCURVE",
"383 -278 CURVE SMOOTH"
);
}
);
width = 934;
}
);
unicode = 00DA;
},
{
glyphname = Ucircumflex;
lastChange = "2021-06-14 02:48:41 +0000";
layers = (
{
components = (
{
name = U;
},
{
name = circumflexcomb;
transform = "{1, 0, 0, 1, 1045, 177}";
}
);
layerId = "3A120C99-D056-4211-BE1A-9D4BB1803F4A";
width = 934;
},
{
associatedMasterId = "3A120C99-D056-4211-BE1A-9D4BB1803F4A";
components = (
{
name = U;
},
{
name = circumflexcomb;
transform = "{1, 0, 0, 1, 1045, 177}";
}
);
layerId = "C2F4E623-6B75-45D4-967D-B59064986C95";
name = "Color 0";
width = 934;
},
{
associatedMasterId = "3A120C99-D056-4211-BE1A-9D4BB1803F4A";
layerId = "CC2E3AE2-A086-438B-BA8E-F12ADC397338";
name = "Color 2";
paths = (
{
closed = 1;
nodes = (
"402 -278 OFFCURVE",
"422 -269 OFFCURVE",
"450 -246 CURVE SMOOTH",
"497 -207 OFFCURVE",
"569 -122 OFFCURVE",
"641 -37 CURVE",
"641 -29 OFFCURVE",
"642 -22 OFFCURVE",
"642 -14 CURVE SMOOTH",
"645 43 OFFCURVE",
"649 99 OFFCURVE",
"653 154 CURVE SMOOTH",
"657 209 OFFCURVE",
"664 320 OFFCURVE",
"664 347 CURVE SMOOTH",
"664 409 OFFCURVE",
"654 486 OFFCURVE",
"590 486 CURVE SMOOTH",
"567 486 OFFCURVE",
"552 476 OFFCURVE",
"526 456 CURVE",
"499 495 LINE",
"539 518 OFFCURVE",
"572 538 OFFCURVE",
"600 556 CURVE",
"503 516 OFFCURVE",
"405 504 OFFCURVE",
"308 518 CURVE",
"308 479 OFFCURVE",
"314 445 OFFCURVE",
"314 403 CURVE SMOOTH",
"314 304 OFFCURVE",
"279 160 OFFCURVE",
"236 66 CURVE SMOOTH",
"215 20 OFFCURVE",
"196 -31 OFFCURVE",
"196 -73 CURVE SMOOTH",
"196 -178 OFFCURVE",
"332 -278 OFFCURVE",
"383 -278 CURVE SMOOTH"
);
}
);
width = 934;
}
);
unicode = 00DB;
},
{
glyphname = Udieresis;
lastChange = "2021-06-14 02:47:19 +0000";
layers = (
{
components = (
{
name = U;
},
{
name = dieresiscomb;
transform = "{1, 0, 0, 1, 1125, 177}";
}
);
layerId = "3A120C99-D056-4211-BE1A-9D4BB1803F4A";
width = 934;
},
{
associatedMasterId = "3A120C99-D056-4211-BE1A-9D4BB1803F4A";
components = (
{
name = U;
},
{
name = dieresiscomb;
transform = "{1, 0, 0, 1, 1125, 177}";
}
);
layerId = "4A455037-DBBC-45FE-AA35-30F46BCD0133";
name = "Color 0";
width = 934;
},
{
associatedMasterId = "3A120C99-D056-4211-BE1A-9D4BB1803F4A";
layerId = "BD283373-01D1-4EDF-BEDE-296CA75F197A";
name = "Color 3";
paths = (
{
closed = 1;
nodes = (
"402 -278 OFFCURVE",
"422 -269 OFFCURVE",
"450 -246 CURVE SMOOTH",
"497 -207 OFFCURVE",
"569 -122 OFFCURVE",
"641 -37 CURVE",
"641 -29 OFFCURVE",
"642 -22 OFFCURVE",
"642 -14 CURVE SMOOTH",
"645 43 OFFCURVE",
"649 99 OFFCURVE",
"653 154 CURVE SMOOTH",
"657 209 OFFCURVE",
"664 320 OFFCURVE",
"664 347 CURVE SMOOTH",
"664 409 OFFCURVE",
"654 486 OFFCURVE",
"590 486 CURVE SMOOTH",
"567 486 OFFCURVE",
"552 476 OFFCURVE",
"526 456 CURVE",
"499 495 LINE",
"539 518 OFFCURVE",
"572 538 OFFCURVE",
"600 556 CURVE",
"503 516 OFFCURVE",
"405 504 OFFCURVE",
"308 518 CURVE",
"308 479 OFFCURVE",
"314 445 OFFCURVE",
"314 403 CURVE SMOOTH",
"314 304 OFFCURVE",
"279 160 OFFCURVE",
"236 66 CURVE SMOOTH",
"215 20 OFFCURVE",
"196 -31 OFFCURVE",
"196 -73 CURVE SMOOTH",
"196 -178 OFFCURVE",
"332 -278 OFFCURVE",
"383 -278 CURVE SMOOTH"
);
}
);
width = 934;
}
);
unicode = 00DC;
},
{
glyphname = Ugrave;
lastChange = "2021-06-14 02:48:41 +0000";
layers = (
{
components = (
{
name = U;
},
{
name = gravecomb;
transform = "{1, 0, 0, 1, 1022, 177}";
}
);
layerId = "3A120C99-D056-4211-BE1A-9D4BB1803F4A";
width = 934;
},
{
associatedMasterId = "3A120C99-D056-4211-BE1A-9D4BB1803F4A";
components = (
{
name = U;
},
{
name = gravecomb;
transform = "{1, 0, 0, 1, 1022, 177}";
}
);
layerId = "04F5F713-B87E-4A93-A7EA-A2FF870198A1";
name = "Color 0";
width = 934;
},
{
associatedMasterId = "3A120C99-D056-4211-BE1A-9D4BB1803F4A";
layerId = "E0C6D793-C702-48CB-A8DF-9404E18AA97E";
name = "Color 4";
paths = (
{
closed = 1;
nodes = (
"402 -278 OFFCURVE",
"422 -269 OFFCURVE",
"450 -246 CURVE SMOOTH",
"497 -207 OFFCURVE",
"569 -122 OFFCURVE",
"641 -37 CURVE",
"641 -29 OFFCURVE",
"642 -22 OFFCURVE",
"642 -14 CURVE SMOOTH",
"645 43 OFFCURVE",
"649 99 OFFCURVE",
"653 154 CURVE SMOOTH",
"657 209 OFFCURVE",
"664 320 OFFCURVE",
"664 347 CURVE SMOOTH",
"664 409 OFFCURVE",
"654 486 OFFCURVE",
"590 486 CURVE SMOOTH",
"567 486 OFFCURVE",
"552 476 OFFCURVE",
"526 456 CURVE",
"499 495 LINE",
"539 518 OFFCURVE",
"572 538 OFFCURVE",
"600 556 CURVE",
"503 516 OFFCURVE",
"405 504 OFFCURVE",
"308 518 CURVE",
"308 479 OFFCURVE",
"314 445 OFFCURVE",
"314 403 CURVE SMOOTH",
"314 304 OFFCURVE",
"279 160 OFFCURVE",
"236 66 CURVE SMOOTH",
"215 20 OFFCURVE",
"196 -31 OFFCURVE",
"196 -73 CURVE SMOOTH",
"196 -178 OFFCURVE",
"332 -278 OFFCURVE",
"383 -278 CURVE SMOOTH"
);
}
);
width = 934;
}
);
unicode = 00D9;
},
{
glyphname = Umacron;
lastChange = "2021-06-14 02:48:41 +0000";
layers = (
{
components = (
{
name = U;
},
{
name = macroncomb;
transform = "{1, 0, 0, 1, 1127, 177}";
}
);
layerId = "3A120C99-D056-4211-BE1A-9D4BB1803F4A";
width = 934;
},
{
associatedMasterId = "3A120C99-D056-4211-BE1A-9D4BB1803F4A";
components = (
{
name = U;
},
{
name = macroncomb;
transform = "{1, 0, 0, 1, 1127, 177}";
}
);
layerId = "A061FAD9-CAE7-4F27-A51E-0D1DB8C3A6D9";
name = "Color 0";
width = 934;
},
{
associatedMasterId = "3A120C99-D056-4211-BE1A-9D4BB1803F4A";
layerId = "EC427E08-C3D4-4529-9F5E-30DEE7417C39";
name = "Color 1";
paths = (
{
closed = 1;
nodes = (
"402 -278 OFFCURVE",
"422 -269 OFFCURVE",
"450 -246 CURVE SMOOTH",
"497 -207 OFFCURVE",
"569 -122 OFFCURVE",
"641 -37 CURVE",
"641 -29 OFFCURVE",
"642 -22 OFFCURVE",
"642 -14 CURVE SMOOTH",
"645 43 OFFCURVE",
"649 99 OFFCURVE",
"653 154 CURVE SMOOTH",
"657 209 OFFCURVE",
"664 320 OFFCURVE",
"664 347 CURVE SMOOTH",
"664 409 OFFCURVE",
"654 486 OFFCURVE",
"590 486 CURVE SMOOTH",
"567 486 OFFCURVE",
"552 476 OFFCURVE",
"526 456 CURVE",
"499 495 LINE",
"539 518 OFFCURVE",
"572 538 OFFCURVE",
"600 556 CURVE",
"503 516 OFFCURVE",
"405 504 OFFCURVE",
"308 518 CURVE",
"308 479 OFFCURVE",
"314 445 OFFCURVE",
"314 403 CURVE SMOOTH",
"314 304 OFFCURVE",
"279 160 OFFCURVE",
"236 66 CURVE SMOOTH",
"215 20 OFFCURVE",
"196 -31 OFFCURVE",
"196 -73 CURVE SMOOTH",
"196 -178 OFFCURVE",
"332 -278 OFFCURVE",
"383 -278 CURVE SMOOTH"
);
}
);
width = 934;
}
);
unicode = 016A;
},
{
glyphname = V;
lastChange = "2021-06-05 21:01:10 +0000";
layers = (
{
anchors = (
{
name = bottom;
position = "{527, -138}";
},
{
name = top;
position = "{458, 771}";
}
);
guideLines = (
{
position = "{321, -178}";
}
);
layerId = "3A120C99-D056-4211-BE1A-9D4BB1803F4A";
paths = (
{
closed = 1;
nodes = (
"652 -178 OFFCURVE",
"670 -159 OFFCURVE",
"691 -108 CURVE SMOOTH",
"769 85 OFFCURVE",
"866 492 OFFCURVE",
"866 703 CURVE SMOOTH",
"866 736 OFFCURVE",
"864 770 OFFCURVE",
"862 800 CURVE",
"846 811 LINE",
"754 712 OFFCURVE",
"716 676 OFFCURVE",
"612 604 CURVE",
"626 576 LINE",
"647 586 OFFCURVE",
"667 592 OFFCURVE",
"685 592 CURVE SMOOTH",
"727 592 OFFCURVE",
"736 538 OFFCURVE",
"736 498 CURVE SMOOTH",
"736 449 OFFCURVE",
"726 379 OFFCURVE",
"711 303 CURVE SMOOTH",
"691 202 OFFCURVE",
"663 63 OFFCURVE",
"623 63 CURVE SMOOTH",
"596 63 OFFCURVE",
"536 149 OFFCURVE",
"504 196 CURVE SMOOTH",
"438 293 OFFCURVE",
"335 416 OFFCURVE",
"235 513 CURVE SMOOTH",
"214 534 OFFCURVE",
"207 547 OFFCURVE",
"207 558 CURVE SMOOTH",
"207 583 OFFCURVE",
"265 612 OFFCURVE",
"300 627 CURVE",
"287 645 LINE",
"196 626 OFFCURVE",
"93 616 OFFCURVE",
"-16 616 CURVE",
"-20 582 LINE",
"8 578 OFFCURVE",
"31 575 OFFCURVE",
"87 529 CURVE SMOOTH",
"235 407 OFFCURVE",
"407 184 OFFCURVE",
"503 2 CURVE SMOOTH",
"541 -70 OFFCURVE",
"599 -178 OFFCURVE",
"635 -178 CURVE SMOOTH"
);
}
);
width = 916;
},
{
anchors = (
{
name = bottom;
position = "{527, -138}";
},
{
name = top;
position = "{458, 771}";
}
);
associatedMasterId = "3A120C99-D056-4211-BE1A-9D4BB1803F4A";
guideLines = (
{
position = "{321, -178}";
}
);
layerId = "29B48134-53C2-4955-8523-E02BFBA76422";
name = "Color 0";
paths = (
{
closed = 1;
nodes = (
"583 -178 OFFCURVE",
"670 -159 OFFCURVE",
"691 -108 CURVE SMOOTH",
"769 85 OFFCURVE",
"866 492 OFFCURVE",
"866 703 CURVE SMOOTH",
"866 736 OFFCURVE",
"864 770 OFFCURVE",
"862 800 CURVE",
"846 811 LINE",
"754 712 OFFCURVE",
"716 676 OFFCURVE",
"612 604 CURVE",
"626 576 LINE",
"647 586 OFFCURVE",
"667 592 OFFCURVE",
"685 592 CURVE SMOOTH",
"727 592 OFFCURVE",
"736 538 OFFCURVE",
"736 498 CURVE SMOOTH",
"736 449 OFFCURVE",
"726 379 OFFCURVE",
"711 303 CURVE SMOOTH",
"691 202 OFFCURVE",
"663 63 OFFCURVE",
"623 63 CURVE SMOOTH",
"596 63 OFFCURVE",
"536 149 OFFCURVE",
"504 196 CURVE SMOOTH",
"438 293 OFFCURVE",
"335 416 OFFCURVE",
"235 513 CURVE SMOOTH",
"214 534 OFFCURVE",
"207 547 OFFCURVE",
"207 558 CURVE SMOOTH",
"207 583 OFFCURVE",
"265 612 OFFCURVE",
"300 627 CURVE",
"287 645 LINE",
"196 626 OFFCURVE",
"93 616 OFFCURVE",
"-16 616 CURVE",
"-20 582 LINE",
"8 578 OFFCURVE",
"31 575 OFFCURVE",
"87 529 CURVE SMOOTH",
"235 407 OFFCURVE",
"407 184 OFFCURVE",
"503 2 CURVE SMOOTH",
"541 -70 OFFCURVE",
"530 -178 OFFCURVE",
"566 -178 CURVE SMOOTH"
);
}
);
width = 916;
},
{
associatedMasterId = "3A120C99-D056-4211-BE1A-9D4BB1803F4A";
guideLines = (
{
position = "{321, -178}";
}
);
layerId = "1D47F8E1-AE9D-47F0-A219-9D268C1560DD";
name = "Color 1";
paths = (
{
closed = 1;
nodes = (
"663 63 OFFCURVE",
"691 202 OFFCURVE",
"711 303 CURVE SMOOTH",
"726 379 OFFCURVE",
"736 449 OFFCURVE",
"736 498 CURVE SMOOTH",
"736 538 OFFCURVE",
"727 592 OFFCURVE",
"685 592 CURVE SMOOTH",
"667 592 OFFCURVE",
"647 586 OFFCURVE",
"626 576 CURVE",
"612 604 LINE",
"504 571 OFFCURVE",
"400 582 OFFCURVE",
"300 627 CURVE",
"265 612 OFFCURVE",
"207 583 OFFCURVE",
"207 558 CURVE SMOOTH",
"207 547 OFFCURVE",
"214 534 OFFCURVE",
"235 513 CURVE SMOOTH",
"335 416 OFFCURVE",
"438 293 OFFCURVE",
"504 196 CURVE SMOOTH",
"536 149 OFFCURVE",
"596 63 OFFCURVE",
"623 63 CURVE SMOOTH"
);
}
);
width = 916;
}
);
unicode = 0056;
},
{
glyphname = W;
lastChange = "2021-06-05 21:01:22 +0000";
layers = (
{
anchors = (
{
name = bottom;
position = "{827, -138}";
},
{
name = top;
position = "{758, 771}";
}
);
layerId = "3A120C99-D056-4211-BE1A-9D4BB1803F4A";
paths = (
{
closed = 1;
nodes = (
"652 -178 OFFCURVE",
"670 -159 OFFCURVE",
"691 -108 CURVE SMOOTH",
"732 -6 OFFCURVE",
"778 154 OFFCURVE",
"813 315 CURVE",
"895 214 OFFCURVE",
"971 102 OFFCURVE",
"1023 2 CURVE SMOOTH",
"1061 -70 OFFCURVE",
"1119 -178 OFFCURVE",
"1155 -178 CURVE SMOOTH",
"1172 -178 OFFCURVE",
"1190 -159 OFFCURVE",
"1211 -108 CURVE SMOOTH",
"1289 85 OFFCURVE",
"1386 492 OFFCURVE",
"1386 703 CURVE SMOOTH",
"1386 736 OFFCURVE",
"1384 770 OFFCURVE",
"1382 800 CURVE",
"1366 811 LINE",
"1274 712 OFFCURVE",
"1236 676 OFFCURVE",
"1132 604 CURVE",
"1146 576 LINE",
"1167 586 OFFCURVE",
"1187 592 OFFCURVE",
"1205 592 CURVE SMOOTH",
"1247 592 OFFCURVE",
"1256 538 OFFCURVE",
"1256 498 CURVE SMOOTH",
"1256 449 OFFCURVE",
"1246 379 OFFCURVE",
"1231 303 CURVE SMOOTH",
"1211 202 OFFCURVE",
"1183 63 OFFCURVE",
"1143 63 CURVE SMOOTH",
"1116 63 OFFCURVE",
"1056 149 OFFCURVE",
"1024 196 CURVE SMOOTH",
"976 267 OFFCURVE",
"908 352 OFFCURVE",
"836 430 CURVE",
"854 533 OFFCURVE",
"866 630 OFFCURVE",
"866 703 CURVE SMOOTH",
"866 736 OFFCURVE",
"864 770 OFFCURVE",
"862 800 CURVE",
"846 811 LINE",
"754 712 OFFCURVE",
"716 676 OFFCURVE",
"612 604 CURVE",
"626 576 LINE",
"647 586 OFFCURVE",
"667 592 OFFCURVE",
"685 592 CURVE SMOOTH",
"727 592 OFFCURVE",
"736 538 OFFCURVE",
"736 498 CURVE SMOOTH",
"736 449 OFFCURVE",
"726 379 OFFCURVE",
"711 303 CURVE SMOOTH",
"691 202 OFFCURVE",
"663 63 OFFCURVE",
"623 63 CURVE SMOOTH",
"596 63 OFFCURVE",
"536 149 OFFCURVE",
"504 196 CURVE SMOOTH",
"438 293 OFFCURVE",
"335 416 OFFCURVE",
"235 513 CURVE SMOOTH",
"214 534 OFFCURVE",
"207 547 OFFCURVE",
"207 558 CURVE SMOOTH",
"207 583 OFFCURVE",
"265 612 OFFCURVE",
"300 627 CURVE",
"287 645 LINE",
"196 626 OFFCURVE",
"93 616 OFFCURVE",
"-16 616 CURVE",
"-20 582 LINE",
"8 579 OFFCURVE",
"31 575 OFFCURVE",
"87 529 CURVE SMOOTH",
"235 407 OFFCURVE",
"407 184 OFFCURVE",
"503 2 CURVE SMOOTH",
"541 -70 OFFCURVE",
"599 -178 OFFCURVE",
"635 -178 CURVE SMOOTH"
);
}
);
width = 1436;
},
{
anchors = (
{
name = bottom;
position = "{827, -138}";
},
{
name = top;
position = "{758, 771}";
}
);
associatedMasterId = "3A120C99-D056-4211-BE1A-9D4BB1803F4A";
layerId = "721B11EF-B0EB-4A45-9FB4-D19DC5150A15";
name = "Color 0";
paths = (
{
closed = 1;
nodes = (
"652 -178 OFFCURVE",
"670 -159 OFFCURVE",
"691 -108 CURVE SMOOTH",
"732 -6 OFFCURVE",
"778 154 OFFCURVE",
"813 315 CURVE",
"895 214 OFFCURVE",
"971 102 OFFCURVE",
"1023 2 CURVE SMOOTH",
"1061 -70 OFFCURVE",
"1119 -178 OFFCURVE",
"1155 -178 CURVE SMOOTH",
"1172 -178 OFFCURVE",
"1190 -159 OFFCURVE",
"1211 -108 CURVE SMOOTH",
"1289 85 OFFCURVE",
"1386 492 OFFCURVE",
"1386 703 CURVE SMOOTH",
"1386 736 OFFCURVE",
"1384 770 OFFCURVE",
"1382 800 CURVE",
"1366 811 LINE",
"1274 712 OFFCURVE",
"1236 676 OFFCURVE",
"1132 604 CURVE",
"1146 576 LINE",
"1167 586 OFFCURVE",
"1187 592 OFFCURVE",
"1205 592 CURVE SMOOTH",
"1247 592 OFFCURVE",
"1256 538 OFFCURVE",
"1256 498 CURVE SMOOTH",
"1256 449 OFFCURVE",
"1246 379 OFFCURVE",
"1231 303 CURVE SMOOTH",
"1211 202 OFFCURVE",
"1183 63 OFFCURVE",
"1143 63 CURVE SMOOTH",
"1116 63 OFFCURVE",
"1056 149 OFFCURVE",
"1024 196 CURVE SMOOTH",
"976 267 OFFCURVE",
"908 352 OFFCURVE",
"836 430 CURVE",
"854 533 OFFCURVE",
"866 630 OFFCURVE",
"866 703 CURVE SMOOTH",
"866 736 OFFCURVE",
"864 770 OFFCURVE",
"862 800 CURVE",
"846 811 LINE",
"754 712 OFFCURVE",
"716 676 OFFCURVE",
"612 604 CURVE",
"626 576 LINE",
"647 586 OFFCURVE",
"667 592 OFFCURVE",
"685 592 CURVE SMOOTH",
"727 592 OFFCURVE",
"736 538 OFFCURVE",
"736 498 CURVE SMOOTH",
"736 449 OFFCURVE",
"726 379 OFFCURVE",
"711 303 CURVE SMOOTH",
"691 202 OFFCURVE",
"663 63 OFFCURVE",
"623 63 CURVE SMOOTH",
"596 63 OFFCURVE",
"536 149 OFFCURVE",
"504 196 CURVE SMOOTH",
"438 293 OFFCURVE",
"335 416 OFFCURVE",
"235 513 CURVE SMOOTH",
"214 534 OFFCURVE",
"207 547 OFFCURVE",
"207 558 CURVE SMOOTH",
"207 583 OFFCURVE",
"265 612 OFFCURVE",
"300 627 CURVE",
"287 645 LINE",
"196 626 OFFCURVE",
"93 616 OFFCURVE",
"-16 616 CURVE",
"-20 582 LINE",
"8 579 OFFCURVE",
"31 575 OFFCURVE",
"87 529 CURVE SMOOTH",
"235 407 OFFCURVE",
"407 184 OFFCURVE",
"503 2 CURVE SMOOTH",
"541 -70 OFFCURVE",
"599 -178 OFFCURVE",
"635 -178 CURVE SMOOTH"
);
}
);
width = 1436;
},
{
associatedMasterId = "3A120C99-D056-4211-BE1A-9D4BB1803F4A";
layerId = "95222C2E-0A3B-4FAF-8CB9-C2FA093CF563";
name = "Color 4";
paths = (
{
closed = 1;
nodes = (
"663 63 OFFCURVE",
"691 202 OFFCURVE",
"711 303 CURVE SMOOTH",
"726 379 OFFCURVE",
"736 449 OFFCURVE",
"736 498 CURVE SMOOTH",
"736 538 OFFCURVE",
"727 592 OFFCURVE",
"685 592 CURVE SMOOTH",
"667 592 OFFCURVE",
"647 586 OFFCURVE",
"626 576 CURVE",
"612 604 LINE",
"508 576 OFFCURVE",
"404 583 OFFCURVE",
"300 627 CURVE",
"265 612 OFFCURVE",
"207 583 OFFCURVE",
"207 558 CURVE SMOOTH",
"207 547 OFFCURVE",
"214 534 OFFCURVE",
"235 513 CURVE SMOOTH",
"335 416 OFFCURVE",
"438 293 OFFCURVE",
"504 196 CURVE SMOOTH",
"536 149 OFFCURVE",
"596 63 OFFCURVE",
"623 63 CURVE SMOOTH"
);
}
);
width = 1436;
},
{
associatedMasterId = "3A120C99-D056-4211-BE1A-9D4BB1803F4A";
layerId = "10C9707D-163D-47D9-8828-EB007796C4C3";
name = "Color 1";
paths = (
{
closed = 1;
nodes = (
"1183 63 OFFCURVE",
"1211 202 OFFCURVE",
"1231 303 CURVE SMOOTH",
"1246 379 OFFCURVE",
"1256 449 OFFCURVE",
"1256 498 CURVE SMOOTH",
"1256 538 OFFCURVE",
"1247 592 OFFCURVE",
"1205 592 CURVE SMOOTH",
"1187 592 OFFCURVE",
"1167 586 OFFCURVE",
"1146 576 CURVE",
"1132 604 LINE",
"1033 582 OFFCURVE",
"944 602 OFFCURVE",
"865 661 CURVE",
"861 595 OFFCURVE",
"851 514 OFFCURVE",
"836 430 CURVE",
"908 352 OFFCURVE",
"976 267 OFFCURVE",
"1024 196 CURVE SMOOTH",
"1056 149 OFFCURVE",
"1116 63 OFFCURVE",
"1143 63 CURVE SMOOTH"
);
}
);
width = 1436;
}
);
unicode = 0057;
},
{
glyphname = X;
lastChange = "2021-06-05 21:01:59 +0000";
layers = (
{
anchors = (
{
name = bottom;
position = "{656, -137}";
},
{
name = top;
position = "{511, 701}";
}
);
layerId = "3A120C99-D056-4211-BE1A-9D4BB1803F4A";
paths = (
{
closed = 1;
nodes = (
"-160 -605 OFFCURVE",
"-61 -452 OFFCURVE",
"52 -452 CURVE",
"90 -281 OFFCURVE",
"126 -159 OFFCURVE",
"222 15 CURVE SMOOTH",
"266 95 OFFCURVE",
"345 224 OFFCURVE",
"423 343 CURVE",
"443 276 OFFCURVE",
"460 202 OFFCURVE",
"475 138 CURVE SMOOTH",
"492 65 OFFCURVE",
"508 2 OFFCURVE",
"523 -45 CURVE SMOOTH",
"552 -133 OFFCURVE",
"532 -177 OFFCURVE",
"615 -177 CURVE SMOOTH",
"690 -177 OFFCURVE",
"834 -120 OFFCURVE",
"903 -48 CURVE SMOOTH",
"950 1 OFFCURVE",
"997 69 OFFCURVE",
"1042 134 CURVE",
"1018 149 LINE",
"986 94 OFFCURVE",
"951 37 OFFCURVE",
"910 -7 CURVE SMOOTH",
"857 -65 OFFCURVE",
"795 -101 OFFCURVE",
"751 -101 CURVE SMOOTH",
"694 -101 OFFCURVE",
"637 -32 OFFCURVE",
"601 50 CURVE SMOOTH",
"576 107 OFFCURVE",
"557 187 OFFCURVE",
"538 273 CURVE SMOOTH",
"525 331 OFFCURVE",
"511 395 OFFCURVE",
"495 450 CURVE",
"534 506 OFFCURVE",
"569 553 OFFCURVE",
"595 584 CURVE SMOOTH",
"650 648 OFFCURVE",
"663 651 OFFCURVE",
"685 651 CURVE SMOOTH",
"728 651 OFFCURVE",
"770 587 OFFCURVE",
"810 525 CURVE",
"895 653 LINE",
"857 685 OFFCURVE",
"815 719 OFFCURVE",
"784 733 CURVE SMOOTH",
"771 739 OFFCURVE",
"759 741 OFFCURVE",
"748 741 CURVE SMOOTH",
"702 741 OFFCURVE",
"630 687 OFFCURVE",
"554 593 CURVE SMOOTH",
"531 565 OFFCURVE",
"507 532 OFFCURVE",
"481 497 CURVE",
"475 515 LINE SMOOTH",
"439 623 OFFCURVE",
"363 682 OFFCURVE",
"272 682 CURVE SMOOTH",
"161 682 OFFCURVE",
"33 590 OFFCURVE",
"33 485 CURVE SMOOTH",
"33 442 OFFCURVE",
"67 415 OFFCURVE",
"108 383 CURVE",
"171 459 LINE",
"138 484 OFFCURVE",
"111 505 OFFCURVE",
"111 539 CURVE SMOOTH",
"111 569 OFFCURVE",
"147 618 OFFCURVE",
"203 618 CURVE SMOOTH",
"258 618 OFFCURVE",
"326 581 OFFCURVE",
"372 485 CURVE SMOOTH",
"384 459 OFFCURVE",
"396 427 OFFCURVE",
"408 392 CURVE",
"390 367 OFFCURVE",
"373 341 OFFCURVE",
"357 317 CURVE SMOOTH",
"207 91 OFFCURVE",
"157 9 OFFCURVE",
"10 -234 CURVE SMOOTH",
"-122 -452 OFFCURVE",
"-150 -500 OFFCURVE",
"-270 -731 CURVE",
"-245 -738 LINE"
);
}
);
width = 1022;
},
{
anchors = (
{
name = bottom;
position = "{656, -137}";
},
{
name = top;
position = "{511, 701}";
}
);
associatedMasterId = "3A120C99-D056-4211-BE1A-9D4BB1803F4A";
guideLines = (
{
position = "{321, -178}";
}
);
layerId = "2452176E-022F-47C7-B105-B5A3DD1E78CF";
name = "Color 0";
paths = (
{
closed = 1;
nodes = (
"-160 -605 OFFCURVE",
"-61 -452 OFFCURVE",
"52 -452 CURVE",
"90 -281 OFFCURVE",
"126 -159 OFFCURVE",
"222 15 CURVE SMOOTH",
"266 95 OFFCURVE",
"345 224 OFFCURVE",
"423 343 CURVE",
"443 276 OFFCURVE",
"460 202 OFFCURVE",
"475 138 CURVE SMOOTH",
"492 65 OFFCURVE",
"508 2 OFFCURVE",
"523 -45 CURVE SMOOTH",
"552 -133 OFFCURVE",
"597 -177 OFFCURVE",
"680 -177 CURVE SMOOTH",
"755 -177 OFFCURVE",
"834 -120 OFFCURVE",
"903 -48 CURVE SMOOTH",
"950 1 OFFCURVE",
"997 69 OFFCURVE",
"1042 134 CURVE",
"1018 149 LINE",
"986 94 OFFCURVE",
"951 37 OFFCURVE",
"910 -7 CURVE SMOOTH",
"857 -65 OFFCURVE",
"795 -101 OFFCURVE",
"751 -101 CURVE SMOOTH",
"694 -101 OFFCURVE",
"637 -32 OFFCURVE",
"601 50 CURVE SMOOTH",
"576 107 OFFCURVE",
"557 187 OFFCURVE",
"538 273 CURVE SMOOTH",
"525 331 OFFCURVE",
"511 395 OFFCURVE",
"495 450 CURVE",
"534 506 OFFCURVE",
"569 553 OFFCURVE",
"595 584 CURVE SMOOTH",
"650 648 OFFCURVE",
"663 651 OFFCURVE",
"685 651 CURVE SMOOTH",
"728 651 OFFCURVE",
"770 587 OFFCURVE",
"810 525 CURVE",
"895 653 LINE",
"857 685 OFFCURVE",
"815 719 OFFCURVE",
"784 733 CURVE SMOOTH",
"771 739 OFFCURVE",
"759 741 OFFCURVE",
"748 741 CURVE SMOOTH",
"702 741 OFFCURVE",
"630 687 OFFCURVE",
"554 593 CURVE SMOOTH",
"531 565 OFFCURVE",
"507 532 OFFCURVE",
"481 497 CURVE",
"475 515 LINE SMOOTH",
"438 623 OFFCURVE",
"363 682 OFFCURVE",
"272 682 CURVE SMOOTH",
"161 682 OFFCURVE",
"33 590 OFFCURVE",
"33 485 CURVE SMOOTH",
"33 442 OFFCURVE",
"67 415 OFFCURVE",
"108 383 CURVE",
"171 459 LINE",
"138 484 OFFCURVE",
"111 505 OFFCURVE",
"111 539 CURVE SMOOTH",
"111 569 OFFCURVE",
"147 618 OFFCURVE",
"203 618 CURVE SMOOTH",
"258 618 OFFCURVE",
"326 581 OFFCURVE",
"372 485 CURVE SMOOTH",
"384 459 OFFCURVE",
"396 427 OFFCURVE",
"408 392 CURVE",
"390 367 OFFCURVE",
"373 341 OFFCURVE",
"357 317 CURVE SMOOTH",
"207 91 OFFCURVE",
"157 9 OFFCURVE",
"10 -234 CURVE SMOOTH",
"-122 -452 OFFCURVE",
"-150 -500 OFFCURVE",
"-270 -731 CURVE",
"-245 -738 LINE"
);
}
);
width = 1022;
},
{
associatedMasterId = "3A120C99-D056-4211-BE1A-9D4BB1803F4A";
guideLines = (
{
position = "{321, -178}";
}
);
layerId = "3746D191-12E5-47B4-B218-5FF6BD9BA8E1";
name = "Color 3";
paths = (
{
closed = 1;
nodes = (
"795 -101 OFFCURVE",
"857 -65 OFFCURVE",
"910 -7 CURVE SMOOTH",
"951 37 OFFCURVE",
"986 94 OFFCURVE",
"1018 149 CURVE",
"864 237 OFFCURVE",
"803 367 OFFCURVE",
"810 525 CURVE",
"770 587 OFFCURVE",
"728 651 OFFCURVE",
"685 651 CURVE SMOOTH",
"663 651 OFFCURVE",
"650 648 OFFCURVE",
"595 584 CURVE SMOOTH",
"569 553 OFFCURVE",
"534 506 OFFCURVE",
"495 450 CURVE",
"511 395 OFFCURVE",
"525 331 OFFCURVE",
"538 273 CURVE SMOOTH",
"557 187 OFFCURVE",
"576 107 OFFCURVE",
"601 50 CURVE SMOOTH",
"637 -32 OFFCURVE",
"694 -101 OFFCURVE",
"751 -101 CURVE SMOOTH"
);
}
);
width = 1022;
}
);
unicode = 0058;
},
{
glyphname = Y;
lastChange = "2021-06-05 21:02:30 +0000";
layers = (
{
anchors = (
{
name = bottom;
position = "{600, -550}";
},
{
name = top;
position = "{600, 701}";
}
);
layerId = "3A120C99-D056-4211-BE1A-9D4BB1803F4A";
paths = (
{
closed = 1;
nodes = (
"336 -590 OFFCURVE",
"380 -537 OFFCURVE",
"380 -485 CURVE SMOOTH",
"380 -469 OFFCURVE",
"375 -456 OFFCURVE",
"365 -447 CURVE",
"488 -317 OFFCURVE",
"559 -213 OFFCURVE",
"633 -1 CURVE SMOOTH",
"702 195 OFFCURVE",
"817 459 OFFCURVE",
"932 561 CURVE SMOOTH",
"950 577 OFFCURVE",
"966 586 OFFCURVE",
"982 586 CURVE SMOOTH",
"1021 586 OFFCURVE",
"1052 525 OFFCURVE",
"1084 455 CURVE",
"1219 557 LINE",
"1193 622 OFFCURVE",
"1162 691 OFFCURVE",
"1139 724 CURVE SMOOTH",
"1126 743 OFFCURVE",
"1112 751 OFFCURVE",
"1096 751 CURVE SMOOTH",
"1084 751 OFFCURVE",
"1073 747 OFFCURVE",
"1060 740 CURVE SMOOTH",
"966 691 OFFCURVE",
"888 612 OFFCURVE",
"826 523 CURVE SMOOTH",
"734 392 OFFCURVE",
"706 325 OFFCURVE",
"650 173 CURVE",
"629 175 LINE",
"631 195 OFFCURVE",
"631 218 OFFCURVE",
"631 240 CURVE SMOOTH",
"631 376 OFFCURVE",
"608 493 OFFCURVE",
"554 571 CURVE SMOOTH",
"495 656 OFFCURVE",
"401 701 OFFCURVE",
"320 701 CURVE SMOOTH",
"196 701 OFFCURVE",
"20 553 OFFCURVE",
"-12 413 CURVE",
"18 398 LINE",
"79 484 OFFCURVE",
"148 577 OFFCURVE",
"257 577 CURVE SMOOTH",
"334 577 OFFCURVE",
"429 484 OFFCURVE",
"474 395 CURVE SMOOTH",
"523 299 OFFCURVE",
"540 166 OFFCURVE",
"540 80 CURVE SMOOTH",
"540 -114 OFFCURVE",
"468 -293 OFFCURVE",
"342 -435 CURVE",
"332 -432 OFFCURVE",
"320 -431 OFFCURVE",
"306 -431 CURVE SMOOTH",
"251 -431 OFFCURVE",
"202 -458 OFFCURVE",
"202 -512 CURVE SMOOTH",
"202 -545 OFFCURVE",
"234 -590 OFFCURVE",
"290 -590 CURVE SMOOTH"
);
}
);
width = 1199;
},
{
anchors = (
{
name = bottom;
position = "{600, -550}";
},
{
name = top;
position = "{600, 701}";
}
);
associatedMasterId = "3A120C99-D056-4211-BE1A-9D4BB1803F4A";
layerId = "4524CE07-70BB-4D0A-A7C3-35E4AECC0B6F";
name = "Color 0";
paths = (
{
closed = 1;
nodes = (
"336 -590 OFFCURVE",
"380 -537 OFFCURVE",
"380 -485 CURVE SMOOTH",
"380 -469 OFFCURVE",
"375 -456 OFFCURVE",
"365 -447 CURVE",
"488 -317 OFFCURVE",
"559 -213 OFFCURVE",
"633 -1 CURVE SMOOTH",
"702 195 OFFCURVE",
"817 459 OFFCURVE",
"932 561 CURVE SMOOTH",
"950 577 OFFCURVE",
"966 586 OFFCURVE",
"982 586 CURVE SMOOTH",
"1021 586 OFFCURVE",
"1052 525 OFFCURVE",
"1084 455 CURVE",
"1219 557 LINE",
"1193 622 OFFCURVE",
"1162 691 OFFCURVE",
"1139 724 CURVE SMOOTH",
"1126 743 OFFCURVE",
"1112 751 OFFCURVE",
"1096 751 CURVE SMOOTH",
"1084 751 OFFCURVE",
"1073 747 OFFCURVE",
"1060 740 CURVE SMOOTH",
"966 691 OFFCURVE",
"888 612 OFFCURVE",
"826 523 CURVE SMOOTH",
"734 392 OFFCURVE",
"706 325 OFFCURVE",
"650 173 CURVE",
"629 175 LINE",
"631 195 OFFCURVE",
"631 218 OFFCURVE",
"631 240 CURVE SMOOTH",
"631 376 OFFCURVE",
"608 493 OFFCURVE",
"554 571 CURVE SMOOTH",
"495 656 OFFCURVE",
"401 701 OFFCURVE",
"320 701 CURVE SMOOTH",
"196 701 OFFCURVE",
"20 553 OFFCURVE",
"-12 413 CURVE",
"18 398 LINE",
"79 484 OFFCURVE",
"148 577 OFFCURVE",
"257 577 CURVE SMOOTH",
"334 577 OFFCURVE",
"429 484 OFFCURVE",
"474 395 CURVE SMOOTH",
"523 299 OFFCURVE",
"540 166 OFFCURVE",
"540 80 CURVE SMOOTH",
"540 -114 OFFCURVE",
"468 -293 OFFCURVE",
"342 -435 CURVE",
"332 -432 OFFCURVE",
"320 -431 OFFCURVE",
"306 -431 CURVE SMOOTH",
"251 -431 OFFCURVE",
"202 -458 OFFCURVE",
"202 -512 CURVE SMOOTH",
"202 -545 OFFCURVE",
"234 -590 OFFCURVE",
"290 -590 CURVE SMOOTH"
);
}
);
width = 1199;
},
{
associatedMasterId = "3A120C99-D056-4211-BE1A-9D4BB1803F4A";
layerId = "92665733-3ED3-4E30-A120-794A92F4F9B5";
name = "Color 1";
paths = (
{
closed = 1;
nodes = (
"240 -441 OFFCURVE",
"272 -431 OFFCURVE",
"306 -431 CURVE SMOOTH",
"320 -431 OFFCURVE",
"332 -432 OFFCURVE",
"342 -435 CURVE",
"468 -293 OFFCURVE",
"540 -114 OFFCURVE",
"540 80 CURVE SMOOTH",
"540 166 OFFCURVE",
"523 299 OFFCURVE",
"474 395 CURVE SMOOTH",
"429 484 OFFCURVE",
"334 577 OFFCURVE",
"257 577 CURVE SMOOTH",
"148 577 OFFCURVE",
"79 484 OFFCURVE",
"18 398 CURVE",
"306 257 OFFCURVE",
"384 -24 OFFCURVE",
"221 -462 CURVE"
);
}
);
width = 1199;
}
);
unicode = 0059;
},
{
glyphname = Yacute;
lastChange = "2021-06-05 21:30:55 +0000";
layers = (
{
components = (
{
name = Y;
},
{
name = acutecomb;
transform = "{1, 0, 0, 1, 1108, 100}";
}
);
layerId = "3A120C99-D056-4211-BE1A-9D4BB1803F4A";
width = 1199;
},
{
associatedMasterId = "3A120C99-D056-4211-BE1A-9D4BB1803F4A";
components = (
{
name = Y;
},
{
name = acutecomb;
transform = "{1, 0, 0, 1, 1108, 100}";
}
);
layerId = "65242533-8454-461B-973C-2C7CB46674EE";
name = "Color 0";
width = 1199;
},
{
associatedMasterId = "3A120C99-D056-4211-BE1A-9D4BB1803F4A";
layerId = "9502D054-6802-42AD-856C-122CD2FFB22E";
name = "Color 4";
paths = (
{
closed = 1;
nodes = (
"240 -441 OFFCURVE",
"272 -431 OFFCURVE",
"306 -431 CURVE SMOOTH",
"320 -431 OFFCURVE",
"332 -432 OFFCURVE",
"342 -435 CURVE",
"468 -293 OFFCURVE",
"540 -114 OFFCURVE",
"540 80 CURVE SMOOTH",
"540 166 OFFCURVE",
"523 299 OFFCURVE",
"474 395 CURVE SMOOTH",
"429 484 OFFCURVE",
"334 577 OFFCURVE",
"257 577 CURVE SMOOTH",
"148 577 OFFCURVE",
"79 484 OFFCURVE",
"18 398 CURVE",
"306 257 OFFCURVE",
"384 -24 OFFCURVE",
"221 -462 CURVE"
);
}
);
width = 1199;
}
);
unicode = 00DD;
},
{
glyphname = Ymacron;
lastChange = "2021-06-05 22:36:16 +0000";
layers = (
{
components = (
{
name = Y;
},
{
name = macroncomb;
transform = "{1, 0, 0, 1, 1178, 100}";
}
);
layerId = "3A120C99-D056-4211-BE1A-9D4BB1803F4A";
width = 1199;
},
{
associatedMasterId = "3A120C99-D056-4211-BE1A-9D4BB1803F4A";
components = (
{
name = Y;
},
{
name = macroncomb;
transform = "{1, 0, 0, 1, 1178, 100}";
}
);
layerId = "23612559-4630-4CDD-A75B-6C19C526B312";
name = "Color 0";
width = 1199;
},
{
associatedMasterId = "3A120C99-D056-4211-BE1A-9D4BB1803F4A";
layerId = "513E4A6F-904B-4148-AA86-66E71783C2A9";
name = "Color 1";
paths = (
{
closed = 1;
nodes = (
"240 -441 OFFCURVE",
"272 -431 OFFCURVE",
"306 -431 CURVE SMOOTH",
"320 -431 OFFCURVE",
"332 -432 OFFCURVE",
"342 -435 CURVE",
"468 -293 OFFCURVE",
"540 -114 OFFCURVE",
"540 80 CURVE SMOOTH",
"540 166 OFFCURVE",
"523 299 OFFCURVE",
"474 395 CURVE SMOOTH",
"429 484 OFFCURVE",
"334 577 OFFCURVE",
"257 577 CURVE SMOOTH",
"148 577 OFFCURVE",
"79 484 OFFCURVE",
"18 398 CURVE",
"306 257 OFFCURVE",
"384 -24 OFFCURVE",
"221 -462 CURVE"
);
}
);
width = 1199;
}
);
unicode = 0232;
},
